<?xml version="1.0" encoding="utf-8"?>
<!-- Generator: Adobe Illustrator 25.0.0, SVG Export Plug-In . SVG Version: 6.00 Build 0)  -->
<svg version="1.1" id="Capa_1" xmlns="http://www.w3.org/2000/svg" xmlns:xlink="http://www.w3.org/1999/xlink" x="0px" y="0px"
	 viewBox="0 0 1165.7 1054.8" style="enable-background:new 0 0 1165.7 1054.8;" xml:space="preserve">
<style type="text/css">
	.st0{opacity:0.1;fill:#00C1BB;}
	.st1{fill:#303065;}
	.st2{fill:#FFFFFF;}
	.st3{fill:#3693E6;}
	.st4{fill:#41ADEE;}
	.st5{opacity:0.22;fill:#FFFFFF;enable-background:new    ;}
	.st6{opacity:0.28;}
	.st7{fill:#004D63;}
	.st8{fill:#00AE61;}
	.st9{fill:#62BF10;}
	.st10{fill:#96E04A;}
	.st11{opacity:0.64;fill:none;stroke:#FFFFFF;stroke-width:2;stroke-miterlimit:9.9999;enable-background:new    ;}
	.st12{opacity:0.2;fill:#FFFFFF;enable-background:new    ;}
	.st13{fill:none;}
</style>
<g>
	<path class="st0" d="M559.2,8.1C357.7,0,165.4,146.4,83.5,339C-6.8,551,33.9,789.7,209.5,927.8c160.3,126.1,384.2,156.4,572.6,75.3
		c221.9-95.4,304.5-346.4,280.9-581.6c-6.3-62.7-47.6-232.5-183.7-310.9C778.6,52.5,674.3,12.8,559.2,8.1z"/>
	<path class="st0" d="M844.4,764.3C947.6,640.4,952.6,453.6,876,316C791.7,164.5,627.4,83.9,458.2,133.4
		c-154.4,45.2-281.9,173.4-324.7,328.7C83.1,645,194.7,809.1,348.6,898.9c41,23.9,163.9,73.5,277.7,22.3
		C710.7,883.3,785.5,835,844.4,764.3z"/>
	<path class="st1" d="M588.6,850c133.3-16.9,242.5-127.8,274-255.3C897.3,454.5,843,311.9,711.7,246
		c-119.8-60.2-270.3-54.5-384.7,15.8C192.4,344.6,167.1,508,209.9,650.2c11.4,37.9,58.1,138,156.6,171.5
		C439.4,846.5,512.5,859.6,588.6,850z"/>
</g>
<path id="XMLID_785_" class="st2" d="M292.3,364.8c-1.7-2.9-2.7-6.3-2.8-9.7c-0.2-6.9,3.6-14,9.7-17.2c5-2.6,11.1-2.6,16.4-0.9
	c5.4,1.7,10.1,5.1,14.1,9c1.8,1.7,3.6,3.7,4.6,5.9c2.5-4.7,7.5-8.2,12.9-8.5c6.8-0.4,13.5,4.2,15.6,10.7c1.2,3.7,1,7.7,0.3,11.5
	c-0.1,0.8-0.3,1.5-0.5,2.3c1.9,0.3,3.7,0.8,5.5,1.5c2.2,0.9,4.2,2.3,6.2,3.6c3.2,2.3,6.3,4.8,8.7,7.9H222.8
	C244,369.4,268.3,363.8,292.3,364.8z"/>
<path id="XMLID_784_" class="st2" d="M776.2,174.9c-0.8-1.5-1.3-3.1-1.4-4.8c-0.1-3.5,1.8-7,4.9-8.6c2.5-1.3,5.5-1.3,8.2-0.4
	c2.7,0.9,5,2.6,7.1,4.5c0.9,0.9,1.8,1.8,2.3,3c1.2-2.4,3.7-4.1,6.4-4.3c3.4-0.2,6.8,2.1,7.8,5.3c0.6,1.8,0.5,3.8,0.1,5.7
	c-0.1,0.4-0.2,0.8-0.3,1.1c0.9,0.2,1.9,0.4,2.7,0.8c1.1,0.5,2.1,1.1,3.1,1.8c1.6,1.1,3.2,2.4,4.4,4h-80.1
	C752,177.2,764.2,174.4,776.2,174.9z"/>
<path id="XMLID_783_" class="st2" d="M691.7,689.3c-0.4-1.6-0.4-3.2-0.2-4.8c0.6-4,3.1-7.6,5.8-10.6c1.6-1.8,3.3-3.5,5.5-4.4
	c2-0.7,4.2-0.7,6.3-0.3c3.4,0.5,6.7,1.7,9.3,3.9c0.2-1,0.5-1.9,0.8-2.9c2.7-8.4,9.9-15.4,18.4-17.6c8.6-2.3,18.3,0.4,24.4,6.9
	c4.4,4.8,6.6,11.6,6,18.1c0.6,0,1.2,0,1.8,0c2.3,0.1,4.7,0.2,6.8,1c2.8,1.1,5.2,3.3,6.3,6c0.9,2.2,1.1,4.6,0.6,6.9
	c0.3,0,0.7,0,1,0.1c1.7,0.2,3.4,0.6,5.1,1c3.6,1,7.1,2.2,10.2,4.3c1.7,1.2,3.2,2.6,4.3,4.3h-165
	C654.6,691.5,673.5,687.2,691.7,689.3z"/>
<g>
	<g id="XMLID_3_">
		
			<ellipse id="XMLID_137_" transform="matrix(0.7071 -0.7071 0.7071 0.7071 -212.4369 520.0269)" class="st3" cx="521.5" cy="516.4" rx="240.2" ry="240.2"/>
		<path id="XMLID_126_" class="st4" d="M658,564.4c-56.9,115-196.3,162.2-311.4,105.2c-6.2-3.1-12.1-6.3-17.9-9.8
			c-36.4-48.9-54.3-111.5-45.2-176.6c18.3-131.4,139.7-223,271.1-204.7c19.4,2.7,38,7.7,55.4,14.6C681.8,361.5,704.2,471,658,564.4z
			"/>
		<path id="XMLID_124_" class="st5" d="M577.3,460.9C524,568.7,395.6,614.7,286.6,567c-5.8-26.8-7-55-3-83.8
			c18.3-131.4,139.7-223,271.1-204.7c11.1,1.6,22,3.8,32.5,6.9C607.2,340.8,605.5,404,577.3,460.9z"/>
		<g id="XMLID_62_">
			<g class="st6">
				<path class="st7" d="M448.5,627.5c-1.8,6.1-10.8,6.3-14.8,11.3c-5.1,6.5-0.5,19.5-8.4,22.2c-5.5,1.9-13.1-4.1-16.7,0.6
					c-1.4,1.9-1.1,4.5-1.5,6.8c-1.8,8.7-13.8,10-20.5,15.9c-3.4,2.9-5.4,7.1-7.4,11.2c-1.5,3.2-3,6.3-4.6,9.5
					c-0.2,0.7-0.5,1.4-0.9,1.9c-0.1,0.1-0.1,0.2-0.2,0.3c0,0-0.1,0-0.1-0.1c-1.2,1.4-3.2,1.9-5.3,0.5c-3.4-2.2-5.8-5.3-8.5-8.2
					c-2.9-3.2-6.9-4.7-9-8.7c-0.9-1.6-0.7-3.7,0.5-5.1c0,0,0,0-0.1-0.1c-0.1,0.1-0.2,0.2-0.3,0.2c0-0.1,0.1-0.3,0.1-0.4c0,0,0,0,0,0
					c2.6-8.4,6-16.5,8-25.1c0.6-2.7,1.1-5.6,0.1-8.2c-0.9-2.5-3-4.4-4.8-6.4c-7.3-8.6-8.3-21.3-5.2-32.1c3.1-10.9,9.6-20.4,16-29.7
					c-6.7-0.1-14.6-0.9-18-6.7c-1.3-2.3-1.7-5-3.2-7.1c-3.7-5.3-11.5-4.6-17.8-5.4c-15-1.8-27.3-16.5-26.4-31.6
					c0.2-3.9,0.8-8.7-2.5-10.9c-1.7-1.1-3.3-1-4.8-0.3c-0.6,0.9-1.6,1.5-2.7,1.6c-0.5,0.4-0.9,0.7-1.4,1.1c0-0.4,0-0.8,0-1.2
					c-1.3-0.2-2.5-1.1-2.8-2.6c-3.1-18,0.5-38.1,4.7-55.8c5.1-21.1,16.3-38.8,24.1-58.8c1-2.5,4.2-4.8,6.9-2.8
					c2.1,1.6,3.3,2.5,3.8,4c8,2.2,16.1,2.3,23-2.1c3.3-2.1,6-5.1,9.4-6.9c3.4-1.8,8.2-2.1,10.7,0.8c1.3,1.5,1.8,3.7,2.5,5.6
					c2.4,6.4,8.4,11.4,15.2,12.4c-1.8,9.9-17.6,8-24.8,15.2c-6.7,6.7-2.6,19.1,5.5,23.9c1.9,1.1,4,2.1,5.3,3.8
					c1.1,1.5,1.5,3.5,1.8,5.4c0.9,5.6,1.9,11.2,2.8,16.8c1.4-11.2,2.8-22.4,4.2-33.6c0.2-1.4,0.4-2.9,1.1-4.1c3-5,11.3-1.2,13.6,4.3
					c2.3,5.4,2,12,5.7,16.5c5.6,6.7,17.5,6,21.8,13.6c3.3,5.9-0.6,13.9-6.7,16.6c-6.2,2.7-13.5,1.1-19.3-2.4c-3.1,1.7-1.8,6.7,1,8.7
					c2.9,2,6.6,2.4,9.7,4c3.1,1.7,5.5,5.9,3.3,8.6c-5.9,2.5-12.9,2.5-18.8-0.1c-1.5-0.7-3.1-1.5-4.7-1.3c-4.4,0.6-4.3,6.7-4.6,11.1
					c-0.7,12.5-16,21.6-27.3,16.3c-4.4-2.1-8.1-5.8-12.8-7c-4.7-1.2-11.1,2.6-9.6,7.2c2.9,9.1,11.4,16.7,20.8,15.3
					c2.6-0.4,5.9-1,7.4,1.1c1,1.5,0.7,3.4,0.6,5.2c-0.1,6.4,5.3,11.7,11.3,13.9c6,2.2,12.5,2.1,18.9,2.5c8.1,0.5,16.8,2.1,22.7,7.9
					c5.8,5.7,7.1,16.6,0.6,21.6c8.1,1.2,16,3.4,23.6,6.5C444,617.4,450.1,621.9,448.5,627.5z M500.1,404.8
					c0.8-8.6,0.3-17.8,4.6-25.3c4.5-7.6,13.2-12.3,16.9-20.3c2.1-4.5,2.3-9.7,4.2-14.3c4.7-11.4,18.4-16.9,23.1-28.3
					c3.6-8.6,1-17.8-3.4-26.4c-1-6.2-8.6-12.2-14.7-13c-23.3-3-47.6,5.3-69,12.7c-23.2,8.1-43.4,17-64.2,30.1
					c-18,11.2-37.7,21.7-50.6,39c-1.9,2.5,1.2,6.3,4.1,5.3c1.7-0.6,2.5-0.9,3.2-1.8c14.2-2.7,29.4-1.1,42.6,5
					c2.6,1.2,5.4,2.6,8.3,2.2c4.3-0.7,8.6-5.4,12.1-2.9c0.9,0.6,1.4,1.5,1.9,2.4c5.6,9.7,11.2,19.5,16.8,29.2c1.7,3,3.5,6.2,4.1,9.7
					c0.4,2.6,0.1,5.2-0.3,7.8c-1.7,12.9-3.3,25.8-5,38.7c7,2.9,14.6-2.6,19.3-8.5c4.7-6,8.6-13.2,15.7-15.9c5.9-2.3,12.9-1,18.6-3.6
					C496.3,423,499.3,413.4,500.1,404.8z M594.7,611c-9.7-2.9-14.2-14.3-14.4-24.4c-0.1-7.4,0.3-16.7-6.3-19.9
					c-4.1-2-8.9-0.3-13.3,0.5c-6.4,1.3-13.4,0.9-19.1-2.2c-5.7-3.2-10-9.4-9.7-15.9c-5.4,1.4-10.6-2.7-16.2-2.6c-5,0.1-9,4.3-13.7,6
					c-5.4,1.9-11.8,0.4-16.9,3.2c-6.5,3.5-8,12.1-8.6,19.5c-0.1,1.1-0.2,2.3,0.3,3.4c0.6,1.2,1.8,2,2.8,2.8
					c3.2,2.6,5.1,6.7,4.9,10.8c-0.1,1.9-0.5,3.8,0,5.6c0.7,2.4,3,4,5.2,5.3c7.5,4.7,15.5,9.5,24.4,9.6c5.2,0,11.6-1.1,14.5,3.1
					c0.6,0.9,1,2,1.9,2.7c-2.4,1.9-7.7,4.7-9,7.5c-0.4,0.9-0.8,1.9-0.7,3c0.2,2.4,2.5,3.9,4.5,5.2c3.3,2.3,6.3,5.4,7.6,9.2
					c1.4,3.8,1,8.4-1.6,11.5c-2,2.4-5.1,3.8-6.3,6.6c0,0-3.8,32.5,9.1,45.1c1.7,1.7-2.8,4.2-1,5.8c1.7,1.7,4.5,1.7,6.8,0.9
					c1.5-0.5,2.9-1.3,4.2-2.1c1.7-1.2,3.3-2.5,4.9-3.9c1.7-1.5,3.4-2.9,5.2-4.4c4.7-4,9.5-8.2,11.9-13.9c1.9-4.6,0.6-9,3.6-13
					c-1.3-2,0.4-4.7,2.6-5.6c2.2-0.8,4.7-0.5,7-0.7c8.3-0.7,14.9-9.9,12.7-18c-0.9-3.5-3.2-6.8-3-10.5c0.4-5.7,6.3-9,11.1-12.1
					c4.8-3.1,9.4-9.3,6.1-14C604,612.1,598.8,612.2,594.7,611z M755,518.6c-0.3-18.4-2-36.1-5.4-53.2c-0.5-3.3-1.2-6.5-1.9-9.7
					c-0.6-2.4-1.3-4.8-2.1-7.1c-5.8-21.1-14.7-41.2-27.6-60.2c-2.9-4.2-8.3-3.2-9.9,0.7c-2.6,1.3-5.1,2.8-7.4,4.4
					c-1,0.7-1.9,1.4-2.4,2.6c-0.6,1.5-0.1,3.3,0.2,4.9c0.9,5.3-1.1,11.1-4.9,14.5c-6.9,6-19.2,5.5-22.2,14.5
					c-0.8,2.5-0.7,5.3-1.8,7.7c-2.1,4.3-7.6,5.2-12.1,4.2c-4.5-0.9-8.9-3-13.4-2.4c-8.2,1.1-14.1,10.3-22.3,10.3
					c-0.3-3.6,0-7.4,0.9-10.9c-5.7,0.7-10.1-7.6-15.4-9.7c-4.5-1.8-9.5,0.2-14,2.3c-9.5,4.3-18.9,8.5-28.3,12.8
					c-4,1.8-8.4,4-10.2,8.3c-0.4,0.9-0.6,2-0.4,3c0.6,2.3,3.5,2.8,5.7,2.7c6.3-0.2,12.6-1.8,18.3-4.6c2-1,4-2.1,6.1-2.4
					c2.2-0.3,4.6,0.4,5.8,2.4c1.3,2.3,0.9,6.1,3.3,7c1.6,0.6,3.6-0.5,4.8,0.7c0.6,0.6,0.7,1.6,0.7,2.6c0.1,3.7,0.2,7.4,0.4,11.2
					c-2.9,2.9-6.7,5.5-9.6,8.4c-5.1,5-10.9,10.4-17.8,10.2c-2.6-0.1-5.2-1-7.8-1.3c-8.5-1-16.4,4.4-24.5,7.4
					c-9.5,3.6-21.1,5-26.1,14.4c-0.3,0.7-0.7,1.4-0.6,2.2c0.2,1.8,2.2,2.7,3.8,3c6.7,1.3,13.8,0.5,20.2-2c3.2-1.3,6.3-2.9,9.7-3.5
					c3.3-0.6,7.2,0,9.4,2.7c0.9,1.1,1.6,2.6,2.5,3.7c3,3.7,8.2,3.6,12.7,3.2c6.5-0.5,13.1-1,19.6-1.5c4.9-0.4,5.2,13.8,1.3,16.9
					c-4,3.2-9.3,4.3-12.3,8.5c-3.9,5.4-2.1,13.1-0.1,19.5c3,9.9,6,19.8,9.1,29.7c0.3,1.1,0.7,2.3,1.5,3.2c3.3,3.9,9-1.2,10.9-6.1
					c1.9-4.8,5.1-11.1,9.8-9.8c1.8,0.5,3.2,2.2,4.9,3.1c4.6,2.5,10.1-0.9,15.2,0.2c6.1,1.3,9.3,8.2,12.4,13.9
					c3.2,5.7,9.1,11.5,14.8,8.9c4.5-2.1,6.8-8.9,11.7-9.2c1.6-0.1,3.2,0.6,4.6,1.6c9.3,6.6,9.3,24.6,20.1,27.5
					c2.3,0.6,4.8,0.4,6.6,2c1.7,1.4,2.2,3.8,2.8,5.9c1.4,4.5,4,8.5,7.2,11.8c0.2,0.6,0.5,1.1,0.8,1.8c0.8,1.6,2.5,2.6,4.2,2.6
					c3.8,0,5.7-1.9,7-4.7c0.3-0.3,0.6-0.6,0.9-1C750.6,611.2,755.9,564.1,755,518.6z"/>
			</g>
		</g>
		<g id="XMLID_143_">
			<path class="st8" d="M441.5,620.5c-1.8,6.1-10.8,6.3-14.8,11.3c-5.1,6.5-0.5,19.5-8.4,22.2c-5.5,1.9-13.1-4.1-16.7,0.6
				c-1.4,1.9-1.1,4.5-1.5,6.8c-1.8,8.7-13.8,10-20.5,15.9c-3.4,2.9-5.4,7.1-7.4,11.2c-1.5,3.2-3,6.3-4.6,9.5
				c-0.2,0.7-0.5,1.4-0.9,1.9c-0.1,0.1-0.1,0.2-0.2,0.3c0,0-0.1,0-0.1-0.1c-1.2,1.4-3.2,1.9-5.3,0.5c-3.4-2.2-5.8-5.3-8.5-8.2
				c-2.9-3.2-6.9-4.7-9-8.7c-0.9-1.6-0.7-3.7,0.5-5.1c0,0,0,0-0.1-0.1c-0.1,0.1-0.2,0.2-0.3,0.2c0-0.1,0.1-0.3,0.1-0.4c0,0,0,0,0,0
				c2.6-8.4,6-16.5,8-25.1c0.6-2.7,1.1-5.6,0.1-8.2c-0.9-2.5-3-4.4-4.8-6.4c-7.3-8.6-8.3-21.3-5.2-32.1c3.1-10.9,9.6-20.4,16-29.7
				c-6.7-0.1-14.6-0.9-18-6.7c-1.3-2.3-1.7-5-3.2-7.1c-3.7-5.3-11.5-4.6-17.8-5.4c-15-1.8-27.3-16.5-26.4-31.6
				c0.2-3.9,0.8-8.7-2.5-10.9c-1.7-1.1-3.3-1-4.8-0.3c-0.6,0.9-1.6,1.5-2.7,1.6c-0.5,0.4-0.9,0.7-1.4,1.1c0-0.4,0-0.8,0-1.2
				c-1.3-0.2-2.5-1.1-2.8-2.6c-3.1-18,0.5-38.1,4.7-55.8c5.1-21.1,16.3-38.8,24.1-58.8c1-2.5,4.2-4.8,6.9-2.8c2.1,1.6,3.3,2.5,3.8,4
				c8,2.2,16.1,2.3,23-2.1c3.3-2.1,6-5.1,9.4-6.9c3.4-1.8,8.2-2.1,10.7,0.8c1.3,1.5,1.8,3.7,2.5,5.6c2.4,6.4,8.4,11.4,15.2,12.4
				c-1.8,9.9-17.6,8-24.8,15.2c-6.7,6.7-2.6,19.1,5.5,23.9c1.9,1.1,4,2.1,5.3,3.8c1.1,1.5,1.5,3.5,1.8,5.4
				c0.9,5.6,1.9,11.2,2.8,16.8c1.4-11.2,2.8-22.4,4.2-33.6c0.2-1.4,0.4-2.9,1.1-4.1c3-5,11.3-1.2,13.6,4.3c2.3,5.4,2,12,5.7,16.5
				c5.6,6.7,17.5,6,21.8,13.6c3.3,5.9-0.6,13.9-6.7,16.6c-6.2,2.7-13.5,1.1-19.3-2.4c-3.1,1.7-1.8,6.7,1,8.7c2.9,2,6.6,2.4,9.7,4
				c3.1,1.7,5.5,5.9,3.3,8.6c-5.9,2.5-12.9,2.5-18.8-0.1c-1.5-0.7-3.1-1.5-4.7-1.3c-4.4,0.6-4.3,6.7-4.6,11.1
				c-0.7,12.5-16,21.6-27.3,16.3c-4.4-2.1-8.1-5.8-12.8-7c-4.7-1.2-11.1,2.6-9.6,7.2c2.9,9.1,11.4,16.7,20.8,15.3
				c2.6-0.4,5.9-1,7.4,1.1c1,1.5,0.7,3.4,0.6,5.2c-0.1,6.4,5.3,11.7,11.3,13.9c6,2.2,12.5,2.1,18.9,2.5c8.1,0.5,16.8,2.1,22.7,7.9
				c5.8,5.7,7.1,16.6,0.6,21.6c8.1,1.2,16,3.4,23.6,6.5C437,610.4,443.1,615,441.5,620.5z M493.2,397.8c0.8-8.6,0.3-17.8,4.6-25.3
				c4.5-7.6,13.2-12.3,16.9-20.3c2.1-4.5,2.3-9.7,4.2-14.3c4.7-11.4,18.4-16.9,23.1-28.3c3.6-8.6,1-17.8-3.4-26.4
				c-1-6.2-8.6-12.2-14.7-13c-23.3-3-47.6,5.3-69,12.7c-23.2,8.1-43.4,17-64.2,30.1c-18,11.2-37.7,21.7-50.6,39
				c-1.9,2.5,1.2,6.3,4.1,5.3c1.7-0.6,2.5-0.9,3.2-1.8c14.2-2.7,29.4-1.1,42.6,5c2.6,1.2,5.4,2.6,8.3,2.2c4.3-0.7,8.6-5.4,12.1-2.9
				c0.9,0.6,1.4,1.5,1.9,2.4c5.6,9.7,11.2,19.5,16.8,29.2c1.7,3,3.5,6.2,4.1,9.7c0.4,2.6,0.1,5.2-0.3,7.8c-1.7,12.9-3.3,25.8-5,38.7
				c7,2.9,14.6-2.6,19.3-8.5c4.7-6,8.6-13.2,15.7-15.9c5.9-2.3,12.9-1,18.7-3.6C489.4,416.1,492.4,406.5,493.2,397.8z M587.8,604.1
				c-9.7-2.9-14.2-14.3-14.4-24.4c-0.1-7.4,0.3-16.7-6.3-19.9c-4.1-2-8.9-0.3-13.3,0.5c-6.4,1.3-13.4,0.9-19.1-2.2
				c-5.7-3.2-10-9.4-9.7-15.9c-5.4,1.4-10.6-2.7-16.2-2.6c-5,0.1-9,4.3-13.7,6c-5.4,1.9-11.8,0.4-16.9,3.2
				c-6.5,3.5-7.9,12.1-8.6,19.5c-0.1,1.1-0.2,2.3,0.3,3.4c0.6,1.2,1.8,2,2.8,2.8c3.2,2.6,5.1,6.7,4.9,10.8c-0.1,1.9-0.5,3.8,0,5.6
				c0.7,2.4,3,4,5.2,5.3c7.5,4.7,15.5,9.5,24.4,9.6c5.2,0,11.6-1.1,14.5,3.1c0.6,0.9,1,2,1.9,2.7c-2.4,1.9-7.7,4.7-9,7.5
				c-0.4,0.9-0.8,1.9-0.7,3c0.2,2.4,2.5,3.9,4.5,5.2c3.3,2.3,6.3,5.4,7.6,9.2c1.4,3.8,1,8.4-1.6,11.5c-2,2.4-5.1,3.8-6.3,6.6
				c0,0-3.8,32.5,9.1,45.1c1.7,1.7-2.8,4.2-1,5.8c1.7,1.7,4.5,1.7,6.8,0.9c1.5-0.5,2.9-1.3,4.2-2.1c1.7-1.2,3.3-2.5,4.9-3.9
				c1.7-1.5,3.4-2.9,5.2-4.4c4.7-4,9.5-8.2,11.9-13.9c1.9-4.6,0.6-9,3.6-13c-1.3-2,0.4-4.7,2.6-5.6c2.2-0.8,4.7-0.5,7-0.7
				c8.3-0.7,14.9-9.9,12.7-18c-0.9-3.5-3.2-6.8-3-10.5c0.4-5.7,6.3-9,11.1-12.1c4.8-3.1,9.4-9.3,6.1-14
				C597,605.1,591.9,605.3,587.8,604.1z M765.7,511.7c-0.4-18.4-2.1-36.1-5.7-53.2c-0.6-3.3-1.3-6.5-2-9.7c-0.6-2.4-1.4-4.8-2.2-7.1
				c-6.2-21.1-15.7-41.2-29.6-60.2c-3.1-4.2-8.9-3.2-10.6,0.7c-2.7,1.3-5.4,2.8-8,4.4c-1,0.7-2.1,1.4-2.6,2.6
				c-0.7,1.5-0.1,3.3,0.2,4.9c1,5.3-1.1,11.1-5.3,14.5c-7.4,6-20.6,5.5-23.8,14.5c-0.9,2.5-0.7,5.3-2,7.7c-2.3,4.3-8.2,5.2-13,4.2
				c-4.8-0.9-9.5-3-14.4-2.4c-8.7,1.1-15.2,10.3-24,10.3c-0.3-3.6,0-7.4,0.9-10.9c-6.1,0.7-10.8-7.6-16.6-9.7
				c-4.9-1.8-10.2,0.2-15,2.3c-10.1,4.3-20.3,8.5-30.4,12.8c-4.3,1.8-9.1,4-10.9,8.3c-0.4,0.9-0.7,2-0.4,3c0.7,2.3,3.7,2.8,6.1,2.7
				c6.8-0.2,13.5-1.8,19.7-4.6c2.1-1,4.3-2.1,6.5-2.4c2.3-0.3,5,0.4,6.2,2.4c1.4,2.3,1,6.1,3.5,7c1.7,0.6,3.9-0.5,5.1,0.7
				c0.7,0.6,0.7,1.6,0.8,2.6c0.1,3.7,0.3,7.4,0.4,11.2c-3.1,2.9-7.2,5.5-10.3,8.4c-5.4,5-11.7,10.4-19.1,10.2
				c-2.8-0.1-5.6-1-8.4-1.3c-9.2-1-17.6,4.4-26.3,7.4c-10.2,3.6-22.7,5-28,14.4c-0.4,0.7-0.7,1.4-0.7,2.2c0.2,1.8,2.3,2.7,4.1,3
				c7.2,1.3,14.8,0.5,21.7-2c3.5-1.3,6.8-2.9,10.4-3.5c3.6-0.6,7.7,0,10.1,2.7c1,1.1,1.7,2.6,2.7,3.7c3.2,3.7,8.8,3.6,13.6,3.2
				c7-0.5,14-1,21-1.5c5.2-0.4,5.6,13.8,1.4,16.9c-4.2,3.2-10,4.3-13.2,8.5c-4.2,5.4-2.2,13.1-0.1,19.5c3.2,9.9,6.5,19.8,9.7,29.7
				c0.4,1.1,0.8,2.3,1.6,3.2c3.6,3.9,9.7-1.2,11.7-6.1c2-4.8,5.4-11.1,10.5-9.8c1.9,0.5,3.4,2.2,5.2,3.1c4.9,2.5,10.9-0.9,16.3,0.2
				c6.5,1.3,10,8.2,13.3,13.9c3.4,5.7,9.7,11.5,15.9,8.9c4.9-2.1,7.3-8.9,12.5-9.2c1.7-0.1,3.4,0.6,4.9,1.6
				c10,6.6,10,24.6,21.6,27.5c2.4,0.6,5.2,0.4,7.1,2c1.8,1.4,2.3,3.8,3.1,5.9c1.5,4.5,4.2,8.5,7.7,11.8c0.2,0.6,0.5,1.1,0.9,1.8
				c0.9,1.6,2.7,2.6,4.5,2.6c4.1,0,6.1-1.9,7.5-4.7c0.3-0.3,0.7-0.6,1-1C761,604.2,766.6,557.2,765.7,511.7z"/>
			<g>
				<path class="st9" d="M441.5,620.5c-1.8,6.1-10.8,6.3-14.8,11.3c-5.1,6.5-0.5,19.5-8.4,22.2c-5.5,1.9-13.1-4.1-16.7,0.6
					c-1.4,1.9-1.1,4.5-1.5,6.8c-1.8,8.7-13.8,10-20.5,15.9c-3.4,2.9-5.4,7.1-7.4,11.2c-1.5,3.2-3,6.3-4.6,9.5
					c-0.2,0.7-0.5,1.4-0.9,1.9c-0.1,0.1-0.1,0.2-0.2,0.3c0,0-0.1,0-0.1-0.1c-1.2,1.4-3.2,1.9-5.3,0.5c-3.4-2.2-5.8-5.3-8.5-8.2
					c-2.9-3.2-6.9-4.7-9-8.7c-0.9-1.6-0.7-3.7,0.5-5.1c0,0,0,0-0.1-0.1c-0.1,0.1-0.2,0.2-0.3,0.2c0-0.1,0.1-0.3,0.1-0.4c0,0,0,0,0,0
					c2.6-8.4,6-16.5,8-25.1c0.6-2.7,1.1-5.6,0.1-8.2c-0.9-2.5-3-4.4-4.8-6.4c-7.3-8.6-8.3-21.3-5.2-32.1c3.1-10.9,9.6-20.4,16-29.7
					c-6.7-0.1-14.6-0.9-18-6.7c-1.3-2.3-1.7-5-3.2-7.1c-3.7-5.3-11.5-4.6-17.8-5.4c-15-1.8-27.3-16.5-26.4-31.6
					c0.2-3.9,0.8-8.7-2.5-10.9c-1.7-1.1-3.3-1-4.8-0.3c-0.6,0.9-1.6,1.5-2.7,1.6c-0.5,0.4-0.9,0.7-1.4,1.1c0-0.4,0-0.8,0-1.2
					c-1.3-0.2-2.5-1.1-2.8-2.6c-3.1-18,0.5-38.1,4.7-55.8c5.1-21.1,16.3-38.8,24.1-58.8c1-2.5,4.2-4.8,6.9-2.8
					c2.1,1.6,3.3,2.5,3.8,4c8,2.2,16.1,2.3,23-2.1c3.3-2.1,6-5.1,9.4-6.9c3.4-1.8,8.2-2.1,10.7,0.8c1.3,1.5,1.8,3.7,2.5,5.6
					c2.4,6.4,8.4,11.4,15.2,12.4c-1.8,9.9-17.6,8-24.8,15.2c-6.7,6.7-2.6,19.1,5.5,23.9c1.9,1.1,4,2.1,5.3,3.8
					c1.1,1.5,1.5,3.5,1.8,5.4c0.9,5.6,1.9,11.2,2.8,16.8c1.4-11.2,2.8-22.4,4.2-33.6c0.2-1.4,0.4-2.9,1.1-4.1c3-5,11.3-1.2,13.6,4.3
					c2.3,5.4,2,12,5.7,16.5c5.6,6.7,17.5,6,21.8,13.6c3.3,5.9-0.6,13.9-6.7,16.6c-6.2,2.7-13.5,1.1-19.3-2.4c-3.1,1.7-1.8,6.7,1,8.7
					c2.9,2,6.6,2.4,9.7,4c3.1,1.7,5.5,5.9,3.3,8.6c-5.9,2.5-12.9,2.5-18.8-0.1c-1.5-0.7-3.1-1.5-4.7-1.3c-4.4,0.6-4.3,6.7-4.6,11.1
					c-0.7,12.5-16,21.6-27.3,16.3c-4.4-2.1-8.1-5.8-12.8-7c-4.7-1.2-11.1,2.6-9.6,7.2c2.9,9.1,11.4,16.7,20.8,15.3
					c2.6-0.4,5.9-1,7.4,1.1c1,1.5,0.7,3.4,0.6,5.2c-0.1,6.4,5.3,11.7,11.3,13.9c6,2.2,12.5,2.1,18.9,2.5c8.1,0.5,16.8,2.1,22.7,7.9
					c5.8,5.7,7.1,16.6,0.6,21.6c8.1,1.2,16,3.4,23.6,6.5C437,610.4,443.1,615,441.5,620.5z M493.2,397.8c0.8-8.6,0.3-17.8,4.6-25.3
					c4.5-7.6,13.2-12.3,16.9-20.3c2.1-4.5,2.3-9.7,4.2-14.3c4.7-11.4,18.4-16.9,23.1-28.3c3.6-8.6,1-17.8-3.4-26.4
					c-1-6.2-8.6-12.2-14.7-13c-23.3-3-47.6,5.3-69,12.7c-23.2,8.1-43.4,17-64.2,30.1c-18,11.2-37.7,21.7-50.6,39
					c-1.9,2.5,1.2,6.3,4.1,5.3c1.7-0.6,2.5-0.9,3.2-1.8c14.2-2.7,29.4-1.1,42.6,5c2.6,1.2,5.4,2.6,8.3,2.2c4.3-0.7,8.6-5.4,12.1-2.9
					c0.9,0.6,1.4,1.5,1.9,2.4c5.6,9.7,11.2,19.5,16.8,29.2c1.7,3,3.5,6.2,4.1,9.7c0.4,2.6,0.1,5.2-0.3,7.8
					c-1.7,12.9-3.3,25.8-5,38.7c7,2.9,14.6-2.6,19.3-8.5c4.7-6,8.6-13.2,15.7-15.9c5.9-2.3,12.9-1,18.7-3.6
					C489.4,416.1,492.4,406.5,493.2,397.8z M587.8,604.1c-9.7-2.9-14.2-14.3-14.4-24.4c-0.1-7.4,0.3-16.7-6.3-19.9
					c-4.1-2-8.9-0.3-13.3,0.5c-6.4,1.3-13.4,0.9-19.1-2.2c-5.7-3.2-10-9.4-9.7-15.9c-5.4,1.4-10.6-2.7-16.2-2.6c-5,0.1-9,4.3-13.7,6
					c-5.4,1.9-11.8,0.4-16.9,3.2c-6.5,3.5-7.9,12.1-8.6,19.5c-0.1,1.1-0.2,2.3,0.3,3.4c0.6,1.2,1.8,2,2.8,2.8
					c3.2,2.6,5.1,6.7,4.9,10.8c-0.1,1.9-0.5,3.8,0,5.6c0.7,2.4,3,4,5.2,5.3c7.5,4.7,15.5,9.5,24.4,9.6c5.2,0,11.6-1.1,14.5,3.1
					c0.6,0.9,1,2,1.9,2.7c-2.4,1.9-7.7,4.7-9,7.5c-0.4,0.9-0.8,1.9-0.7,3c0.2,2.4,2.5,3.9,4.5,5.2c3.3,2.3,6.3,5.4,7.6,9.2
					c1.4,3.8,1,8.4-1.6,11.5c-2,2.4-5.1,3.8-6.3,6.6c0,0-3.8,32.5,9.1,45.1c1.7,1.7-2.8,4.2-1,5.8c1.7,1.7,4.5,1.7,6.8,0.9
					c1.5-0.5,2.9-1.3,4.2-2.1c1.7-1.2,3.3-2.5,4.9-3.9c1.7-1.5,3.4-2.9,5.2-4.4c4.7-4,9.5-8.2,11.9-13.9c1.9-4.6,0.6-9,3.6-13
					c-1.3-2,0.4-4.7,2.6-5.6c2.2-0.8,4.7-0.5,7-0.7c8.3-0.7,14.9-9.9,12.7-18c-0.9-3.5-3.2-6.8-3-10.5c0.4-5.7,6.3-9,11.1-12.1
					c4.8-3.1,9.4-9.3,6.1-14C597,605.1,591.9,605.3,587.8,604.1z M765.7,511.7c-0.4-18.4-2.1-36.1-5.7-53.2c-0.6-3.3-1.3-6.5-2-9.7
					c-0.6-2.4-1.4-4.8-2.2-7.1c-6.2-21.1-15.7-41.2-29.6-60.2c-3.1-4.2-8.9-3.2-10.6,0.7c-2.7,1.3-5.4,2.8-8,4.4
					c-1,0.7-2.1,1.4-2.6,2.6c-0.7,1.5-0.1,3.3,0.2,4.9c1,5.3-1.1,11.1-5.3,14.5c-7.4,6-20.6,5.5-23.8,14.5c-0.9,2.5-0.7,5.3-2,7.7
					c-2.3,4.3-8.2,5.2-13,4.2c-4.8-0.9-9.5-3-14.4-2.4c-8.7,1.1-15.2,10.3-24,10.3c-0.3-3.6,0-7.4,0.9-10.9
					c-6.1,0.7-10.8-7.6-16.6-9.7c-4.9-1.8-10.2,0.2-15,2.3c-10.1,4.3-20.3,8.5-30.4,12.8c-4.3,1.8-9.1,4-10.9,8.3
					c-0.4,0.9-0.7,2-0.4,3c0.7,2.3,3.7,2.8,6.1,2.7c6.8-0.2,13.5-1.8,19.7-4.6c2.1-1,4.3-2.1,6.5-2.4c2.3-0.3,5,0.4,6.2,2.4
					c1.4,2.3,1,6.1,3.5,7c1.7,0.6,3.9-0.5,5.1,0.7c0.7,0.6,0.7,1.6,0.8,2.6c0.1,3.7,0.3,7.4,0.4,11.2c-3.1,2.9-7.2,5.5-10.3,8.4
					c-5.4,5-11.7,10.4-19.1,10.2c-2.8-0.1-5.6-1-8.4-1.3c-9.2-1-17.6,4.4-26.3,7.4c-10.2,3.6-22.7,5-28,14.4
					c-0.4,0.7-0.7,1.4-0.7,2.2c0.2,1.8,2.3,2.7,4.1,3c7.2,1.3,14.8,0.5,21.7-2c3.5-1.3,6.8-2.9,10.4-3.5c3.6-0.6,7.7,0,10.1,2.7
					c1,1.1,1.7,2.6,2.7,3.7c3.2,3.7,8.8,3.6,13.6,3.2c7-0.5,14-1,21-1.5c5.2-0.4,5.6,13.8,1.4,16.9c-4.2,3.2-10,4.3-13.2,8.5
					c-4.2,5.4-2.2,13.1-0.1,19.5c3.2,9.9,6.5,19.8,9.7,29.7c0.4,1.1,0.8,2.3,1.6,3.2c3.6,3.9,9.7-1.2,11.7-6.1
					c2-4.8,5.4-11.1,10.5-9.8c1.9,0.5,3.4,2.2,5.2,3.1c4.9,2.5,10.9-0.9,16.3,0.2c6.5,1.3,10,8.2,13.3,13.9
					c3.4,5.7,9.7,11.5,15.9,8.9c4.9-2.1,7.3-8.9,12.5-9.2c1.7-0.1,3.4,0.6,4.9,1.6c10,6.6,10,24.6,21.6,27.5c2.4,0.6,5.2,0.4,7.1,2
					c1.8,1.4,2.3,3.8,3.1,5.9c1.5,4.5,4.2,8.5,7.7,11.8c0.2,0.6,0.5,1.1,0.9,1.8c0.9,1.6,2.7,2.6,4.5,2.6c4.1,0,6.1-1.9,7.5-4.7
					c0.3-0.3,0.7-0.6,1-1C761,604.2,766.6,557.2,765.7,511.7z"/>
			</g>
			<path class="st10" d="M529,693.2c-0.6-0.9-1.2-1.6-1.6-2c-7-6.8-7.7-25.9-6.8-36c0.3-0.3,0.6-0.5,0.9-0.8
				c1.1-0.9,2.5-2.1,3.7-3.6c4.4-5.3,5.5-12.8,3-19.8c-1.7-4.7-5-8.9-9.5-12.4c0.6-0.4,1.1-0.8,1.6-1.1c1.1-0.7,2-1.4,2.8-1.9
				c2.1-1.6,3.3-4,3.3-6.6c0-2.2-0.8-4.4-2.4-6l0-0.1c-0.3-0.5-0.6-1.1-1-1.6c-4.7-6.9-12.8-6.9-15.8-6.9c-1,0-2.1,0-3.1,0.1
				c-0.8,0-1.6,0.1-2.4,0.1c-6.3,0-12.5-3.6-20-8.3c-0.3-0.2-1-0.6-1.5-1c0-0.2,0-0.3,0.1-0.5c0.1-0.7,0.1-1.4,0.1-2.1
				c0.2-6.7-2.8-13.3-8-17.5c0.3-3.5,1.2-10.3,4.1-11.8c1.2-0.7,3.5-0.8,5.9-1c3-0.2,6.4-0.4,9.9-1.7c2.7-0.9,4.9-2.3,6.8-3.5
				c1.5-0.9,3.4-2.1,4.3-2.1c0,0,0,0,0,0c1.1,0,2.7,0.5,4.4,1.1c1.3,0.4,2.8,0.9,4.4,1.2c2,6.2,6.6,11.8,12.8,15.2
				c4.8,2.6,10.3,4,16.4,4c2.8,0,5.6-0.3,8.5-0.9c0.8-0.2,1.5-0.3,2.3-0.5c1.9-0.4,3.6-0.8,4.9-0.8c0.4,0,0.7,0.1,0.8,0.1
				c1.4,0.7,1.5,7.9,1.5,10.7l0,1.7c0.2,13.1,6.6,28.2,20.4,32.3c1.5,0.5,3,0.7,4.4,1c0.5,0.1,1,0.2,1.5,0.3
				c-0.6,0.7-1.4,1.5-2.4,2.2l-1.3,0.8c-5.2,3.3-13,8.4-13.7,17.8c-0.3,4.3,1.2,7.9,2.3,10.5c0.4,1,0.8,1.9,1,2.6
				c0.4,1.4-0.1,3.2-1.2,4.8c-1.1,1.5-2.7,2.6-4.1,2.7c-0.5,0-1.1,0-1.6,0c-2,0-4.7,0-7.7,1.1c-3.7,1.4-6.8,4.6-8,8.4
				c-0.4,1.2-0.6,2.4-0.5,3.6c-1.3,2.8-1.6,5.5-1.9,7.7c-0.2,1.5-0.3,2.6-0.7,3.5c-1.7,3.9-5.7,7.4-9.6,10.7l-5.2,4.4
				C530.3,692.1,529.7,692.6,529,693.2z M356.6,687.5c-0.5-0.6-1-1.1-1.6-1.7c-0.5-0.6-1-1.1-1.5-1.7c-1.7-1.8-3.5-3.2-4.9-4.3
				c-0.7-0.6-1.3-1-1.8-1.4c0.2-0.7,0.3-1.3,0.3-2c0.8-2.4,1.6-4.8,2.5-7.3c1.8-5.3,3.7-10.7,5.1-16.4c0.9-3.9,1.6-8.4-0.2-13.1
				c-1.3-3.5-3.5-5.9-5.2-7.8c-0.4-0.4-0.7-0.8-1.1-1.2c-5.8-6.8-5.6-17-3.5-24.4c2.7-9.7,8.9-18.6,14.8-27.3c0.6-0.9,1.1-1.9,1.3-3
				c5,1.3,10.1,1.6,14.7,1.8c1.1,0.1,2.2,0.1,3.2,0.2c8.5,0.5,14,2.3,17.3,5.5c1.5,1.5,2.5,4.1,2.4,6.3c0,0.8-0.3,2-1.1,2.6
				c-2.7,2.1-3.9,5.5-3,8.8c0.8,3.3,3.5,5.7,6.9,6.2c7.5,1.1,14.7,3.2,21.7,6c1.8,0.8,3.2,1.7,4.1,2.4c-0.7,0.4-1.7,0.8-2.4,1.2
				c-3.2,1.5-7.1,3.4-10.1,7.1c-3.7,4.8-4.3,10.5-4.7,15.2c-0.1,1.2-0.3,2.9-0.5,4.1c-0.7-0.1-1.6-0.3-2.4-0.5c-2-0.5-4.3-1-6.7-1
				c-4.4,0-8.3,1.8-10.8,5.2c-2.4,3.2-2.7,6.6-2.9,8.9c0,0.4-0.1,0.9-0.1,1.3c-0.3,1.5-4,3.2-7.2,4.8c-3.4,1.7-7.2,3.5-10.5,6.4
				c-4.8,4.1-7.4,9.5-9.4,13.9L356.6,687.5z M719.6,634.6c-0.1-0.2-0.3-0.3-0.5-0.5c-2.7-2.6-4.5-5.4-5.6-8.5l-0.3-0.9
				c-0.8-2.5-2-6.2-5.5-9c-3.1-2.5-6.6-3-8.9-3.3c-0.5-0.1-1-0.1-1.5-0.2c-2.3-0.6-4.1-4.1-6.6-9.5c-2.8-5.9-5.9-12.6-12.4-16.9
				c-2.8-1.9-6.1-3-9.2-3c-0.2,0-0.5,0-0.8,0c-6.4,0.4-10.3,4.6-12.9,7.4c-0.8,0.9-2,2.2-2.5,2.4c-0.7-0.1-3.3-2-5.3-5.5l-0.9-1.6
				c-3.5-6.1-8.4-14.4-18-16.3c-1.3-0.2-2.5-0.4-3.9-0.4c-2.2,0-4.3,0.3-6.1,0.6c-1.3,0.2-2.6,0.4-3.5,0.4c-0.5,0-0.6,0-0.6-0.1
				c-0.3-0.2-0.6-0.4-0.9-0.6c-1.3-0.9-3.2-2.4-5.8-3.1c-1.3-0.3-2.5-0.5-3.7-0.5c-9.2,0-14,8.7-16.1,13.4c-2.7-8.2-5.4-16.3-8-24.5
				c-0.8-2.3-3.1-9.4-1.2-11.8c0.8-1,2.7-2,4.8-3c2.1-1,4.5-2.2,6.8-3.9c7-5.2,7.2-16.8,5.2-23c-1.9-5.7-6.1-9.1-11.3-9.1
				c-0.2,0-1.1,0.1-1.1,0.1c-6.9,0.5-13.8,1-20.7,1.5c-1,0.1-2.1,0.1-3.1,0.1c-2.9,0-3.6-0.5-3.6-0.5c-0.2-0.3-0.4-0.6-0.6-0.9
				c-0.5-0.8-1.2-1.8-2.1-2.8c-3.4-3.8-8.3-5.8-13.9-5.8c-0.3,0-0.7,0-1,0c0.4-0.2,0.8-0.3,1.1-0.5c5-2.1,9.6-4.1,13.8-4.1
				c0.5,0,0.9,0,1.4,0.1c0.9,0.1,1.8,0.3,2.7,0.5c1.9,0.4,4,0.8,6.4,0.9l0.6,0c11,0,19.3-7.8,24.3-12.4c1.2-1.2,2.8-2.4,4.5-3.7
				c1.9-1.5,3.9-3,5.8-4.8c1.8-1.7,2.8-4,2.7-6.5l-0.4-11.2c-0.1-1.5-0.2-5.3-3.4-8.4c-1-1-2.9-2.3-5.8-2.7c-0.3-1-0.8-2.1-1.4-3.1
				c-2.1-3.4-5.6-5.7-9.8-6.3c3-1.3,6.1-2.6,9.1-3.8c2.6-1.1,5.6-2.3,7.7-2.3c0.4,0,0.8,0.1,1.1,0.2c0.9,0.3,2.7,1.9,4.1,3.1
				c1.8,1.5,3.7,3.2,6,4.6c-0.1,1.9-0.1,3.8,0.1,5.7c0.4,4.4,4,7.7,8.4,7.7c7.1,0,12.7-3.6,17.2-6.5c2.9-1.9,5.6-3.6,7.8-3.9
				c0.2,0,0.5,0,0.7,0c1.7,0,3.8,0.6,6.1,1.2c1.6,0.4,3.3,0.9,5.1,1.2c1.6,0.3,3.4,0.5,5,0.5c7.7,0,13.9-3.3,16.9-9.1
				c1.3-2.5,1.7-5,2-6.8c0.1-0.7,0.3-1.5,0.4-1.9c0.6-1.7,4.4-3,8.1-4.3c4.2-1.5,9-3.2,13.1-6.5c6.5-5.3,9.7-14,8.3-22.3
				c1.7-1,3.5-2,5.7-3.1c0.6-0.3,1.2-0.7,1.7-1.1c12,16.9,20.7,35,26.7,55.4c0,0.2,0.1,0.3,0.2,0.5c0.9,2.4,1.5,4.4,2,6.3
				c0.7,2.8,1.3,5.8,1.9,9.2c3.4,16.2,5.2,33.1,5.6,51.9c0.7,34.7-1.8,85.4-31.1,124.4C720.2,633.8,719.9,634.2,719.6,634.6z
				 M344.3,564.7c-1.3-0.4-2.1-0.9-2.5-1.6c-0.2-0.4-0.5-1.1-0.8-1.9c-0.6-1.7-1.4-3.7-2.8-5.8c-0.1-0.1-0.1-0.2-0.2-0.3
				c0.3,0,0.5,0,0.8,0c0.7,0,1.3,0,2-0.1C341.2,558.6,342.4,561.9,344.3,564.7z M318.1,546.8c-1.2-0.1-2.4-0.2-3.6-0.3
				c-10.6-1.3-19.7-12.2-19.1-22.8l0.1-0.9c0.3-4.5,0.8-12.8-6.3-17.4c-2.2-1.5-4.7-2.2-7.2-2.2c-0.5,0-1.1,0-1.6,0.1
				c-1.2-15.6,2.2-32.5,5.4-46c3-12.5,8.3-23.7,13.9-35.6c2.6-5.5,5.3-11.2,7.7-17c0.8,0.6,1.7,1,2.6,1.2c4.3,1.2,8.5,1.8,12.4,1.8
				c6.5,0,12.3-1.7,17.4-4.9c1.8-1.2,3.4-2.5,4.8-3.6c1.4-1.2,2.8-2.3,4-2.9c0.2-0.1,0.5-0.2,0.7-0.3c0.1,0.2,0.1,0.4,0.2,0.5
				c0.2,0.5,0.4,1.1,0.6,1.6c1.6,4.2,4.2,7.9,7.5,10.9c-5,1.6-10.7,3.4-15.1,7.7c-4.5,4.5-6.5,10.6-5.7,17.3c1,8,5.8,15.6,12.7,19.8
				c0.5,0.3,0.9,0.5,1.4,0.8c0.5,0.3,1.1,0.6,1.5,0.9c0.1,0.5,0.3,1.3,0.3,1.8c0.7,4.2,1.4,8.4,2.1,12.7l0.7,4.1
				c0.7,4.1,4.2,7,8.3,7c0.1,0,0.1,0,0.2,0c4.2-0.1,7.7-3.2,8.2-7.4l3.6-28.7c0.2,0.8,0.4,1.7,0.6,2.6c0.9,4,2,9.1,5.6,13.4
				c4,4.9,9.6,7,14.1,8.7c3,1.1,6.1,2.3,6.9,3.7c0.2,0.4,0.2,1-0.1,1.7c-0.4,1.3-1.6,2.6-2.7,3.1c-1,0.4-2.1,0.7-3.4,0.7
				c-2.6,0-5.5-0.9-8.3-2.6c-1.3-0.8-2.8-1.2-4.3-1.2c-1.4,0-2.8,0.4-4.1,1.1c-3.6,2-5.9,5.7-6.1,10c-0.2,3.1,0.8,6.3,2.5,9
				c-0.4,0-0.8-0.1-1.3-0.1c-0.6,0-1.2,0-1.8,0.1c-10.9,1.5-11.5,13.5-11.7,18l0,0.9c-0.3,5.1-6,9.9-11.9,9.9
				c-1.3,0-2.5-0.2-3.5-0.7c-1.2-0.6-2.5-1.4-3.9-2.4c-2.9-1.9-6.2-4.1-10.4-5.1c-1.2-0.3-2.5-0.5-3.8-0.5c-5.5,0-10.8,2.6-13.8,6.8
				c-2.5,3.5-3.2,7.7-1.9,11.7c1.6,5.1,4.4,9.6,7.9,13.2C319.5,546.9,318.8,546.9,318.1,546.8z M435.6,407.3
				c0.3-2.7,0.8-6.3,0.2-10.2c-0.7-5-3.1-9.1-5-12.5c-5.7-9.9-11.3-19.6-16.9-29.3c-0.7-1.3-2-3.5-4.4-5.2c-2-1.4-4.5-2.2-7.1-2.2
				c-3.6,0-6.5,1.5-8.9,2.7c-0.7,0.3-1.6,0.8-2.1,1c-0.6-0.1-2-0.8-2.9-1.2l-0.7-0.3c-9.9-4.6-21.2-7-32.6-7c-1.3,0-2.5,0-3.8,0.1
				c8.9-8,19.6-14.5,30-20.8c2.7-1.7,5.4-3.3,8.1-5c18.7-11.7,38-20.7,62.5-29.3c16.5-5.7,37.1-12.9,56.1-12.9
				c3.1,0,6.2,0.2,9.1,0.6c3,0.4,7.1,4,7.4,6c0.1,0.9,0.4,1.7,0.8,2.5c4.2,8.1,5.2,14.3,3.1,19.3c-1.6,3.9-5.4,7.5-9.5,11.2
				c-5,4.6-10.6,9.7-13.6,17.1c-1.2,2.8-1.8,5.7-2.4,8.2c-0.5,2.2-1,4.2-1.7,5.8c-1.3,2.9-4.1,5.6-7.1,8.4
				c-3.2,3.1-6.8,6.6-9.5,11.1c-4.5,7.7-5,16.3-5.4,23.8c-0.1,1.7-0.2,3.4-0.3,5c-0.7,7.7-3.2,13.3-6.8,14.9c-1.7,0.8-4.2,1-6.9,1.2
				c-3.5,0.3-7.4,0.6-11.4,2.2c-7.9,3.1-12.5,9.5-16.6,15.1c-0.9,1.2-1.7,2.4-2.6,3.5c-0.9,1.2-1.9,2.2-2.8,3L435.6,407.3z"/>
		</g>
	</g>
	<ellipse class="st11" cx="524.8" cy="520.7" rx="298.7" ry="275.7"/>
	<ellipse class="st12" cx="524.8" cy="518.5" rx="299.8" ry="274.6"/>
</g>
<path id="XMLID_711_" class="st2" d="M476,352.7c16.1-8,33.8-12.1,51.6-14.3c9-1.1,18.1-1.7,27.2-2c0.7-5.5,2.2-10.8,4.8-15.6
	c4-7.2,10.8-13.1,18.9-14.8c4.9-1,9.9-0.4,14.9,0.2c2.2,0.3,4.5,0.5,6.4,1.5c1.7,0.9,3.2,2.2,4.4,3.7c2.7-17,7-33.7,15.8-48.4
	c3.2-5.4,7.1-10.5,12.6-13.5c6.5-3.6,14.4-3.6,21.6-1.8c14.9,3.7,27.4,14.9,34.1,28.7c3.6,7.5,5.6,15.6,6.3,23.9
	c2.3-0.9,4.8-1.7,7.3-2.2c17.5-3.6,36.4,3.4,48.4,16.6c3.6,3.9,6.7,8.5,8.1,13.6c0.5,1.7,0.7,3.6,0.7,5.4c11.5,0.1,22.7,3.1,32,9.8
	c6.9,5,12.7,12.2,13.7,20.7c0.1,0.4,0.1,0.9,0.1,1.3H456.5C462.5,360.4,469.1,356.2,476,352.7z"/>
<rect id="XMLID_779_" x="-545.1" y="-8.4" class="st13" width="1445.6" height="941.2"/>
</svg>
