<svg xmlns="http://www.w3.org/2000/svg" xmlns:xlink="http://www.w3.org/1999/xlink" id="Capa_1" x="0px" y="0px" viewBox="0 0 1843.4 1682.4" style="enable-background:new 0 0 1843.4 1682.4;" xml:space="preserve"><style type="text/css">	.st0{fill:#316DB4;}	.st1{fill:#AECA5B;}	.st2{fill:#89B75B;}	.st3{fill:#86BDDE;}	.st4{fill:#77B4DA;}	.st5{fill:#A0CDEB;}	.st6{fill:#425088;}	.st7{fill:#BEC4D0;}	.st8{fill:#EEEFF3;}	.st9{fill:#E3E4EB;}	.st10{fill:#FFFFFF;}	.st11{fill:#F5F6F7;}	.st12{fill:#B3BBC9;}	.st13{fill:#DFE4ED;}	.st14{fill:#546094;}	.st15{fill:#CBCFDD;}	.st16{fill:#F7B89F;}	.st17{fill:#D55455;}	.st18{fill:#F1AA91;}	.st19{fill:#E15D5D;}	.st20{fill:#98644F;}	.st21{fill:#A67069;}	.st22{fill:#F59F47;}	.st23{fill:#FABA5D;}	.st24{fill:#F8AE51;}	.st25{fill:#6CB1D9;}	.st26{fill:#F8EFF2;}	.st27{fill:#C8B5BB;}	.st28{fill:#AA7E7E;}	.st29{fill:#4A485E;}	.st30{fill:#FBF5F7;}	.st31{fill:#B5C1E9;}	.st32{fill:#EDC489;}	.st33{fill:#ACBFE2;}</style><path class="st0" d="M218.2,1340.5c-25-2.6-181,27.8-146.6,70.5c29.4,36.4,96,37.4,138.6,39.4c79,3.7,158.9-6.8,237.4,0.3 c34.4,3.1,89.5,13.7,92.7,57.6c1.1,15.3-6.2,31-18.8,39.8c-33,23.4-19.2,52.5,16.1,68.1c45.9,20.3,97.3,25.3,147.8,27.7 c142.6,6.8,286.1-5.1,425.4-35.3c30.4-6.6,62.6-15.2,83.1-37.7c11.1-12.2,17.8-27.5,28.8-39.8c22.3-24.7,58.1-32.9,91.8-37.9 c66.7-9.9,134.2-12.9,200.9-21.9c53.5-7.2,135.6-16,179.1-50.2c71.9-56.6-101.9-129.9-140.7-137.2c-61.2-11.6-124.6-9.8-185.2-23.8"></path><path class="st0" d="M706.6,1430.8c-95.1,2-190.8,11.2-285-8.8s-189.2-73.3-248.5-173S100.6,997.1,160,901 c53-85.7,147.1-107.6,231.7-95.7c84.6,11.9,166.3,51.4,250.8,65.1c125,20.3,258.3-21.3,347.5-135c57.4-73,93.3-169.9,140.3-254.9 c38.3-69.3,85.1-131.9,142.5-172.6s126.2-58.1,190.2-36.4c78.8,26.6,143,110.1,177.1,207.8c34.1,97.6,59.5,241.3,52.4,347.2 c-9.8,145.3-49.5,310.4-123.3,417.5s-165.5,167.8-296.5,163.6L706.6,1430.8z"></path><path class="st1" d="M1553.5,408c27.1-29.5,80.1-39.6,110.9-67.8c24.4,47.1,16.5,112.6-4.7,153.5c-26.4,51-66.8,68.4-103.1,67.7 c-32.4-0.6-44.8-55.1-40.5-78.1C1521.5,455,1534,429.2,1553.5,408z"></path><path class="st1" d="M1694.7,701.8c-30.6,2.9-47.7-12.2-70.8-27.3c-29.3-19.2-66.4-25.3-100.6-18.1c-17.9,3.8-34.2,13.4-47.3,26.2 c-6.6,6.5-12.4,13.8-17.2,21.7c-5.7,9.4-10.6,13.7-1.4,19.2c16.6,9.9,38,16,55.6,24.9c18.5,9.3,37.7,18.3,58.4,21.2 c23.9,3.3,48.7-2.2,69.3-14.7C1661.6,742.2,1683.6,723.5,1694.7,701.8z"></path><path class="st1" d="M1287.7,613.6c13.5,27.6,35.3,34.3,60.2,46.1c31.6,15,56.3,43.4,68,76.3c6.1,17.3,6.4,36.2,2.3,54 c-3.2,14.1-7.5,27.8-15.7,40c-35.7-23.7-80.5-42.2-108.2-76c-15.3-18.7-23.5-42.7-23.7-66.8C1270.4,663,1275,634.5,1287.7,613.6z"></path><path class="st1" d="M1504.2,568.1c-8.8-25-25.3-48.6-42.8-68c-19.7-22-41-39.2-48.5-64.7c-20.5,38.6-41.8,81.7-32.4,123.5 c5.7,25.2,22,46,39.8,63.9c17.8,17.9,37.6,33.9,53.1,53.9C1498.7,643.8,1518,607,1504.2,568.1z"></path><path class="st1" d="M1467.8,816.5c26.4-2.2,54.7,3.2,79.6,11.2c28.1,9,52.5,21.3,78.9,17.7c-26.8,34.5-57.4,71.6-99.3,80.1 c-25.3,5.1-51-1.2-74.6-10c-23.6-8.9-46.3-20.4-70.9-26.3C1401.1,852.6,1426.7,819.9,1467.8,816.5z"></path><path class="st2" d="M1650.7,383.4c-20,55-50.1,105.7-82.1,154.3c-31.9,48.8-65.8,96.3-94.1,146.8c-28,50.7-51,104.1-69,159.1 c-18.1,55-31.7,111.5-39.4,168.8c-0.4,3.3-3.5,5.6-6.8,5.2c-3.3-0.4-5.6-3.5-5.2-6.7c7.3-58.3,21.1-115.6,39.8-171.1 c18.9-55.5,42.5-109.4,72-160.1c29.7-50.7,64.5-97.5,97.3-145.5c32.7-48,64-97.3,85.6-151.5c0.2-0.5,0.8-0.8,1.4-0.6 C1650.6,382.3,1650.9,382.9,1650.7,383.4z"></path><path class="st2" d="M1472,668.3c5.8-15.2,6.2-32.3,2.9-48.6c-3.4-16.3-9.3-32.4-17.5-47.1c-8.2-14.8-18.4-28.6-27.2-43.5 c-8.7-14.8-15.9-31.2-16.7-48.7c0-0.6,0.4-1,1-1.1c0.6,0,1,0.4,1.1,1c1.3,17,8.7,32.7,17.7,47c9.1,14.4,19.6,27.9,28.5,42.8 c4.4,7.4,8.4,15.3,11.6,23.4c3.2,8.1,6.1,16.3,8,24.9c1.9,8.6,3.1,17.4,2.9,26.3c-0.2,8.9-1.7,17.9-4.6,26.4c-0.7,2.1-3,3.2-5.1,2.5 s-3.2-3-2.5-5.1L1472,668.3z"></path><path class="st2" d="M1453.3,712.3c15.8-7.7,32.7-11.7,49.7-13.5c17-1.9,34.1-1.7,51,0.2c8.4,1,16.8,2.5,25.1,4.5 c8.3,2.1,16.3,4.7,24.3,7.1c15.9,4.7,32.5,9.3,48.8,6.3l0,0c0.7-0.1,1.4,0.3,1.5,1c0.1,0.7-0.3,1.3-1,1.5c-17.1,3.6-34.3-0.8-50.4-5 c-8.1-2.2-16.2-4.6-24.3-6.4c-8.1-1.7-16.3-3-24.6-3.7c-16.6-1.4-33.3-1.2-49.7,1.1c-16.3,2.2-32.5,6.6-46.8,14.1l-0.1,0 c-2,1-4.4,0.3-5.5-1.7C1450.4,715.8,1451.2,713.3,1453.3,712.3L1453.3,712.3z"></path><path class="st2" d="M1402.5,821.5c0-8.6-0.9-17.3-3-25.8c-2.3-8.4-5.1-16.7-9.1-24.6c-3.9-7.9-8.4-15.5-13.7-22.6 c-5.1-7.2-10.9-14.1-17-20.5c-6.1-6.5-12.7-12.5-19.5-18.3c-6.7-5.9-14.3-10.7-21.2-16.8c-6.9-6-13.2-12.8-18-20.6 c-4.9-7.8-8-16.7-9-25.8c-0.1-0.6,0.3-1.1,0.9-1.2c0.6-0.1,1.1,0.3,1.2,0.9c1.2,8.8,4.4,17.2,9.3,24.6c4.8,7.4,11.1,13.8,17.9,19.4 c6.8,5.6,14.6,10.3,21.7,16.1c7.1,5.7,14,11.6,20.4,18.1c6.5,6.4,12.5,13.3,18.1,20.6c5.6,7.2,10.5,15,14.9,23.1 c4.4,8.1,7.7,16.8,10.4,25.7c2.5,9,3.7,18.3,4,27.7c0.1,2.2-1.7,4.1-3.9,4.2c-2.2,0.1-4.1-1.7-4.2-3.9v-0.1L1402.5,821.5z"></path><path class="st2" d="M1383.9,882.3c16.8-9.6,34.8-16.2,53.4-20.5c9.3-2.2,18.8-3.6,28.3-4.3c9.6-0.8,19.2-0.1,28.5,0.4 c9.4,0.5,18.9,1.1,28.3,2.6c9.3,1.5,18.5,3.5,27.7,4.7c9.2,1.3,18.5,1.8,27.6,0.3c9.1-1.4,17.6-5.2,24.9-10.8 c0.5-0.4,1.3-0.3,1.7,0.2c0.4,0.5,0.3,1.2-0.2,1.7c-7.4,6-16.4,10.3-25.9,12c-9.5,1.8-19.1,1.5-28.5,0.4c-9.4-1-18.7-2.7-27.9-4 c-9.2-1.3-18.5-1.6-27.8-1.8c-9.4-0.2-18.7-0.6-27.8,0.3c-9.2,0.9-18.3,2.5-27.2,4.8c-17.8,4.6-35.2,11.5-50.8,21l-0.1,0 c-1.9,1.2-4.4,0.5-5.6-1.4S1381.9,883.5,1383.9,882.3L1383.9,882.3z"></path><path class="st2" d="M1614,456.9c-0.9-8-1.4-16.1-1.4-24.1c0-12.7,1.1-25.4,3.4-37.8c0.1-0.5-0.3-1.1-0.8-1.2 c-0.6-0.1-1.1,0.3-1.2,0.8c-2.3,12.6-3.4,25.4-3.4,38.2c0,8.1,0.5,16.3,1.4,24.4c0.1,0.6,0.6,1,1.1,0.9 C1613.7,457.9,1614.1,457.4,1614,456.9L1614,456.9z"></path><path class="st2" d="M1598.6,487.9c18.9-5.5,37.3-12.4,55.2-20.6c0.5-0.2,0.7-0.8,0.5-1.3s-0.8-0.7-1.3-0.5 c-17.8,8.1-36.2,15-54.9,20.5c-0.5,0.2-0.8,0.7-0.7,1.3C1597.5,487.8,1598.1,488.1,1598.6,487.9L1598.6,487.9z"></path><path class="st2" d="M1568.7,532.9c-7.6-25.7-15.5-53.5-17.8-80.1c-0.1-0.6-0.5-1-1.1-0.9c-0.6,0-1,0.5-0.9,1.1 c2.4,26.8,10.2,54.8,17.9,80.5c0.2,0.5,0.7,0.8,1.3,0.7C1568.6,534,1568.9,533.4,1568.7,532.9L1568.7,532.9z"></path><path class="st2" d="M1567.8,534.2c20.5-1.6,43.6-7.7,63-14.3c0.5-0.2,0.8-0.8,0.6-1.3c-0.2-0.5-0.8-0.8-1.3-0.6 c-19.3,6.6-42.2,12.6-62.5,14.2c-0.6,0-1,0.5-0.9,1.1C1566.8,533.8,1567.3,534.2,1567.8,534.2L1567.8,534.2z"></path><path class="st2" d="M1440.1,539.6c-14.9-7-31.9-16.4-44.1-27.2l-1.4,0.1l0.1,1.4c12.5,11.1,29.6,20.5,44.6,27.5 c0.5,0.2,1.1,0,1.3-0.5C1440.8,540.5,1440.6,539.9,1440.1,539.6L1440.1,539.6z"></path><path class="st2" d="M1456.8,565c-22.3-7.9-48.6-19.1-69.8-29.7c-0.5-0.2-1.1,0-1.4,0.5s-0.1,1.1,0.4,1.4 c21.2,10.6,47.6,21.8,70,29.8c0.5,0.2,1.1-0.1,1.3-0.6C1457.6,565.8,1457.3,565.2,1456.8,565L1456.8,565z"></path><path class="st2" d="M1472.4,597.2c8-14.3,11.5-36.1,12.7-52.3c0-0.6-0.4-1-0.9-1.1c-0.6,0-1,0.4-1.1,0.9 c-1.2,16-4.7,37.7-12.4,51.5c-0.3,0.5-0.1,1.1,0.4,1.4C1471.5,597.8,1472.1,597.7,1472.4,597.2L1472.4,597.2z"></path><path class="st2" d="M1517.8,699.8c9.9-13.3,30.4-28.1,42.4-34.8c0.5-0.3,0.7-0.9,0.4-1.4s-0.9-0.7-1.4-0.4 c-12.2,6.8-32.7,21.6-43,35.4l0.2,1.4L1517.8,699.8L1517.8,699.8z"></path><path class="st2" d="M1539.7,699.1c16-14.7,30.9-24.2,51-32.4c0.5-0.2,0.8-0.8,0.6-1.3s-0.8-0.8-1.3-0.5 c-20.2,8.3-35.5,18-51.6,32.8l-0.1,1.4L1539.7,699.1L1539.7,699.1z"></path><path class="st2" d="M1574.3,706.4c12.1,15.3,29.8,31.7,45.5,41.7c0.5,0.3,1.1,0.2,1.4-0.3s0.2-1.1-0.3-1.4 c-15.5-9.8-33.1-26.1-45-41.2l-1.4-0.2L1574.3,706.4L1574.3,706.4z"></path><path class="st2" d="M1450.8,861.1c14.5-15,33.1-26.2,53.2-31.8c0.5-0.2,0.8-0.7,0.7-1.2s-0.7-0.8-1.2-0.7 c-20.5,5.8-39.3,17.1-54.1,32.4l0,1.4L1450.8,861.1L1450.8,861.1z"></path><path class="st2" d="M1483.8,862.8c20.7,18.6,45,33.1,71.2,42.4c0.5,0.2,1.1-0.1,1.3-0.6c0.2-0.5-0.1-1.1-0.6-1.3 c-25.9-9.3-50-23.7-70.5-42l-1.4,0.1L1483.8,862.8L1483.8,862.8z"></path><path class="st2" d="M1505.4,862.3c18.5,13.2,42,23.6,65.5,29.6c0.5,0.1,1.1-0.2,1.2-0.7s-0.2-1.1-0.7-1.2 c-23.2-6-46.6-16.2-64.8-29.3c-0.4-0.3-1.1-0.2-1.4,0.2C1504.8,861.3,1504.9,862,1505.4,862.3L1505.4,862.3z"></path><path class="st2" d="M1392.2,773c-26.5-2.5-53.5-4.2-77.4-16.5c-0.5-0.3-1.1-0.1-1.4,0.4c-0.3,0.5-0.1,1.1,0.4,1.4 c24.4,12.6,51.7,14.3,78.2,16.8c0.6,0,1.1-0.4,1.1-0.9C1393.2,773.5,1392.7,773.1,1392.2,773L1392.2,773z"></path><path class="st2" d="M1385.3,752.2c3.6-10.3,5.4-22.4,5.4-34c0-6-0.5-11.9-1.5-17.5c-0.1-0.5-0.6-0.9-1.2-0.8s-0.9,0.6-0.8,1.2 c1,5.4,1.5,11.2,1.5,17.1c0,11.5-1.8,23.3-5.3,33.4c-0.2,0.5,0.1,1.1,0.6,1.3C1384.5,753,1385.1,752.7,1385.3,752.2L1385.3,752.2z"></path><path class="st2" d="M1353.6,719.9c-1.6,0.1-3.2,0.1-4.9,0.1c-20,0-39.8-5.4-59.3-10.9c-0.5-0.2-1.1,0.2-1.2,0.7 c-0.2,0.5,0.2,1.1,0.7,1.2c19.5,5.4,39.5,10.9,59.8,10.9c1.7,0,3.3,0,5-0.1c0.6,0,1-0.5,1-1.1 C1354.6,720.3,1354.1,719.9,1353.6,719.9L1353.6,719.9z"></path><path class="st2" d="M1340.5,708c-19.9-2.8-39.3-8.8-57.3-17.8c-0.5-0.2-1.1,0-1.4,0.5s-0.1,1.1,0.4,1.4 c18.2,9.1,37.8,15.2,57.9,17.9c0.6,0.1,1.1-0.3,1.1-0.9C1341.4,708.6,1341.1,708.1,1340.5,708L1340.5,708z"></path><path class="st1" d="M584.1,147.1c-19.8-34.8-69.2-56.4-93-90.8c-34.3,40.5-41.2,106.1-29.6,150.6c14.4,55.6,49.9,81.5,85.4,89 c31.8,6.6,55.9-43.8,56.8-67.1C604.8,200.1,598.3,172.1,584.1,147.1z"></path><path class="st1" d="M381,402c29.2,9.6,49.2-1.3,75.1-10.8c32.9-12.1,70.4-9.9,102.1,4.7c16.6,7.7,30.4,20.7,40.2,36 c5,7.8,9,16.2,12,25c3.5,10.4,7.2,15.7-3,19c-18.4,5.9-40.6,7.1-59.7,11.9c-20.2,5-40.8,9.4-61.7,7.6c-24-2.1-47-13-64.3-29.7 C404.2,448.8,387,425.7,381,402z"></path><path class="st1" d="M797.4,406.8c-19.3,23.9-42.1,25.6-69,31.6c-34.2,7.6-64.5,29.8-83.2,59.2c-9.8,15.5-14.3,33.9-14.3,52.1 c0,14.5,1.1,28.8,6.4,42.5c40.1-15.1,87.9-23.2,122.4-49.9c19.1-14.8,32.5-36.4,38-59.8C803.2,458.7,805.2,429.9,797.4,406.8z"></path><path class="st1" d="M596.5,314.1c14.2-22.4,35.5-41.7,56.9-56.8c24.1-17,48.7-29.1,61.7-52.2c11.4,42.2,22.5,89,4,127.6 c-11.2,23.3-31.7,40-53,53.5c-21.3,13.5-44.2,24.6-63.7,40.7C585,389.1,574.4,349,596.5,314.1z"></path><path class="st1" d="M576.6,564.4c-25.3-8-54-9.1-80.1-6.8c-29.4,2.5-56,9-80.9-0.3c18.4,39.6,40,82.6,79,100.3 c23.5,10.6,50,10.2,75,6.8c25-3.4,49.7-9.6,75-9.8C633.7,614.5,615.9,576.9,576.6,564.4z"></path><path class="st2" d="M496.9,101.2c8.9,57.6,28.5,112.6,49.7,166.7c21.2,54.1,44.8,107.6,62.4,163.5c17.5,56,28.5,113.8,34.6,172.1 c5.9,58.3,6.5,117.2,0.7,175.7c-0.3,3.3-3.3,5.7-6.6,5.4c-3.3-0.3-5.7-3.3-5.4-6.6c5.2-57.6,4.6-115.7-0.8-173.3 c-5.3-57.6-15.9-114.8-31.9-170.5c-16.3-55.6-38.8-109.4-59-164.1c-20.4-54.6-38.4-110.7-45.7-168.7c-0.1-0.6,0.3-1.1,0.9-1.2 C496.3,100.2,496.8,100.6,496.9,101.2z"></path><path class="st2" d="M597.5,420c-0.9-9-0.4-18,1.4-26.8c1.8-8.7,4.9-17.1,8.7-25c3.8-7.9,8.4-15.4,13.3-22.5 c4.9-7.1,10.5-14,16.5-20.2c12-12.5,25.3-23.4,37.4-35.4c12-11.9,22.7-25.6,27.7-41.9c0.2-0.6,0.7-0.9,1.3-0.7 c0.5,0.2,0.8,0.7,0.7,1.3c-4.7,16.9-15.3,31.3-27.1,43.8c-11.8,12.5-24.9,23.8-36.2,36.3c-11.3,12.5-20.6,26.8-27.6,42 c-6.8,15.2-10.2,31.9-8,48c0.3,2.2-1.2,4.3-3.5,4.6c-2.2,0.3-4.3-1.2-4.6-3.5L597.5,420z"></path><path class="st2" d="M608.8,472.2c-12.3-10.5-27-18.3-42.5-24.1c-15.5-5.9-31.7-9.8-48.2-12.1c-8.2-1.1-16.5-1.8-24.8-1.9 c-8.3-0.1-16.7,0.5-25.1,0.8c-16.7,0.5-34.4,1-50.3-6.3c-0.6-0.3-0.9-1.1-0.6-1.7c0.3-0.6,1-0.9,1.7-0.6l0,0 c15.2,6.5,32.4,5.8,49,4.7c8.4-0.5,16.8-1.3,25.3-1.5c8.5-0.1,17,0.3,25.5,1.2c16.9,1.9,33.6,5.5,49.8,11.1 c16.1,5.6,31.8,13.3,45.4,24.3c1.7,1.4,2,4,0.6,5.7c-1.4,1.7-4,2-5.7,0.6L608.8,472.2L608.8,472.2z"></path><path class="st2" d="M631.3,582.1c2.4-9.1,5.6-17.9,10.1-26.1c4.6-8.1,9.7-15.8,15.8-22.8c6.1-6.9,12.6-13.5,19.7-19.2 c7-5.9,14.5-11.2,22.2-16c7.7-4.9,15.7-9.2,23.9-13.1c8.1-4.1,16.8-7,24.7-10.9c8-3.9,15.5-8.8,21.8-14.9 c6.4-6.1,11.4-13.6,14.5-21.9c0.2-0.5,0.8-0.8,1.3-0.6c0.5,0.2,0.8,0.8,0.6,1.3c-3,8.7-8,16.7-14.5,23.2 c-6.5,6.6-14.1,11.8-22.2,16.1c-8.1,4.4-16.6,7.4-24.4,11.6c-7.9,4.1-15.7,8.5-23.1,13.5c-7.4,4.9-14.5,10.3-21.2,16.2 c-6.7,5.8-12.8,12.2-18.4,19c-5.7,6.8-10.3,14.2-14.4,21.9c-3.9,7.8-6.7,16-8.7,24.5l0,0.2c-0.5,2.2-2.7,3.5-4.9,3 c-2.2-0.5-3.5-2.7-3-4.9L631.3,582.1z"></path><path class="st2" d="M638.1,653c-13.1-12.7-28.5-23.3-44.9-31.8c-8.2-4.2-16.7-7.9-25.4-10.8c-8.7-3-17.8-4.6-27-6.5 c-9.2-1.9-18.3-3.6-27.5-4.4c-9.3-0.8-18.7-1.2-28.1-2.4c-9.4-1.1-18.9-2.9-27.7-6.8c-8.9-3.8-16.7-9.9-22.6-17.5 c-0.4-0.5-0.3-1.3,0.2-1.7c0.5-0.4,1.2-0.3,1.7,0.2c5.9,7.1,13.4,12.7,21.9,16.1c8.5,3.4,17.7,5,26.9,5.8c9.2,0.9,18.6,1,28.1,1.6 c9.5,0.6,18.9,2.1,28.2,3.8c9.2,1.7,18.7,3.1,27.8,6c9.2,2.8,18,6.3,26.6,10.5c17.1,8.4,33.3,18.8,47.5,31.9 c1.6,1.5,1.8,4.1,0.2,5.7c-1.5,1.7-4.1,1.8-5.7,0.2L638.1,653L638.1,653z"></path><path class="st2" d="M516.1,181.9c6.9-19.8,11-40.5,12-61.4c0-0.6-0.4-1-1-1.1c-0.6,0-1,0.4-1.1,1c-1,20.7-5,41.3-11.9,60.9 c-0.2,0.5,0.1,1.1,0.6,1.3C515.3,182.7,515.9,182.4,516.1,181.9L516.1,181.9z"></path><path class="st2" d="M523.3,213.2c-17.1-9.5-33.5-20.3-49-32.2l-1.4,0.2l0.2,1.4c15.6,12,32.1,22.8,49.2,32.4 c0.5,0.3,1.1,0.1,1.4-0.4C523.9,214.1,523.8,213.4,523.3,213.2L523.3,213.2z"></path><path class="st2" d="M543.2,266.4c13.2-23.4,27.1-48.9,35.3-74.5c0.2-0.5-0.1-1.1-0.7-1.3s-1.1,0.1-1.3,0.6 c-8.2,25.4-22,50.8-35.2,74.1c-0.3,0.5-0.1,1.1,0.4,1.4C542.3,267.1,542.9,266.9,543.2,266.4L543.2,266.4z"></path><path class="st2" d="M542.6,264.9c-19.4-6.1-40.4-17-57.7-27.7c-0.5-0.3-1.1-0.1-1.4,0.3s-0.1,1.1,0.3,1.4 c17.4,10.8,38.6,21.8,58.2,27.9c0.5,0.2,1.1-0.1,1.3-0.7C543.4,265.7,543.2,265.1,542.6,264.9L542.6,264.9z"></path><path class="st2" d="M665.8,302.6c16.2-3.5,35-8.9,49.6-16.9c0.5-0.3,0.7-0.9,0.4-1.4c-0.3-0.5-0.9-0.7-1.4-0.4 c-14.3,7.8-33,13.2-49.1,16.7c-0.5,0.1-0.9,0.7-0.8,1.2C664.7,302.4,665.2,302.8,665.8,302.6L665.8,302.6z"></path><path class="st2" d="M643.7,323.7c23.6-2.7,51.8-7.8,74.9-13.4c0.5-0.1,0.9-0.7,0.7-1.2c-0.1-0.5-0.7-0.9-1.2-0.7 c-23,5.6-51.2,10.7-74.6,13.4c-0.6,0.1-1,0.6-0.9,1.1C642.6,323.4,643.1,323.8,643.7,323.7L643.7,323.7z"></path><path class="st2" d="M622.9,349c-2.1-7.2-2.9-16-2.9-24.9c0-9.8,1-19.8,2.3-28.1c0.1-0.5-0.3-1.1-0.8-1.2c-0.5-0.1-1.1,0.3-1.2,0.9 c-1.3,8.4-2.3,18.5-2.3,28.4c0,9,0.8,17.9,3,25.4c0.2,0.5,0.7,0.8,1.3,0.7C622.8,350.1,623.1,349.5,622.9,349L622.9,349z"></path><path class="st2" d="M555.8,438.6c-7-15.7-23.7-34.7-34-44.1l-1.4,0.1l0.1,1.4c10.1,9.2,26.8,28.2,33.5,43.4 c0.2,0.5,0.8,0.7,1.3,0.5C555.8,439.8,556,439.1,555.8,438.6L555.8,438.6z"></path><path class="st2" d="M534.3,432.7c-12.4-18-25.1-30.9-43-43.5c-0.5-0.3-1.1-0.2-1.4,0.2c-0.3,0.5-0.2,1.1,0.2,1.4 c17.7,12.5,30.2,25.1,42.5,43c0.3,0.5,1,0.6,1.4,0.3C534.5,433.8,534.7,433.2,534.3,432.7L534.3,432.7z"></path><path class="st2" d="M496.1,431.8c-15,12.1-35.8,24-53.1,30.2c-0.5,0.2-0.8,0.8-0.6,1.3c0.2,0.5,0.8,0.8,1.3,0.6 c17.6-6.2,38.5-18.2,53.7-30.5l0.1-1.4L496.1,431.8L496.1,431.8z"></path><path class="st2" d="M585,610.6c-11-18.2-26.9-33.4-45.6-43.6c-0.5-0.3-1.1-0.1-1.4,0.4c-0.3,0.5-0.1,1.1,0.4,1.4 c18.3,10,34,25,44.8,42.9c0.3,0.5,0.9,0.6,1.4,0.3C585.1,611.7,585.2,611,585,610.6L585,610.6z"></path><path class="st2" d="M549.8,604.2c-24.1,13.3-50.8,22-78.1,25.3c-0.6,0.1-1,0.6-0.9,1.1c0.1,0.5,0.6,1,1.1,0.9 c27.6-3.3,54.5-12,78.8-25.5c0.5-0.3,0.7-0.9,0.4-1.4C550.8,604.2,550.2,604,549.8,604.2L549.8,604.2z"></path><path class="st2" d="M529,598.8c-20.6,8.7-45.7,13.5-69.7,14.1c-0.6,0-1,0.5-1,1s0.5,1,1,1c24.2-0.7,49.5-5.5,70.4-14.3 c0.5-0.2,0.8-0.8,0.5-1.3C530.1,598.8,529.5,598.6,529,598.8L529,598.8z"></path><path class="st2" d="M659.8,540.8c16.3,2.1,32.8,4.7,49.3,4.7c10.2,0,20.4-1,30.6-3.6c0.5-0.1,0.9-0.7,0.7-1.2s-0.7-0.9-1.2-0.7 c-10,2.6-20,3.5-30.1,3.5c-16.3,0-32.8-2.5-49.1-4.7c-0.5-0.1-1.1,0.3-1.1,0.9C658.8,540.3,659.2,540.8,659.8,540.8L659.8,540.8z"></path><path class="st2" d="M673.4,519.8c-0.3-3.1-0.5-6.3-0.5-9.6c0-13.7,2.9-28.5,8-40.5c0.2-0.5,0-1.1-0.5-1.3s-1.1,0-1.3,0.5 c-5.3,12.3-8.2,27.3-8.2,41.3c0,3.3,0.2,6.6,0.5,9.8c0.1,0.6,0.6,1,1.1,0.9C673.1,520.9,673.5,520.4,673.4,519.8L673.4,519.8z"></path><path class="st2" d="M709,497.6c13.2,3.6,26.8,4.7,40.4,4.7c8.4,0,16.8-0.4,25.2-0.8c0.6,0,1-0.5,1-1.1c0-0.6-0.5-1-1.1-1 c-8.3,0.4-16.7,0.8-25.1,0.8c-13.5,0-27-1-39.9-4.6c-0.5-0.1-1.1,0.2-1.2,0.7C708.1,496.9,708.4,497.5,709,497.6L709,497.6z"></path><path class="st2" d="M724.7,489c5.4,0.5,10.8,0.7,16.2,0.7c14.9,0,29.8-1.8,44.3-5.3c0.5-0.1,0.9-0.7,0.8-1.2s-0.7-0.9-1.2-0.8 c-14.3,3.5-29.1,5.2-43.8,5.2c-5.3,0-10.7-0.2-16-0.7c-0.6,0-1,0.4-1.1,0.9C723.8,488.5,724.2,489,724.7,489L724.7,489z"></path><path class="st3" d="M541.1,1425.5c-0.8,2.1-1.4,4.2-1.5,6.6c-0.4,8.9,5.9,16.9,13.7,21.3s16.8,5.6,25.6,6.7 c35.5,4.4,71.2,7.2,107,8.3c8.5,0.3,24.6,0.2,28.7,9.9c3,7.2-2.5,17-4.7,23.7c-8.3,26.2,3.3,44.8,29,52.7 c22.4,6.9,47.8,7.4,70.1-0.4c26.2-9.2,36.4-31.8,53.2-51.4c17.7-20.8,45.2-33.2,72.4-33.1c23.2,0,45.4,8.5,67.9,13.7 c40.7,9.5,83.6,8.4,123.9-2.4c24.6-6.6,102.3-28.1,88.2-65.7c-3.9-10.4-14.4-16.8-24.7-21.2c-40.3-17.2-85.6-16.2-129.4-14.9 c-79.9,2.3-159.8,4.2-239.7,5.8c-40.5,0.8-81.1,1.5-121.6,2.2c-51.5,0.8-90.8-5.8-137.8,19.6 C553.2,1411.2,544.5,1417.3,541.1,1425.5z"></path><path class="st4" d="M650.5,1460.9c-14.4-0.4-33.2-3.1-47.6-3.7c-14.7-0.6-33-0.9-45.4-9.9c-13.3-9.7-12.1-23.8-4.4-35.4 c-5.2,3.7-9.8,8.2-12.1,13.6c-0.9,2.1-1.4,4.2-1.5,6.6c-0.4,8.9,5.9,16.9,13.7,21.3s16.8,5.6,25.6,6.7c35.5,4.4,71.2,7.2,107,8.3 c4.9,0.2,12.3,0.2,18.5,2C690.8,1462.9,668.4,1461.4,650.5,1460.9z"></path><path class="st4" d="M914.1,1466c-27,4.6-47.2,22.2-66.1,40.9c-21,20.7-32,41.5-67.4,44.2c-23.9,1.8-49.5-2.7-68.9-15.8 c5.1,8.8,14.4,15.4,27.1,19.3c22.4,6.9,47.8,7.4,70.1-0.4c26.2-9.2,36.4-31.8,53.2-51.4c17.7-20.8,45.2-33.2,72.4-33.1 c13.7,0,27,3,40.3,6.5C955.4,1468.3,935.8,1462.3,914.1,1466z"></path><path class="st4" d="M1214.5,1415.4c-3.9-10.4-14.4-16.8-24.7-21.2c-34-14.5-71.7-16-108.9-15.4c-0.2,3.8,0,7.6,0.2,11.4 c28.6-1.3,47.6-2,76.1,3.5c13.2,2.6,29.4,6.1,37.3,12.5c8.7,7.1,12.3,19.1,6.1,28c-15.7,22.6-45,30.3-69.2,38 c-26.2,8.3-54.8,14.4-81.8,17.4c25.8,1,51.8-2,76.8-8.7C1150.9,1474.4,1228.6,1452.9,1214.5,1415.4z"></path><path class="st5" d="M1194.2,1408.8c22.2,22.5-45.8,40.2-55.3,42.9c-22.1,6.2-45,8-67.2,13.9c-1.9,0.5-2.1,7.6,0,7.8 c35.9,3.5,79.4-10.7,111.2-27c13.9-7.2,29.3-30.2,11.8-42.6C1193.6,1402.9,1193.4,1407.9,1194.2,1408.8z"></path><path class="st5" d="M861.1,1485.2c24.2-18.9,54-18.2,82.2-26.1c1.1-0.3,1.2-4.2,0-4.4c-26.5-3.7-64.9,5.3-82.9,26.3 C859.8,1481.7,860.1,1485.9,861.1,1485.2z"></path><path class="st5" d="M724.9,1496.6c2.8-10.1,4.2-25.3-3.1-34c-4.2-5-11.2-6.6-17.4-7.7c-8.8-1.6-20.4-3.3-28.9-0.6 c-0.9,0.3-1.1,3.3-0.2,3.6c8.5,3,18.5,1.7,27.4,3.4c4.9,0.9,10.5,2.1,14.6,4.9c8.6,5.9,7.8,19.2,5.9,28.1 C723,1495.7,724.1,1499.4,724.9,1496.6z"></path><path class="st5" d="M548.4,1430c0.9,5.6,3.5,10.5,8.3,13.9c5.4,3.8,15.1,6.9,21.6,5.7c1.4-0.3,1.4-4.3,0.3-4.9 c-5-2.7-11.2-2.5-16.6-4.8c-5.2-2.3-10.2-6.1-11.5-11.9C549.7,1424.7,548.1,1428.4,548.4,1430z"></path><path class="st5" d="M1125,1418.9c2.3-3.1,6.2-7,10.1-3.8c1.7,1.3,3.9,6.9,6.5,4.6c1.4-1.2,1.1-4.2,0.6-5.8 c-1.1-3.4-4.4-8.1-8.1-9.1c-4.8-1.3-8.5,3.7-10.7,7.1c-1,1.5-1,3.8-0.6,5.5C1123.1,1418.5,1124,1420.4,1125,1418.9z"></path><path class="st5" d="M1151.9,1425.8c1.3-2.4,4.2-3.8,6.8-3.5c3.1,0.4,4.2,2.8,6.3,4.8c1.5,1.4,1.6-4.8,1.5-5.3 c0.1,0.7,0,5.7,0.2,2.3c0-0.6,0-1.2-0.1-1.9c-0.2-1.2-0.5-2.5-1.1-3.6c-1.1-1.9-3.1-3.2-5.2-3.6c-4.9-0.8-8.4,3.2-9.5,7.6 C1150.6,1423.2,1151.1,1427.4,1151.9,1425.8z"></path><path class="st5" d="M1011.4,1458.3c1-3.4,5.8-3.9,8.3-2.3c2.8,1.7,2.7,5.1,4.1,7.8c0.9,1.6,1.9-0.3,2.2-1.2 c0.5-1.7,0.7-4.3-0.2-5.9c0.5,1,1,5.1,0.4,1.4c-0.1-0.7-0.4-1.4-0.6-2.1c-0.4-1.3-0.7-2.6-1.1-3.9c-1-2.4-2.8-4.4-5.3-5.2 c-5.2-1.6-9.2,2.8-10.3,7.5c-0.3,1.3-0.5,4.1,0.5,5.2C1010.5,1460.8,1011.1,1459.4,1011.4,1458.3z"></path><path class="st5" d="M766.4,1547.6c21.7,6.5,55.5-8.1,61.5-31.1c0.1-0.6-0.1-5.3-1.3-4.2c-7.5,7.1-12.6,14.7-22.2,19.4 c-11.6,5.8-25.2,9-38,10.1C764.5,1542,764.8,1547.1,766.4,1547.6z"></path><path class="st6" d="M661.5,1429.3h-70.1c-4,0-7.3-3.3-7.3-7.3v-20.9c0-4,3.3-7.3,7.3-7.3h70.1c4,0,7.3,3.3,7.3,7.3v20.9 C668.8,1426.1,665.5,1429.3,661.5,1429.3z"></path><path class="st6" d="M1066.7,1429.3h-70.1c-4,0-7.3-3.3-7.3-7.3v-20.9c0-4,3.3-7.3,7.3-7.3h70.1c4,0,7.3,3.3,7.3,7.3v20.9 C1074.1,1426.1,1070.8,1429.3,1066.7,1429.3z"></path><path class="st7" d="M1092.7,1415.2H565.4c-16.3,0-29.5-13.2-29.5-29.5V466.9c0-16.3,13.2-29.5,29.5-29.5h527.3 c16.3,0,29.5,13.2,29.5,29.5v918.8C1122.1,1402,1108.9,1415.2,1092.7,1415.2z"></path><path class="st8" d="M1078.2,1396.4H588.2c-15.4,0-27.9-12.5-27.9-27.9V484.1c0-15.4,12.5-27.9,27.9-27.9h489.9 c15.4,0,27.9,12.5,27.9,27.9v884.3C1106.1,1383.9,1093.6,1396.4,1078.2,1396.4z"></path><path class="st9" d="M620.3,524.6c0-15.4,12.5-27.9,27.9-27.9h457.8v-12.6c0-15.4-12.5-27.9-27.9-27.9H588.2 c-15.4,0-27.9,12.5-27.9,27.9v884.3c0,15.4,12.5,27.9,27.9,27.9h32.1V524.6z"></path><path class="st10" d="M1106.1,627.9V484.1c0-15.4-12.5-27.9-27.9-27.9H588.2c-15.4,0-27.9,12.5-27.9,27.9v143.7H1106.1z"></path><rect x="560.4" y="814" class="st10" width="545.7" height="19.5"></rect><rect x="560.4" y="1019.1" class="st10" width="545.7" height="19.5"></rect><rect x="560.4" y="1224.2" class="st10" width="545.7" height="19.5"></rect><rect x="560.4" y="814" class="st10" width="545.7" height="19.5"></rect><rect x="560.4" y="1019.1" class="st10" width="545.7" height="19.5"></rect><rect x="560.4" y="1224.2" class="st10" width="545.7" height="19.5"></rect><rect x="560.4" y="814" class="st11" width="62.8" height="19.5"></rect><rect x="560.4" y="1019.1" class="st11" width="62.8" height="19.5"></rect><rect x="560.4" y="1224.2" class="st11" width="62.8" height="19.5"></rect><path class="st11" d="M620.3,526c0-15.4,12.5-27.9,27.9-27.9h457.8v-14c0-15.4-12.5-27.9-27.9-27.9H588.2 c-15.4,0-27.9,12.5-27.9,27.9v143.7h60V526z"></path><path class="st7" d="M1099.8,1415.1l-349.8,41.1c-14.6,1.7-26.5-8.8-26.5-23.4V419.8c0-14.6,11.9-25.1,26.5-23.4l349.8,41.1 c12.3,1.5,22.3,13.4,22.3,26.8v924.1C1122.1,1401.7,1113.1,1413.5,1099.8,1415.1z"></path><path class="st12" d="M1099.8,437.5l-2.8-0.3v913.1c0,13.3-9.1,25.2-22.3,26.8L725,1418.1c-0.5,0.1-0.9,0.1-1.4,0.1v14.7 c0,14.6,11.9,25.1,26.5,23.4l349.8-41.1c13.2-1.6,22.3-13.4,22.3-26.8V464.3C1122.1,450.9,1112.2,438.9,1099.8,437.5z"></path><path class="st13" d="M797.4,1119.6L797.4,1119.6c-8,0-14.6-6.6-14.6-14.6V711.5c0-8,6.6-14.6,14.6-14.6s14.6,6.6,14.6,14.6v393.6 C811.9,1113.1,805.4,1119.6,797.4,1119.6z"></path><path class="st6" d="M1053.6,1070.5l-169.9,19.6c-10.7,1.2-19.6-6.7-19.6-17.7V949.4c0-11,8.9-19.7,19.6-19.5l169.9,3.8 c7.7,0.2,13.9,7.7,13.9,16.8v101.9C1067.5,1061.5,1061.3,1069.6,1053.6,1070.5z"></path><path class="st14" d="M1022.4,1043.3l-119.8,11.6c-7.3,0.7-13.3-5.7-13.3-14.2V930l143.3,3.5v95.4 C1032.5,1036.3,1028,1042.7,1022.4,1043.3z"></path><path class="st14" d="M927.7,894.9c0,4.7-3.6,8.4-8.1,8.2c-4.5-0.2-8.3-4.3-8.3-9c0-4.8,3.7-8.4,8.3-8.2 C924.1,886.2,927.7,890.2,927.7,894.9z"></path><path class="st14" d="M965,896.9c0,4.6-3.4,8.1-7.6,7.9c-4.2-0.2-7.7-4.1-7.7-8.7s3.5-8.2,7.7-7.9C961.6,888.5,965,892.4,965,896.9z "></path><path class="st14" d="M999.8,898.8c0,4.4-3.2,7.8-7.1,7.7c-4-0.2-7.2-4-7.2-8.4s3.2-7.9,7.2-7.7 C996.7,890.6,999.8,894.4,999.8,898.8z"></path><path class="st14" d="M1032.5,900.6c0,4.3-3,7.6-6.7,7.4c-3.7-0.2-6.8-3.8-6.8-8.2c0-4.3,3-7.7,6.8-7.4 C1029.5,892.7,1032.5,896.3,1032.5,900.6z"></path><polygon class="st6" points="1032.5,872.1 911.3,862.1 911.3,826.4 1032.5,840.2 "></polygon><polygon class="st3" points="1030.1,869.5 914.4,859.7 914.4,829.4 1030.1,842.3 "></polygon><path class="st15" d="M782.5,402.1c-22.7,0.2-34.2,20.1-35.4,40.8c-1.9,31.6,2,64.3,2.3,96c0.7,70.3-0.8,140.6-1.6,210.9 c-1.5,139.9-0.7,279.8,0.1,419.7c0.2,39.4,0.5,78.9,0.8,118.3c0.3,40.4-0.9,81.2,1.7,121.4c0.4,6.4,5.4,6.5,5.6,0 c2.7-66.2-1-133.1-1.5-199.3c-0.5-65.3-0.8-130.7-1-196c-0.4-131.6-0.6-263.1,0.5-394.7c0.3-37.1,0.7-74.2,1.1-111.3 c0.2-17.2,0.3-34.5-0.1-51.7c-0.2-10-0.9-20.4,6-28.8c5.5-6.7,14.3-10.8,22.2-13.6C786.3,412.9,786.2,402.1,782.5,402.1z"></path><path class="st6" d="M401.5,937c-1.9,18.5-4,36.7-6.2,54.9l-6.4,54.5l-6.4,54.2l-3.1,26.9c-1,8.9-2,17.9-2.7,26.4l-1.4,14.8 c-0.6,4.8-1.2,9.9-2,14.5c-1.4,9.5-2.9,18.6-4.5,27.8c-3.2,18.2-6.6,36.2-10,54.1c-3.4,17.9-6.7,35.7-9.9,53.5 c-1.5,8.9-3,17.7-4.4,26.5c-1.4,8.8-2.5,17.4-3.4,25.7l-0.1,0.8c-1.2,11.4-11.4,19.6-22.8,18.4c-10.5-1.1-18.3-9.9-18.5-20.2 c-0.2-9.9-0.2-19.4,0.1-28.7c0.2-9.4,0.6-18.6,1.1-27.8c0.8-18.4,1.8-36.7,2.8-54.9c1-18.2,2-36.3,2.7-54.2c0.4-9,0.7-17.9,0.8-26.5 c0.1-4.4,0-8.5,0-12.7l-0.5-12.5c-0.4-9.7-0.6-18.9-0.7-28.1l-0.4-27.6l-0.6-54.8c-0.4-36.4-0.8-72.8-1.9-108.5 c-0.9-27.2,20.5-50,47.8-50.9c27.2-0.9,50,20.5,50.9,47.8c0.1,2.2,0,4.3-0.2,6.4L401.5,937z"></path><path class="st6" d="M476.6,918.3c1.5,19,2.8,37.8,4,56.6c1.2,18.8,2.3,37.6,3.3,56.4c1,18.8,1.9,37.6,2.6,56.5 c0.4,9.4,0.7,18.9,0.9,28.4c0.2,9.5,0.4,19.1,0.4,29.2c0,10.5-0.6,19.9-1.1,29.4l-1.8,28.2l-3.9,55.9l-4,55.7 c-1.2,18.5-2.4,37.1-3.2,55.2l0,0.2c-0.5,11.4-10.2,20.3-21.7,19.8c-10.6-0.5-19-8.8-19.8-19.1c-1.5-19.1-2.6-37.7-3.7-56.3 l-3.3-55.9l-3.4-55.7l-1.9-27.6c-0.7-9.1-1.4-18.3-2.4-26.4c-1-8.5-2.3-17.5-3.7-26.4c-1.4-9-2.8-18-4.3-27.1 c-3-18.1-6.1-36.3-9.4-54.5c-6.5-36.3-13.5-72.7-21.2-108.3c-5.8-26.6,11.2-52.9,37.8-58.7c26.6-5.8,52.9,11.2,58.7,37.8 c0.4,2,0.8,4.1,0.9,6.1L476.6,918.3z"></path><path class="st16" d="M505.3,716.1c1.8,24,2.3,47.5,2.8,70.5c0.2,11.5,0.5,22.8,1,33.8c0.2,5.5,0.6,10.8,1,15.8 c0.5,5,1.2,9.8,1.9,12.9l0.4,1.5l-0.1,0l-0.6-0.7l-0.1-0.1l-0.1,0l0.1,0.1l0.3,0.3l0.5,0.7l1,1.4c0.6,0.9,1.4,1.9,2.3,2.9l2.4,3 l2.6,3c1.7,2,3.6,4,5.4,6.1c7.4,8.1,15.2,16.2,23.2,24.2c15.9,15.9,32.5,31.8,49.1,46.7l0.2,0.2c7.6,6.8,8.3,18.5,1.4,26.2 c-6.4,7.2-17.3,8.1-24.9,2.5c-19-14.2-37-28.7-55-43.7c-9-7.5-17.9-15.2-26.7-23.4c-2.2-2.1-4.4-4.1-6.6-6.2l-3.3-3.2l-3.4-3.4 c-1.1-1.1-2.2-2.3-3.4-3.6l-1.7-1.9l-0.9-1l-0.4-0.5l-0.1-0.1l-0.2-0.3l-0.4-0.5c-1.1-1.4-2.3-3.1-2.9-4.3c-0.8-1.3-1.5-2.7-2-3.8 c-1.2-2.4-2-4.5-2.8-6.5c-2.8-7.9-4.1-14.4-5.3-20.8c-1.2-6.3-2.1-12.4-2.9-18.4c-1.6-11.9-2.9-23.5-4.2-35 c-2.5-22.9-5.1-45.2-8.7-66.9c-2.8-16.8,8.6-32.8,25.4-35.6c16.9-2.8,32.8,8.6,35.6,25.4c0.1,0.9,0.3,1.8,0.3,2.7L505.3,716.1z"></path><path class="st17" d="M452.4,667.2c-7.4,7.5-10.6,17.6-11.6,27.9c-2.4,25.2,0.6,49.6,6.3,74.2c0.4,1.9,1,3.9,2.3,5.3 c2.1,2.1,5.5,2.2,8.5,2.1c10.7-0.4,19.4-1.8,29.7-4.7c6.5-1.8,37.7-10.4,35.3-19.2c-4.6-17-9.2-34.1-15-50.8 c-3.6-10.2-7.8-20.5-14.6-29.1c-5.9-7.5-14.8-10.7-24.4-11.2C461.2,661.4,456.2,663.3,452.4,667.2z"></path><path class="st16" d="M471.7,663.9c-0.9,6.4-1.7,14.8-5.2,20.5c-6.2,10.1-17.6,21.7-25.9,27.7c-14.1,10.1-26.4,8.5-40.5,1.3 s-30.6-43-34.9-57.4c-0.5-1.8-0.9-4.1,0.7-5.2c0.6-0.5,1.3-1,2.1-0.9c36.6,4.5,43.2-9.6,45.7-23.9l0.1-0.4c0.8-4.6,1.2-9.2,2-13.2 l22.9,3.1l-0.3,0.3l-0.1,0.1c-1.3,2.4-2.3,13.7-1,23.6l0.1,0.7l0,0.2c0.8,5.5,2.3,10.5,4.8,13.3 C448.5,660.6,462.3,661.4,471.7,663.9z"></path><path class="st18" d="M438.6,615.4l-0.3,0.3l-0.1,0.1c-1.3,2.4-2.3,13.7-1,23.6l0.1,0.7l0,0.2c-3.9-1.5-7.7-3-11.4-5 c-4.3-2.3-8.9-5.4-11.8-9.1l-0.5-0.7c0.8-4.6,1.2-9.2,2-13.2L438.6,615.4z"></path><path class="st19" d="M472.9,916.6c-1.3,1.7-3.4,2.9-7,3.6c-9.3,1.7-19.2,0.9-28.6,0.9c-38-0.1-76,5.2-112.5,15.6 c-4.2,1.2-8.4,2.5-12.7,2.1c-10.9-0.9-9.1-8.6-9.4-16.8c-0.4-10.6-0.7-21.1-0.6-31.7c0.1-20.7,1.2-41.3,3.4-61.9 c1.8-16.7,5.2-33,7.6-49.6c2.4-16.4,3.5-33,6-49.4c1.8-12.1,4.4-24.2,8.7-35.8c4.1-11.2,10.1-22,18.2-30.9c8.7-9.6,16-14,28.4-15 c10.5-0.9,24.2,13.5,32.1,19.2c9.1,6.5,19.6,12.3,30.8,12.1c5.2-0.1,9.2-2.7,10.8-7.7c1.8-5.6-0.3-10.6-0.1-16.2l0.3-1.2 c0.4-0.4,1-0.5,1.5-0.5c3.6-0.1,7.1,1.1,10.2,2.9c8.6,4.8,13.8,11.7,17.7,21c3.6,8.7,3.7,31,4.4,40.3c2.1,26.6,3.8,39.8,0.3,66.3 c-2.6,19.7-2.8,40.2-3.1,60c-0.4,20.3-1.1,40.6-3.6,60.7C474.9,909.9,474.9,913.9,472.9,916.6z"></path><path class="st6" d="M475.9,923.2l-0.1,0.2c-4.5,7.4-12.8,1.6-19.4-0.4c-8-2.4-19.1-0.3-27.4,0c-23.5,0.9-46.8,5.3-69.6,10.8 c-7.8,1.9-50.9,16.4-54.2,8.5c-2.9-6.7-3.5-14.1-4-21.4c-2.4-30.3-2.1-59.7,1.7-90c1.7-13.3,5.7-13.2,16.3-10 c9.6,2.9,20.7,3.9,30-0.5c11.3-5.3,18.8-17.2,22.1-28.8c3.9-13.7,9.2-27.2,12.1-41.3c7.1-34.5,2.1-67.6-1.3-102 c-0.1-0.9-0.1-2,0.5-2.7c0.4-0.5,1-0.7,1.6-0.9c1.8-0.5,3.8-0.8,5.7-0.7c0.6,0,1.3,0.1,1.7,0.5c0.3,0.3,0.4,0.8,0.5,1.3 c3,18.6,2.7,37.6,5.3,56.3c2.2,16,30.6,13.7,42.2,12.2c5.5-0.7,10.5-2,15.4-4.8c4.9-2.8,6.3-7.7,7.5-13c2.9-12.8,2.8-25.2,3.7-38.1 c0-0.5,0.1-1,0.5-1.3c1.9-1.5,7.9,1.6,9,3.4c0.5,0.8,0.6,1.8,0.8,2.7c1.7,10,2.5,20,4.2,30c1.9,10.4,3.5,20.9,4.3,31.5 c2.4,33.3-1.6,65.5-4.3,98.6c-1.8,22.3-3,44.6-3.7,67C476.5,898,479.6,916.4,475.9,923.2z"></path><path class="st16" d="M384.1,560.3c-1.8-1.2-4.5-0.9-6.2,0.4c-1.6,1.2-2.4,3.1-2.8,5c-0.7,3.9,0,8,2.2,11.6c1.1,1.8,2.5,3.5,4.6,4.5 l0.4,0.1l0.1-0.3c0.8-4.6,1.6-9.2,2.5-13.8L384.1,560.3z"></path><path class="st16" d="M491.2,571.5c-4.7,34.6-22.5,62.4-61,57.2c-39.3-5.3-51.5-33.8-47.9-68.5s31-61.2,61-57.2 C477.9,507.6,497.7,523.8,491.2,571.5z"></path><path class="st20" d="M389.1,566.2c-0.7-0.4-1.5-1.4-2.3-3c-1.6-3-5.9-3.7-9-2.5c-1.6-11.4,0.6-23.9,5.9-34.1 c5.7-11.1,17.9-24.3,31.1-25.7c2-0.2,4-0.2,5.9-0.8c1.3-0.4,2.5-1.1,3.7-1.7c10.6-5.9,26.1-3.7,37.7-1.6c12.7,2.2,25.1,6.5,36.3,13 c4.6,2.6,9.4,5.9,12.2,10.6c2.3,3.9,2.2,9.7-3.5,10.4c-2,0.3-4-0.3-6-0.8c2.1,5.9,4.3,11.9,5.2,18.1c1.1,8.6-0.2,20.3-9.8,23.4 c-4.7,1.6-10-0.1-14-3s-6.9-7.1-9.8-11.1c-0.3,2.8-1.1,5.6-2.8,7.8c-1.7,2.2-4.5,3.7-7.3,3.3c-3.1-0.4-5.4-3-7.3-5.4 c-3.4-4.5-6.1-9.4-8.2-14.6c-0.7,4.3-5.9,7.2-9.8,5.5c-4.2-1.8-6-7.1-10.2-8.8c-3-1.2-6.5-0.3-9.5,1c-5.9,2.4-11.3,5.8-16.1,9.9 C399.5,557.8,392.1,568,389.1,566.2z"></path><path class="st16" d="M378.2,712.3c-4.4,9.6-8.2,20.8-11.5,32.1c-3.4,11.4-6.3,23.1-9,35c-2.6,11.9-4.9,23.9-6.9,35.9 c-1,6-1.9,12-2.6,17.9c-0.8,5.8-1.4,12-1.7,16.8c-0.1,1.2-0.1,2.5-0.1,3.8c0,1.3,0,2.5,0.1,4c0.2,2.9,0.3,5.7,0.5,8.8 c0.4,6,1.1,12.1,1.7,18.2c1.3,12.3,2.9,24.7,4.6,37.1c1.7,12.4,3.5,24.8,5.5,37.2l3,18.5c1,6.1,2.1,12.4,3.2,18l0.1,0.3 c1.8,9.1-4.1,18-13.2,19.8c-8.6,1.8-17.1-3.5-19.5-11.9c-1.9-6.6-3.4-12.7-5-19l-4.6-18.7c-3-12.4-5.8-24.9-8.6-37.4 c-2.8-12.5-5.4-25-7.8-37.8c-1.2-6.4-2.4-12.8-3.4-19.4c-0.6-3.2-1-6.7-1.5-10.1c-0.2-1.6-0.4-3.6-0.6-5.5c-0.2-1.9-0.4-3.8-0.4-5.7 c-0.3-7.8-0.1-14.3,0.1-21.1c0.2-6.7,0.6-13.3,1.1-19.8c1-13.1,2.2-26.2,3.9-39.2c1.7-13.1,3.8-26.1,6.4-39.3 c2.7-13.2,5.8-26.5,10.6-40.5l0.1-0.3c5.4-15.6,22.4-23.9,38-18.5s23.9,22.4,18.5,38C379,710.5,378.6,711.5,378.2,712.3z"></path><path class="st19" d="M364.5,650.7c-10.4,1.5-19.2,7.5-26.2,15c-17.2,18.5-29.7,39.8-40.1,62.8c-0.8,1.8-1.6,3.7-1.4,5.7 c0.4,3,3,5.1,5.5,6.8c8.7,6.2,16.5,10.4,26.4,14.3c12.5,5,25.6,8.2,39,9.5c0.9,0.1,1.9,0.2,2.8-0.3c0.8-0.5,1.2-1.3,1.6-2.1 c11.1-21.9,10.9-51.2,11.8-75.2C384.4,673.8,384.4,647.9,364.5,650.7z"></path><path class="st21" d="M519,1402.7c-2.8,2.8-9.4,2.5-13,2.6c-5.4,0.1-52.1,0.3-66.2,0c-4.1-0.1-9.8-0.1-12-4.3 c-1-1.8-1.1-3.9-1.2-5.9c-0.4-6.4,1-10.4,0.6-16.8c-0.3-4.8-1.5-12-1.5-16.9c0-2.6,2.5-3.6,4.8-3.7c8.2-0.2,16.4-0.5,24.6-0.8 c3.2-0.1,7,0.1,8.6,2.9c1.6,2.7,3.3,5.8,7,3.7c3.3-1.8,3.7-5.4,4.8-8.8c0.6-1.9,2.8-4.2,5-3.8c2.8,0.5,3.6,4.8,3.6,7.1 c0.1,6.2-1.1,11.3,4.7,15.3c4.4,3,10,3.5,15,4.9c6.2,1.8,13.1,4.1,16.1,10.3C521.8,1392.4,522.3,1399.6,519,1402.7z"></path><path class="st21" d="M385.9,1402.7c-2.8,2.8-9.4,2.5-13,2.6c-5.4,0.1-52.1,0.3-66.2,0c-4.1-0.1-9.8-0.1-12-4.3 c-1-1.8-1.1-3.9-1.2-5.9c-0.4-6.4,1-10.4,0.6-16.8c-0.3-4.8-1.5-12-1.5-16.9c0-2.6,2.5-3.6,4.8-3.7c8.2-0.2,16.4-0.5,24.6-0.8 c3.2-0.1,7,0.1,8.6,2.9c1.6,2.7,3.3,5.8,7,3.7c3.3-1.8,3.7-5.4,4.8-8.8c0.6-1.9,2.8-4.2,5-3.8c2.8,0.5,3.6,4.8,3.6,7.1 c0.1,6.2-1.1,11.3,4.7,15.3c4.4,3,10,3.5,15,4.9c6.2,1.8,13.1,4.1,16.1,10.3C388.6,1392.4,389.2,1399.6,385.9,1402.7z"></path><path class="st22" d="M468.4,1203.7H290.8c-8.7,0-15.9-7.1-15.9-15.9v-118.9c0-8.7,7.1-15.9,15.9-15.9h177.5 c8.7,0,15.9,7.1,15.9,15.9v118.9C484.2,1196.6,477.1,1203.7,468.4,1203.7z"></path><path class="st23" d="M318.6,1062.6v-21c0-4.4,3.6-8.1,8.1-8.1h48.5c4.5,0,8.1,3.6,8.1,8.1v21h9.9v-30.6c0-5.5-4.5-10-10-10h-64.5 c-5.5,0-10,4.5-10,10v30.6H318.6z"></path><path class="st23" d="M439.5,1203.7H262c-8.7,0-15.9-7.1-15.9-15.9v-118.9c0-8.7,7.1-15.9,15.9-15.9h177.5c8.7,0,15.9,7.1,15.9,15.9 v118.9C455.4,1196.6,448.3,1203.7,439.5,1203.7z"></path><path class="st24" d="M440.2,1053.1c0,0,1.8,64.7-2.5,99.6c-2.7,21.7-10.7,32.7-32.2,33.5c-45.8,1.9-110,2.8-159.2-1v2 c0,9.1,6.9,16.5,15.2,16.5h178.7c8.4,0,15.2-7.4,15.2-16.5v-117.7C455.4,1060.5,448.5,1053.1,440.2,1053.1z"></path><path class="st16" d="M368.2,1005.4c-2.6-4.1-5.2-8.3-7.9-12.4l-1-1.1l-1-0.3c-3-0.3-6.5,0.3-9.5,0.6c-6.5,0.5-13.2,3-19.4,4.9 l-1.1,0.6c-0.3,0.3-0.4,0.8-0.5,1.3c-1.7,8.4-2.6,16.4-3.2,24.9c-0.4,5.2-2.8,12.4,4.5,13.7c2.5,0.4,5.2-0.5,6.9-2.5 c0.6,3.3,3.5,5.9,6.8,6.3c3.3,0.3,6.7-1.7,7.9-4.8c2.2,3.3,6.6,5,10.5,3.9c3.8-1.1,6.7-4.8,6.9-8.8c3.4,2.2,5.9,8.4,8.5,11.7 c0.8,1,1.9,1.9,3.2,2.2c1.9,0.4,3.9-1,4.7-2.8c3.1-6.6-3-15.1-6.2-20.5C375.1,1016.6,371.7,1011,368.2,1005.4z"></path><path class="st16" d="M613.6,948.1c-4.4-2.3-8.8-4.6-13.2-6.9c-0.4-0.2-0.9-0.5-1.4-0.5l-1,0.3c-2.8,1.2-5.5,3.6-8,5.3 c-5.8,4-9.5,9.2-13.6,14.7c-0.5,0.7-1,1.4-1.3,2.3c-0.5,1.8,0.4,3.6,1.2,5.3c5.2,10.8,10.1,21.2,15.6,31.6c2.2,4.2,9.5,4.8,8.5-1.3 c-0.8-4.8-0.6-9.3-1.9-14.4c4.3,6.5,8.6,12.1,11.9,18.3c1.5,2.9,5.8,4.7,8.5,3c2.1-1.3,3-4.5,2-6.8c-3.2-7.5-6-12.9-10.6-20.5 c5.8,4.5,11.1,9.4,17.1,13.3c2.1,1.4,4.8,2.7,7.1,1.8c2.3-0.9,3.4-3.7,3-6.1s-1.5-4.9-3.3-6.5c-5.3-4.5-8.7-8-13.5-12.6 c6.9,2.7,13.1,6.2,19.4,8.6c1.2,0.5,2.7,0.7,4,0.3c1.9-0.6,2.9-2.8,2.7-4.9c-0.7-7.4-10.3-11.7-15.8-14.9 C625.3,954.3,619.4,951.2,613.6,948.1z"></path><path class="st20" d="M1398.9,571.6c3.3,15.3,4.4,31.5,9.4,46c6.5,18.9,17.8,36,21.9,55.8c2.3,11.1,2.3,32.3-8.6,39.3 c-3.2,2-7,2.8-10.8,3.4c-45.9,7.8-94.4,5.5-137.5-12.2c-4.4-1.8-9-4-11.9-7.8c-2.9-3.8-3.7-8.8-3.7-13.6 c-0.1-19.7,11.2-37.2,18.6-55.5c5.8-14.4,9.4-29.6,10.5-45.1c0.8-10.5,0.6-21.8,6.9-30.2c6.2-8.2,16.8-11.4,26.9-13.3 c18.7-3.6,41.1-6.5,59.9-2.6c11.6,2.4,13.8,19,16.4,28.3C1397.8,566.7,1398.4,569.1,1398.9,571.6z"></path><path class="st16" d="M1347.6,933.8c1.7,18.7,3.5,37.2,5.4,55.7l6.1,55.2l6.3,54.9l3,27.3c1,9,1.9,18.1,2.7,26.8 c0.3,3.8,0.9,9.8,1.4,14.9c0.7,4.9,1.3,9.9,2,14.6c1.4,9.6,3.1,18.8,4.7,28.1c3.3,18.4,6.8,36.7,10.4,54.8 c3.6,18.1,7.1,36.2,10.5,54.2c3.4,17.9,6.8,36,8.8,53.1l0.1,0.6c1.2,9.6,9.8,16.4,19.4,15.3c8.7-1,15.1-8.2,15.4-16.7 c0.8-19.8,0.2-38.3-0.3-57c-0.7-18.7-1.5-37.2-2.4-55.6c-0.8-18.4-1.8-36.8-2.4-55c-0.3-9.1-0.6-18.1-0.7-26.9 c-0.1-4.5,0-8.6,0-12.9l0.5-12.7c0.3-9.8,0.5-19.1,0.7-28.5l0.3-27.9l0.4-55.5l0.3-55.2c0.1-18.3,0.2-36.7,0.5-54.8 c0.4-25.7-20.1-47-45.8-47.4c-25.7-0.4-47,20.1-47.4,45.8c0,1.7,0,3.3,0.2,4.9L1347.6,933.8z"></path><path class="st16" d="M1283.2,915.5c-1.8,18.1-4,36.6-6.4,55.2l-7,56.2c-2.4,18.8-4.6,37.8-6.7,56.9l-1.5,14.4 c-0.5,4.8-1,9.7-1.4,14.6c-0.9,9.8-1.6,19.8-2,30.7l-0.1,8.7l0.3,7.5l0.8,14.6l1.9,28.7c1.4,19,2.7,37.9,4.3,56.9l4.6,56.7 c1.6,18.8,3.2,37.7,4.4,56.3l0,0.2c0.6,9.6,9,16.9,18.6,16.3c8.7-0.6,15.4-7.4,16.3-15.7c1.9-19.3,3.4-38.2,4.9-57.2l3.9-56.8 l3.8-56.6l2-28.1l1.2-13.8l0.7-6.7l0.8-5.5c1.2-8,2.9-16.8,4.8-25.7c0.9-4.4,1.9-8.9,2.9-13.4l3-13.6l12.8-54.8l12.9-55.5 c4.1-18.7,8.2-37.4,12-56.8l0-0.1c4.9-25.2-11.6-49.5-36.8-54.4c-25.2-4.9-49.5,11.6-54.4,36.8 C1283.5,912.6,1283.3,914.1,1283.2,915.5z"></path><path class="st6" d="M1270.2,1101.7c-1.9,0.4-3.7,0.8-5.6,1.2c-10.9,2.4-26,5.9-28.6-7.5c-1.7-8.8,3.3-18.5,5.7-26.9 c3.4-12.4,7.1-24.8,10.1-37.3c5.9-25.1,15.3-58.3,17.9-84c2.4-23.9,1-53.1,18.3-68.2c21.6-18.8,51-10.7,78-7.6 c11.7,1.3,23.6,4.2,35,7.3c11.3,3.1,23.8,3.9,33.4,11.2c4.7,3.5,8.2,8.4,11.1,13.4c18.9,32.5,6,65.7,11.2,100.5 c3.2,21.7,9.8,42.4,20.8,61.4c2.2,3.8,4.7,7.8,5.1,12.2c1.6,17.2-27.6,24.2-39.7,26.4c-15.8,2.9-32.2,1.5-47.9-2 c-12.7-2.8-25.1-6.8-37.9-8.8C1328.1,1088.8,1298.9,1095.4,1270.2,1101.7z"></path><path class="st16" d="M1250,691.2c-7.9,24.2-18.4,48.7-30,72.3c-5.8,11.8-12,23.4-18.6,34.5c-3.3,5.5-6.7,11-10.2,16 c-3.5,5.1-7.1,10-10.5,13.7c-1.6,1.8-3.3,3.4-3.9,3.8c-0.2,0.2-0.2,0.1,1.7-0.4l0.7-0.1l1.1-0.2c0.6,0,1.8-0.1,2.7,0 c0.5,0,1.1,0.1,1.7,0.2l0.8,0.2c0.4,0.1,1,0.2,1.4,0.4c0.5,0.2,1,0.3,1.4,0.6l0.9,0.4l0.8,0.4l0.6,0.3l0.8,0.5l0.3,0.3l0.2,0.3 l-0.5-0.4c-0.6-0.6-1.4-1.5-2.2-2.5c-1.7-2-3.4-4.5-5.2-7c-7.1-10.4-14.1-22.1-20.9-33.7l-20.5-35.5c-3.5-6-7-12-10.6-18 c-1.8-3-3.7-6-5.7-9.1c-2-3.1-4-6.2-6.7-9.7c-5.5-7.3-15.9-8.7-23.2-3.2c-6.9,5.2-8.6,14.9-4,22.1l0.3,0.5c1.3,2,2.9,4.8,4.4,7.6 c1.5,2.8,3.1,5.7,4.6,8.7c3,5.9,6,12,9,18.1l18.1,37c6.2,12.5,12.4,24.8,19.9,37.6c1.9,3.2,3.9,6.5,6.3,9.9c1.2,1.8,2.5,3.5,4.2,5.5 c0.9,1,1.8,2.1,3,3.3c0.7,0.7,1.2,1.2,2.2,2c0.4,0.4,0.8,0.7,1.4,1.1c0.6,0.4,1.2,0.8,1.8,1.2l0.5,0.3l0.6,0.4l1.3,0.7 c0.5,0.2,0.8,0.4,1.4,0.7c0.7,0.3,1.3,0.5,2,0.8c0.7,0.2,1.4,0.4,2.1,0.6l1.5,0.3c1,0.2,2,0.3,3,0.4c1.8,0.1,3.8,0.1,5.2-0.1 c0.8-0.1,1.6-0.2,2.3-0.3l2-0.4c5.1-1.3,8.2-3.2,10.9-4.8c5.2-3.3,8.6-6.4,11.8-9.4c6.3-6,11.1-11.9,15.8-17.8 c4.6-5.9,8.9-11.8,13-17.8c8.2-12,15.7-24.1,22.8-36.4c14.2-24.7,27-49.9,37.9-77.2c5.7-14.2-1.2-30.2-15.4-35.9 c-14.2-5.7-30.2,1.2-35.9,15.4C1250.4,690,1250.2,690.6,1250,691.2L1250,691.2z"></path><path class="st3" d="M1322.2,659.1c6.1,12.4,4.1,25.8-2.2,37.8c-3.2,6.1-8.1,11-11.5,17c-3,5.3-4.6,10-9.3,14.4 c-1.1,1-2.3,2.1-3.8,2.5c-1.9,0.6-4,0-6-0.7c-17.4-5.6-33.6-14.9-47.3-27c-0.9-0.8-1.8-1.7-2.1-2.8c-0.3-1.2,0.2-2.4,0.7-3.5 c8.3-17.2,24.3-34.9,40.3-45.3c8.1-5.3,17.7-5.5,27-2.8C1315.5,650.7,1319.7,654.1,1322.2,659.1z"></path><path class="st16" d="M1292.5,652.7c0.4,6.5,0.6,15,3.7,21.1c5.5,10.7,16.1,23.3,24.1,30c13.5,11.3,26.1,10.7,40.9,4.4 c14.8-6.2,34.2-41,39.7-55.3c0.7-1.8,1.2-4-0.3-5.3c-0.6-0.5-1.3-1.1-2.1-1.1c-37.3,1.7-42.9-13.1-44.3-27.7l0-0.4 c-0.5-4.7-0.5-9.4-1-13.5l-23.4,1.3l0.3,0.3l0.1,0.1c1.2,2.5,1.2,14-0.8,23.9l-0.1,0.7l-0.1,0.2c-1.2,5.5-3.1,10.5-5.8,13.1 C1316.3,651.1,1302.2,650.9,1292.5,652.7z"></path><path class="st18" d="M1329.7,606.2l0.3,0.3l0.1,0.1c1.2,2.5,1.2,14-0.8,23.9l-0.1,0.7l-0.1,0.2c4.1-1.2,8.1-2.5,11.9-4.2 c4.5-2,9.4-4.8,12.6-8.3l0.5-0.6c-0.5-4.7-0.5-9.4-1-13.5L1329.7,606.2z"></path><path class="st3" d="M1450.3,907.8c1.7-0.4,3.4-1.1,4.5-2.5c1.7-2.1,1.5-5.2,1.2-7.9c-2-15.3-11-27.6-14.1-43 c-3.1-15.4-3.6-31.2-4.7-46.8c-1.7-23.6-2.8-47.3-3.4-71c-0.8-28.4,4.6-51.4-13.9-75.3c-8.1-10.3-15.1-15.3-27.6-17.3 c-10.5-1.7-25.5,11.8-33.9,16.9c-8.6,5.2-23.3,13.4-33.8,9.6c-8.3-3-9.7-13.2-9.6-21.6c0-2.3-1.5-3.3-3.8-3.2 c-12.8,0.6-17.8-0.1-23.8,8.5c-6,8.5-7.5,20.2-10.1,30.4c-3.1,12.2-5.9,24.4-8.6,36.7c-4.5,20.7-8.1,37.5,4.5,56.7 c4.2,6.3,10.1,12.3,13,19.4c6.7,15.9,2.8,38.9-2.3,54.9c-5.1,16-20.7,34.5-18,51.9c0.3,1.7,0.9,3.6,2.6,4c0.9,0.3,1.9,0,2.8-0.3 c45.4-13,90.2,4.8,135.8,3.9c14.2-0.3,26.7-1.5,40.7-3.4C1448.5,908.1,1449.4,908,1450.3,907.8z"></path><path class="st16" d="M1389,554.7c1.9-1.1,4.6-0.5,6.2,0.8c1.6,1.3,2.2,3.3,2.4,5.2c0.4,4-0.7,8.1-3.1,11.5c-1.2,1.7-2.8,3.3-5,4.2 l-0.4,0l-0.1-0.3c-0.5-4.7-0.9-9.4-1.4-14.1L1389,554.7z"></path><path class="st16" d="M1280,557.8c2.1,35.3,17.9,64.8,57.2,62.6c40.1-2.3,54.7-30.2,53.7-65.6c-1-35.4-26.6-64.3-57.2-62.5 C1298.4,494.2,1277.1,509,1280,557.8z"></path><path class="st16" d="M1384.5,708.4c3.7,10.2,6.6,21.8,9.1,33.5c2.5,11.8,4.6,23.9,6.3,36.1c1.7,12.2,3.1,24.6,4.2,36.9 c0.5,6.2,0.9,12.3,1.2,18.4c0.3,6,0.5,12.2,0.3,17.2c0,1.3-0.1,2.6-0.2,3.9c-0.1,1.3-0.2,2.5-0.4,4c-0.4,2.9-0.7,5.8-1.2,8.8 c-0.9,6-2,12.2-3.2,18.3c-2.3,12.3-4.9,24.8-7.6,37.2c-2.7,12.4-5.5,24.8-8.5,37.2l-4.5,18.5c-1.5,6.1-3.1,12.3-4.7,18l-0.1,0.2 c-2.5,8.7,2.6,17.7,11.2,20.2c8.2,2.3,16.8-2.1,19.8-10c2.4-6.5,4.4-12.6,6.5-18.8l6-18.5c3.9-12.3,7.8-24.7,11.5-37.1 c3.7-12.4,7.3-24.9,10.7-37.5c1.7-6.3,3.4-12.7,4.9-19.3c0.8-3.2,1.5-6.7,2.2-10.1c0.4-1.6,0.7-3.6,1-5.5c0.3-1.9,0.6-3.7,0.8-5.7 c0.9-7.8,1.2-14.4,1.5-21.2c0.2-6.8,0.4-13.4,0.4-20.1c0-13.3-0.3-26.5-1-39.8c-0.7-13.3-1.8-26.6-3.5-40.2 c-1.7-13.5-3.8-27.1-7.6-41.5l-0.1-0.3c-4.1-15.4-19.9-24.7-35.3-20.6c-15.4,4.1-24.7,19.9-20.6,35.3 C1384,706.7,1384.2,707.6,1384.5,708.4z"></path><path class="st3" d="M1400.3,645.9c14.2,0.8,27,15.1,35.9,27.2c10.4,14,13.7,20.2,19.6,34.8c0.8,2,2.3,4,1.9,6.2 c-0.5,3-3.6,4.7-6.4,6c-19.6,8.8-40.3,14.9-61.4,18.1c-0.8,0.1-1.7,0.2-2.5,0c-1.6-0.6-2.3-2.4-2.7-4.1 C1380.8,719.3,1364.8,643.8,1400.3,645.9z"></path><path class="st3" d="M1239.2,1403c2.3,2.5,7.5,2.2,10.5,2.3c4.4,0.1,41.8,0.3,53.2,0c3.3-0.1,7.9-0.1,9.7-3.8c0.8-1.6,0.9-3.5,1-5.3 c0.3-5.7-0.8-9.3-0.5-15c0.2-4.3,1.2-10.8,1.2-15.1c0-2.3-2-3.2-3.8-3.3c-6.6-0.2-13.2-0.5-19.8-0.7c-2.6-0.1-5.6,0.1-6.9,2.6 c-1.3,2.4-2.6,5.2-5.7,3.3c-2.7-1.7-3-4.9-3.9-7.9c-0.5-1.8-2.2-3.7-4-3.4c-2.2,0.4-2.9,4.3-2.9,6.4c-0.1,5.6,0.9,10.2-3.8,13.7 c-3.5,2.7-8,3.2-12,4.4c-5,1.6-10.5,3.7-12.9,9.2C1237,1393.8,1236.6,1400.2,1239.2,1403z"></path><path class="st3" d="M1373.1,1403c2.3,2.5,7.5,2.2,10.5,2.3c4.4,0.1,41.8,0.3,53.2,0c3.3-0.1,7.9-0.1,9.7-3.8c0.8-1.6,0.9-3.5,1-5.3 c0.3-5.7-0.8-9.3-0.5-15c0.2-4.3,1.2-10.8,1.2-15.1c0-2.3-2-3.2-3.8-3.3c-6.6-0.2-13.2-0.5-19.8-0.7c-2.6-0.1-5.6,0.1-6.9,2.6 c-1.3,2.4-2.6,5.2-5.7,3.3c-2.7-1.7-3-4.9-3.9-7.9c-0.5-1.8-2.2-3.7-4-3.4c-2.2,0.4-2.9,4.3-2.9,6.4c-0.1,5.6,0.9,10.2-3.8,13.7 c-3.5,2.7-8,3.2-12,4.4c-5,1.6-10.5,3.7-12.9,9.2C1370.9,1393.8,1370.4,1400.2,1373.1,1403z"></path><path class="st16" d="M1104,692.9c-3.1-4.8-7.5-13.1-14.1-13.3c-1.8-0.1-3.7,1-4.2,2.7c-0.3,1.2,0,2.4,0.5,3.5 c2.5,5.5,6,10.8,8.7,16.8c-4.4-4-7.6-6.8-11.9-11.3c-1.5-1.6-3.8-2.5-6-2.6s-4.6,0.9-5.3,3c-0.7,2.2,0.6,4.4,2,6.3 c3.8,5.2,8.4,9.7,12.8,14.6c-7-3.7-11.9-5.9-18.8-8.4c-2.1-0.8-4.9,0.2-6,2.2c-1.4,2.5,0.4,6.2,3.1,7.4c5.8,2.6,10.9,6.2,17,9.7 c-4.7-0.9-8.7-0.5-13-1c-5.5-0.5-4.6,5.9-0.7,7.7c9.5,4.3,19.1,8.2,29,12.3c1.5,0.6,3.2,1.3,4.8,0.8c0.7-0.3,1.3-0.8,1.9-1.3 c4.8-3.9,9.2-7.6,12.4-12.9c1.4-2.3,3.4-4.9,4.3-7.4l0.2-1l-0.5-1.2c-2.3-3.8-4.5-7.6-6.8-11.4 C1110.3,702.9,1107.2,697.9,1104,692.9z"></path><path class="st16" d="M1367,1027.5c-1.2,5.6-4.2,14.5,0.3,19.4c1.2,1.3,3.3,2,4.9,1.1c1-0.6,1.7-1.7,2.2-2.8 c2.2-5.6,3.5-11.8,5.9-18c0.2,5.9,0.4,10.2,0.2,16.5c-0.1,2.2,0.9,4.4,2.3,6.1s3.9,2.7,5.9,1.7c2.1-1,2.7-3.6,3.1-5.8 c1-6.3,1-12.8,1.5-19.3c2.3,7.5,4.2,12.6,7.2,19.3c0.9,2,3.6,3.3,5.7,2.7c2.8-0.8,4.2-4.7,3.2-7.4c-2.2-5.9-3.2-12.2-5-18.9 c2.6,3.9,5.7,6.6,8.4,9.9c3.5,4.3,7.4-0.8,6-4.9c-3.6-9.8-7.5-19.3-11.5-29.3c-0.6-1.5-1.3-3.2-2.8-4c-0.7-0.3-1.5-0.4-2.3-0.5 c-6.2-0.6-11.8-1.3-17.9,0.2c-2.7,0.6-5.8,1-8.3,2.1l-0.8,0.5l-0.5,1.2c-1.1,4.3-2.3,8.6-3.4,12.8 C1369.7,1015.9,1368.2,1021.7,1367,1027.5z"></path><path class="st20" d="M1371.5,566.1c5.2,11.6,5,26,10.8,37.6c5.9,11.7,17.1,22.5,25.7,32.3c-0.8-1-0.8-4.6-1.1-5.9 c-0.4-2.3-0.8-4.7-1.1-7c-0.7-4.5-1.3-9-1.8-13.5c-1.1-9-2-18-2.9-27c-1.6-16.7-2.2-34.1-5.3-50.6c-3.5-18.6-15.7-35-32.8-42.3 c-11.1-4.7-25.3-7.2-37.6-7.3c-10.8,0-21.1,0.1-30.1,6.7c-0.5,0.4-1,0.7-1.6,0.9c-0.8,0.2-1.6,0-2.4,0c-5-0.5-11,3.5-14,7.5 c-4.4,5.9-5.8,12.7-7.2,19.9c-1.4,7.3-0.4,14.5,1.5,21.7c0.9,3.5,2.1,6.8,3.6,10.1c0.8,1.7,4.6,7,4.3,8.6c0.9-5.9,2.6-11.7,4.8-17.2 c1.1-2.7,2.5-5.3,3.8-8c0.4-0.8,3.2-5.6,3-6.1c3.8,8.3,9.7,15.5,17,20.9c3.7,2.7,7.8,5,12.3,5.6c-2.6-2.9-4.1-6.8-4.2-10.7 c7.9,7.2,19.2,9.1,29.9,9.9c-1.9-0.2-5.3-7.6-5.8-9.1c10,3.7,20.5,7.7,27,16.1C1369.1,561.4,1370.4,563.7,1371.5,566.1z"></path><path class="st25" d="M1300.3,799.2c16.5-1.2,34.3-6.5,48.1,5.6c0.9,0.8,0.8,5.5-0.5,4.7c-7.6-4.1-14.6-7.4-23.4-7.4 c-8.1,0-16.1,2.2-24.2,0.7C1299.3,802.6,1299.3,799.2,1300.3,799.2z"></path><path class="st25" d="M1443.8,724.8c-13.2,4.2-26.4,7.9-39.9,10.9c-9.4,2.1-15.8,6.4-19.8-3c-9.2-21.6-10.7-50.3-5.6-73 c0.4-1.6,1.2,0.2,1.1,1c-2,21.3-4.3,46.1,4.1,66.5c3.4,8.4,5.7,9.4,13.4,7.9c4.5-0.9,8.9-1.9,13.4-2.9c11.1-2.6,22.1-5.6,33-8.9 C1444.1,723.2,1444.2,724.6,1443.8,724.8z"></path><path class="st25" d="M1269.8,714.3c-0.1-18,4.8-38,12.8-54.1c0.9-1.9,1.7,1.5,1.4,2.4c-5.9,17.4-9.6,34.1-12.9,52.1 C1270.9,716.3,1269.8,715.6,1269.8,714.3z"></path><path class="st10" d="M1568.8,478.5c-51,2.7-53.2,5-56,56h0c-2.7-51-5-53.2-56-56v0c51-2.7,53.2-5,56-56h0 C1515.5,473.5,1517.8,475.7,1568.8,478.5L1568.8,478.5z"></path><path class="st3" d="M351.7,433.3c-39.1,2.1-40.8,3.8-42.9,42.9h0c-2.1-39.1-3.8-40.8-42.9-42.9v0c39.1-2.1,40.8-3.8,42.9-42.9h0 C310.9,429.5,312.6,431.2,351.7,433.3L351.7,433.3z"></path><path class="st10" d="M1195.4,741.5c-39.1,2.1-40.8,3.8-42.9,42.9h0c-2.1-39.1-3.8-40.8-42.9-42.9v0c39.1-2.1,40.8-3.8,42.9-42.9h0 C1154.6,737.7,1156.3,739.4,1195.4,741.5L1195.4,741.5z"></path><path class="st10" d="M997.4,1028.7c-39.1,2.1-40.8,3.8-42.9,42.9h0c-2.1-39.1-3.8-40.8-42.9-42.9v0c39.1-2.1,40.8-3.8,42.9-42.9h0 C956.6,1024.9,958.3,1026.6,997.4,1028.7L997.4,1028.7z"></path><path class="st3" d="M1691.8,1203.7c-19.6,0-38.3,17.2-37.4,37.4c0.9,20.3,16.4,37.4,37.4,37.4c19.6,0,38.3-17.2,37.4-37.4 C1728.3,1220.8,1712.7,1203.7,1691.8,1203.7z"></path><path class="st10" d="M202.1,686c-19.6,0-38.3,17.2-37.4,37.4c0.9,20.3,16.4,37.4,37.4,37.4c19.6,0,38.3-17.2,37.4-37.4 C238.6,703.2,223.1,686,202.1,686z"></path><path class="st3" d="M302.5,547.2c-16,0-16.1,25,0,25C318.5,572.1,318.5,547.2,302.5,547.2z"></path><path class="st3" d="M170.4,515.5c-16.1,0-16.1,25,0,25C186.4,540.5,186.5,515.5,170.4,515.5z"></path><path class="st3" d="M836,172.1c-16,0-16.1,24.9,0,24.9C852,197.1,852.1,172.1,836,172.1z"></path><path class="st3" d="M968.1,55.9c-16,0-16.1,24.9,0,24.9C984.1,80.9,984.1,55.9,968.1,55.9z"></path><path class="st3" d="M1411.8,151c-16.1,0-16.1,24.9,0,24.9C1427.8,175.9,1427.9,151,1411.8,151z"></path><path class="st3" d="M1686.5,235.5c-16.1,0-16.1,25,0,25C1702.5,260.5,1702.6,235.5,1686.5,235.5z"></path><path class="st3" d="M1607.2,140.4c-16.1,0-16.1,24.9,0,24.9C1623.3,165.4,1623.3,140.4,1607.2,140.4z"></path><path class="st3" d="M1702.3,1059.6c-16.1,0-16.1,24.9,0,24.9C1718.4,1084.5,1718.4,1059.6,1702.3,1059.6z"></path><path class="st3" d="M1781.6,1175.8c-16.1,0-16.1,24.9,0,24.9C1797.6,1200.8,1797.6,1175.8,1781.6,1175.8z"></path><g>	<g>		<rect x="782.8" y="126.8" class="st26" width="778.8" height="165.2"></rect>		<path class="st27" d="M1561.6,292c0,17.7-4.3,32.4-9.2,43.6H792c-4.5-10.1-8.4-23.1-9.1-38.6c-0.1-1.6-0.1-3.3-0.1-5H1561.6z"></path>		<path class="st28" d="M795.1,330.9c-4.4-10.9-7-22.3-7.5-34.1c0,0,0-0.1,0-0.1h769.2c-0.5,11.8-3,23.3-7.5,34.2H795.1z"></path>		<path class="st27" d="M1269.4,239h-188.7c-0.4,0-0.7-0.3-0.7-0.7v-42.8c0-0.4,0.3-0.7,0.7-0.7h188.7c0.4,0,0.7,0.3,0.7,0.7v42.8   C1270.1,238.7,1269.8,239,1269.4,239z"></path>		<path class="st29" d="M1082.8,236v-38.3c0-0.1,0.1-0.2,0.2-0.2h184.2c0.1,0,0.2,0.1,0.2,0.2V236c0,0.1-0.1,0.2-0.2,0.2h-184.2   C1082.9,236.2,1082.8,236.1,1082.8,236z"></path>		<path class="st30" d="M1561.6,126.8H782.8c0-1.8,0.3-3.6,0.8-5.2c2.7-9.3,11.5-15.4,21.1-15.4h735c9.6,0,18.4,6.2,21.1,15.4   C1561.3,123.2,1561.6,125,1561.6,126.8z"></path>		<path class="st27" d="M999.6,114H833.2c-1.1,0-1.2-0.9-0.1-2.1l0,0c1.1-1.1,2.9-2,4-2H1002c1.1,0,1.5,0.9,0.8,2l0,0   C1002.2,113.1,1000.7,114,999.6,114z"></path>		<path class="st27" d="M993.5,124H823.6c-1.2,0-1.2-1,0-2.2l0,0c1.2-1.2,3-2.2,4.2-2.2h168.4c1.2,0,1.5,1,0.8,2.2l0,0   C996.3,123,994.7,124,993.5,124z"></path>		<path class="st27" d="M1109.9,114h-100.2c-1.1,0-1.5-0.9-0.9-2.1l0,0c0.6-1.1,2.1-2,3.2-2h98.8c1.1,0,1.8,0.9,1.6,2l0,0   C1112.2,113.1,1111.1,114,1109.9,114z"></path>		<path class="st27" d="M1107.8,124H1004c-1.2,0-1.6-1-0.9-2.2l0,0c0.7-1.2,2.2-2.2,3.3-2.2h102.2c1.2,0,1.9,1,1.7,2.2l0,0   C1110.1,123,1109,124,1107.8,124z"></path>		<path class="st27" d="M1220.3,114h-100.2c-1.1,0-1.9-0.9-1.7-2.1l0,0c0.2-1.1,1.3-2,2.4-2h98.8c1.1,0,2.2,0.9,2.4,2l0,0   C1222.2,113.1,1221.4,114,1220.3,114z"></path>		<path class="st27" d="M1222.1,124h-103.8c-1.2,0-1.9-1-1.7-2.2l0,0c0.2-1.2,1.3-2.2,2.5-2.2h102.2c1.2,0,2.3,1,2.5,2.2l0,0   C1224,123,1223.3,124,1222.1,124z"></path>		<path class="st27" d="M1330.7,114h-100.2c-1.1,0-2.2-0.9-2.5-2.1l0,0c-0.2-1.1,0.5-2,1.6-2h98.8c1.1,0,2.5,0.9,3.2,2l0,0   C1332.2,113.1,1331.8,114,1330.7,114z"></path>		<path class="st27" d="M1336.3,124h-103.8c-1.2,0-2.3-1-2.6-2.2l0,0c-0.2-1.2,0.5-2.2,1.7-2.2h102.2c1.2,0,2.7,1,3.3,2.2l0,0   C1337.9,123,1337.5,124,1336.3,124z"></path>		<path class="st27" d="M1511.2,114h-170.3c-1.1,0-2.6-0.9-3.3-2.1l0,0c-0.7-1.1-0.3-2,0.8-2h168.9c1.1,0,2.9,0.9,4,2l0,0   C1512.3,113.1,1512.3,114,1511.2,114z"></path>		<path class="st27" d="M1520.7,124h-173.9c-1.2,0-2.7-1-3.4-2.2l0,0c-0.7-1.2-0.4-2.2,0.8-2.2h172.3c1.2,0,3,1,4.2,2.2l0,0   C1521.9,123,1521.9,124,1520.7,124z"></path>		<rect x="782.8" y="158" class="st27" width="778.8" height="3.9"></rect>		<path class="st27" d="M1059,273.7H793.3c-1.8,0-3.2-1.5-3.2-3.2l0,0c0-1.8,1.5-3.2,3.2-3.2H1059c1.8,0,3.2,1.5,3.2,3.2l0,0   C1062.2,272.2,1060.7,273.7,1059,273.7z"></path>		<path class="st27" d="M1551.1,273.7h-269.7c-1.8,0-3.2-1.5-3.2-3.2l0,0c0-1.8,1.5-3.2,3.2-3.2h269.7c1.8,0,3.2,1.5,3.2,3.2l0,0   C1554.3,272.2,1552.9,273.7,1551.1,273.7z"></path>		<path class="st27" d="M1059,254H793.3c-1.8,0-3.2-1.5-3.2-3.2l0,0c0-1.8,1.5-3.2,3.2-3.2H1059c1.8,0,3.2,1.5,3.2,3.2l0,0   C1062.2,252.6,1060.7,254,1059,254z"></path>		<path class="st27" d="M1551.1,254h-269.7c-1.8,0-3.2-1.5-3.2-3.2l0,0c0-1.8,1.5-3.2,3.2-3.2h269.7c1.8,0,3.2,1.5,3.2,3.2l0,0   C1554.3,252.6,1552.9,254,1551.1,254z"></path>		<g>			<path class="st26" d="M1547.2,308.2h-750c-3,0-5-2.9-4.1-5.7l2-5.8h754.3l2,5.8C1552.2,305.3,1550.2,308.2,1547.2,308.2z"></path>			<path class="st26" d="M1547.2,319.6h-750c-3,0-5-2.9-4.1-5.7l2-5.8h754.3l2,5.8C1552.2,316.7,1550.2,319.6,1547.2,319.6z"></path>			<path class="st26" d="M1547.2,330.9h-750c-3,0-5-2.9-4.1-5.7l2-5.8h754.3l2,5.8C1552.2,328,1550.2,330.9,1547.2,330.9z"></path>		</g>		<path class="st31" d="M1302.1,201.4c0,3.6-3,6.6-6.6,6.6c-3.6,0-6.6-3-6.6-6.6c0-3.6,3-6.6,6.6-6.6   C1299.1,194.8,1302.1,197.7,1302.1,201.4z"></path>		<path class="st32" d="M1329,201.4c0,3.6-3,6.6-6.6,6.6c-3.6,0-6.6-3-6.6-6.6c0-3.6,3-6.6,6.6-6.6   C1326,194.8,1329,197.7,1329,201.4z"></path>	</g>	<path class="st27" d="M1547.2,308.7h-750c-0.3,0-0.5-0.2-0.5-0.5c0-0.3,0.2-0.5,0.5-0.5h750c0.3,0,0.5,0.2,0.5,0.5  C1547.7,308.5,1547.5,308.7,1547.2,308.7z"></path>	<path class="st27" d="M1547.2,320.1h-750c-0.3,0-0.5-0.2-0.5-0.5c0-0.3,0.2-0.5,0.5-0.5h750c0.3,0,0.5,0.2,0.5,0.5  C1547.7,319.8,1547.5,320.1,1547.2,320.1z"></path></g><g>	<g>		<path class="st33" d="M1292.5,405c-0.1,0-0.2,0-0.3-0.1c-0.3-0.2-0.3-0.5-0.2-0.7l13.9-23c0.2-0.3,0.5-0.3,0.7-0.2   c0.3,0.2,0.3,0.5,0.2,0.7l-13.9,23C1292.8,404.9,1292.7,405,1292.5,405z"></path>		<path class="st33" d="M1285.5,404.8c-0.2,0-0.4-0.1-0.5-0.3l-12.9-23.5c-0.1-0.3,0-0.6,0.2-0.7c0.3-0.1,0.6,0,0.7,0.2L1286,404   c0.1,0.3,0,0.6-0.2,0.7C1285.7,404.8,1285.6,404.8,1285.5,404.8z"></path>		<path class="st33" d="M1281.9,410.8C1281.9,410.8,1281.9,410.8,1281.9,410.8l-26.8-0.6c-0.3,0-0.5-0.3-0.5-0.6   c0-0.3,0.2-0.5,0.6-0.5l26.8,0.6c0.3,0,0.5,0.3,0.5,0.6C1282.4,410.6,1282.2,410.8,1281.9,410.8z"></path>		<path class="st33" d="M1271.3,439.9c-0.1,0-0.2,0-0.3-0.1c-0.3-0.2-0.3-0.5-0.2-0.7l13.9-23c0.2-0.3,0.5-0.3,0.7-0.2   c0.3,0.2,0.3,0.5,0.2,0.7l-13.9,23C1271.7,439.8,1271.5,439.9,1271.3,439.9z"></path>		<path class="st33" d="M1305.2,440.6c-0.2,0-0.4-0.1-0.5-0.3l-12.9-23.5c-0.1-0.3,0-0.6,0.2-0.7c0.3-0.1,0.6,0,0.7,0.2l12.9,23.5   c0.1,0.3,0,0.6-0.2,0.7C1305.3,440.6,1305.2,440.6,1305.2,440.6z"></path>		<path class="st33" d="M1322.7,411.7C1322.7,411.7,1322.7,411.7,1322.7,411.7l-26.8-0.6c-0.3,0-0.5-0.3-0.5-0.6   c0-0.3,0.2-0.5,0.6-0.5l26.8,0.6c0.3,0,0.5,0.3,0.5,0.6C1323.2,411.4,1323,411.7,1322.7,411.7z"></path>		<path class="st33" d="M1292.2,417C1292.2,417,1292.2,417,1292.2,417l-7-0.1c-0.2,0-0.4-0.1-0.5-0.3l-3.4-6.1   c-0.1-0.2-0.1-0.4,0-0.5l3.6-6c0.1-0.2,0.3-0.3,0.5-0.3l7,0.1c0.2,0,0.4,0.1,0.5,0.3l3.4,6.1c0.1,0.2,0.1,0.4,0,0.5l-3.6,6   C1292.6,416.9,1292.4,417,1292.2,417z M1285.6,415.8l6.3,0.1l3.3-5.4l-3.1-5.6l-6.3-0.1l-3.3,5.4L1285.6,415.8z"></path>		<path class="st33" d="M1307.2,386.5c-0.3,0-0.5-0.2-0.5-0.5l-0.6-3.9l-3.8,1.2c-0.3,0.1-0.6-0.1-0.7-0.3c-0.1-0.3,0.1-0.6,0.3-0.7   l4.4-1.4c0.1,0,0.3,0,0.4,0.1c0.1,0.1,0.2,0.2,0.3,0.4l0.7,4.5C1307.7,386.2,1307.5,386.5,1307.2,386.5   C1307.2,386.5,1307.2,386.5,1307.2,386.5z"></path>		<g>			<path class="st33" d="M1303.7,395.1c-0.3,0-0.5-0.2-0.5-0.5l-1-6.1l-5.9,1.9c-0.3,0.1-0.6-0.1-0.7-0.3c-0.1-0.3,0.1-0.6,0.3-0.7    l6.5-2.1c0.2,0,0.3,0,0.4,0.1c0.1,0.1,0.2,0.2,0.3,0.4l1.1,6.8C1304.3,394.8,1304.1,395,1303.7,395.1    C1303.7,395.1,1303.7,395.1,1303.7,395.1z"></path>			<path class="st33" d="M1299.5,403.5c-0.3,0-0.5-0.2-0.5-0.5l-1.2-7.2l-7,2.3c-0.3,0.1-0.6-0.1-0.7-0.3c-0.1-0.3,0.1-0.6,0.3-0.7    l7.6-2.5c0.2,0,0.3,0,0.4,0.1c0.1,0.1,0.2,0.2,0.3,0.4l1.3,7.9C1300,403.1,1299.8,403.4,1299.5,403.5    C1299.5,403.5,1299.5,403.5,1299.5,403.5z"></path>		</g>		<g>			<path class="st33" d="M1274.8,394.5c0,0-0.1,0-0.1,0c-0.3-0.1-0.5-0.3-0.4-0.6l1.4-6.7c0-0.2,0.1-0.3,0.3-0.4    c0.1-0.1,0.3-0.1,0.4,0l6.4,2.4c0.3,0.1,0.4,0.4,0.3,0.7c-0.1,0.3-0.4,0.4-0.7,0.3l-5.8-2.2l-1.3,6.1    C1275.2,394.3,1275,394.5,1274.8,394.5z"></path>			<path class="st33" d="M1278.6,403c0,0-0.1,0-0.1,0c-0.3-0.1-0.5-0.3-0.4-0.6l1.6-7.8c0-0.2,0.1-0.3,0.3-0.4    c0.1-0.1,0.3-0.1,0.4,0l7.5,2.8c0.3,0.1,0.4,0.4,0.3,0.7c-0.1,0.3-0.4,0.4-0.7,0.3l-6.9-2.6l-1.5,7.2    C1279.1,402.9,1278.9,403,1278.6,403z"></path>		</g>		<g>			<path class="st33" d="M1267.6,414.9c-0.1,0-0.3,0-0.4-0.1l-5.1-4.6c-0.1-0.1-0.2-0.3-0.2-0.4c0-0.2,0.1-0.3,0.2-0.4l5.3-4.3    c0.2-0.2,0.6-0.2,0.8,0.1c0.2,0.2,0.2,0.6-0.1,0.8l-4.8,3.9l4.6,4.1c0.2,0.2,0.2,0.5,0,0.8    C1267.9,414.9,1267.7,414.9,1267.6,414.9z"></path>			<path class="st33" d="M1276.9,415.9c-0.1,0-0.3,0-0.4-0.1l-5.9-5.3c-0.1-0.1-0.2-0.3-0.2-0.4c0-0.2,0.1-0.3,0.2-0.4l6.2-5.1    c0.2-0.2,0.6-0.2,0.8,0.1c0.2,0.2,0.2,0.6-0.1,0.8l-5.7,4.7l5.5,4.9c0.2,0.2,0.2,0.5,0,0.8    C1277.2,415.8,1277.1,415.9,1276.9,415.9z"></path>		</g>		<g>			<path class="st33" d="M1275.2,433.5c-0.1,0-0.2,0-0.3-0.1c-0.1-0.1-0.2-0.2-0.3-0.4l-1.1-6.8c0-0.3,0.1-0.6,0.4-0.6    c0.3-0.1,0.6,0.2,0.6,0.4l1,6.1l5.9-1.9c0.3-0.1,0.6,0.1,0.7,0.3c0.1,0.3-0.1,0.6-0.3,0.7l-6.5,2.1    C1275.3,433.5,1275.2,433.5,1275.2,433.5z"></path>			<path class="st33" d="M1279.6,426.3c-0.1,0-0.2,0-0.3-0.1c-0.1-0.1-0.2-0.2-0.3-0.4l-1.3-7.9c0-0.3,0.2-0.6,0.4-0.6    c0.3-0.1,0.6,0.2,0.6,0.4l1.2,7.2l7-2.3c0.3-0.1,0.6,0.1,0.7,0.3c0.1,0.3-0.1,0.6-0.3,0.7l-7.6,2.5    C1279.7,426.2,1279.6,426.3,1279.6,426.3z"></path>		</g>		<g>			<path class="st33" d="M1301.6,434.1c-0.1,0-0.1,0-0.2,0l-6.4-2.4c-0.3-0.1-0.4-0.4-0.3-0.7c0.1-0.3,0.4-0.4,0.7-0.3l5.8,2.2    l1.3-6.1c0.1-0.3,0.3-0.5,0.6-0.4c0.3,0.1,0.5,0.3,0.4,0.6l-1.4,6.7c0,0.2-0.1,0.3-0.3,0.4    C1301.8,434.1,1301.7,434.1,1301.6,434.1z"></path>			<path class="st33" d="M1297.5,426.6c-0.1,0-0.1,0-0.2,0l-7.5-2.8c-0.3-0.1-0.4-0.4-0.3-0.7c0.1-0.3,0.4-0.4,0.7-0.3l6.9,2.6    l1.5-7.2c0.1-0.3,0.3-0.5,0.6-0.4c0.3,0.1,0.5,0.3,0.4,0.6l-1.6,7.8c0,0.2-0.1,0.3-0.3,0.4    C1297.7,426.6,1297.6,426.6,1297.5,426.6z"></path>		</g>		<g>			<path class="st33" d="M1310,415.8c-0.2,0-0.3-0.1-0.4-0.2c-0.2-0.2-0.2-0.6,0.1-0.8l4.8-3.9l-4.6-4.1c-0.2-0.2-0.2-0.5,0-0.8    c0.2-0.2,0.5-0.2,0.8,0l5.1,4.6c0.1,0.1,0.2,0.3,0.2,0.4c0,0.2-0.1,0.3-0.2,0.4l-5.3,4.3C1310.2,415.8,1310.1,415.8,1310,415.8z"></path>			<path class="st33" d="M1300.6,416.4c-0.2,0-0.3-0.1-0.4-0.2c-0.2-0.2-0.2-0.6,0.1-0.8l5.7-4.7l-5.5-4.9c-0.2-0.2-0.2-0.5,0-0.8    c0.2-0.2,0.5-0.2,0.8,0l5.9,5.3c0.1,0.1,0.2,0.3,0.2,0.4s-0.1,0.3-0.2,0.4l-6.2,5.1C1300.9,416.3,1300.7,416.4,1300.6,416.4z"></path>		</g>		<path class="st33" d="M1271.7,385.8c0,0-0.1,0-0.1,0c-0.3-0.1-0.5-0.3-0.4-0.6l0.9-4.5c0-0.2,0.1-0.3,0.3-0.4   c0.1-0.1,0.3-0.1,0.4,0l4.3,1.6c0.3,0.1,0.4,0.4,0.3,0.7c-0.1,0.3-0.4,0.4-0.7,0.3l-3.7-1.4l-0.8,3.9   C1272.1,385.6,1271.9,385.8,1271.7,385.8z"></path>		<path class="st33" d="M1258.5,413.3c-0.1,0-0.3,0-0.4-0.1l-3.4-3.1c-0.1-0.1-0.2-0.3-0.2-0.4c0-0.2,0.1-0.3,0.2-0.4l3.5-2.9   c0.2-0.2,0.6-0.2,0.8,0.1c0.2,0.2,0.2,0.6-0.1,0.8l-3.1,2.5l3,2.6c0.2,0.2,0.2,0.5,0,0.8C1258.8,413.2,1258.6,413.3,1258.5,413.3z   "></path>		<path class="st33" d="M1271.4,439.9c-0.1,0-0.2,0-0.3-0.1c-0.1-0.1-0.2-0.2-0.3-0.4l-0.7-4.5c0-0.3,0.1-0.6,0.4-0.6   c0.3-0.1,0.6,0.2,0.6,0.4l0.6,3.9l3.8-1.2c0.3-0.1,0.6,0.1,0.7,0.3c0.1,0.3-0.1,0.6-0.3,0.7l-4.4,1.4   C1271.5,439.8,1271.4,439.9,1271.4,439.9z"></path>		<path class="st33" d="M1305.2,440.6c-0.1,0-0.1,0-0.2,0l-4.3-1.6c-0.3-0.1-0.4-0.4-0.3-0.7c0.1-0.3,0.4-0.4,0.7-0.3l3.7,1.4   l0.8-3.9c0.1-0.3,0.3-0.5,0.6-0.4c0.3,0.1,0.5,0.3,0.4,0.6l-0.9,4.5c0,0.2-0.1,0.3-0.3,0.4   C1305.3,440.5,1305.2,440.6,1305.2,440.6z"></path>		<path class="st33" d="M1319.1,414.6c-0.2,0-0.3-0.1-0.4-0.2c-0.2-0.2-0.2-0.6,0.1-0.8l3.1-2.5l-3-2.6c-0.2-0.2-0.2-0.5,0-0.8   c0.2-0.2,0.5-0.2,0.8,0l3.4,3.1c0.1,0.1,0.2,0.3,0.2,0.4c0,0.2-0.1,0.3-0.2,0.4l-3.5,2.9C1319.4,414.5,1319.3,414.6,1319.1,414.6z   "></path>	</g></g><g>	<g>		<path class="st33" d="M965.5,369.9c-0.1,0-0.2,0-0.2-0.1c-0.2-0.1-0.3-0.4-0.2-0.6l12-19.7c0.1-0.2,0.4-0.3,0.6-0.2   c0.2,0.1,0.3,0.4,0.2,0.6l-12,19.7C965.8,369.8,965.6,369.9,965.5,369.9z"></path>		<path class="st33" d="M959.5,369.7c-0.2,0-0.3-0.1-0.4-0.2L948,349.3c-0.1-0.2,0-0.5,0.2-0.6c0.2-0.1,0.5,0,0.6,0.2l11.1,20.2   c0.1,0.2,0,0.5-0.2,0.6C959.6,369.7,959.5,369.7,959.5,369.7z"></path>		<path class="st33" d="M956.4,374.9C956.4,374.9,956.4,374.9,956.4,374.9l-23.1-0.5c-0.3,0-0.5-0.2-0.5-0.5c0-0.3,0.2-0.5,0.5-0.5   l23.1,0.5c0.3,0,0.5,0.2,0.5,0.5C956.8,374.6,956.6,374.9,956.4,374.9z"></path>		<path class="st33" d="M947.3,399.8c-0.1,0-0.2,0-0.2-0.1c-0.2-0.1-0.3-0.4-0.2-0.6l12-19.7c0.1-0.2,0.4-0.3,0.6-0.2   c0.2,0.1,0.3,0.4,0.2,0.6l-12,19.7C947.6,399.8,947.4,399.8,947.3,399.8z"></path>		<path class="st33" d="M976.4,400.5c-0.2,0-0.3-0.1-0.4-0.2L964.8,380c-0.1-0.2,0-0.5,0.2-0.6c0.2-0.1,0.5,0,0.6,0.2l11.1,20.2   c0.1,0.2,0,0.5-0.2,0.6C976.5,400.4,976.4,400.5,976.4,400.5z"></path>		<path class="st33" d="M991.4,375.6C991.4,375.6,991.4,375.6,991.4,375.6l-23.1-0.5c-0.3,0-0.5-0.2-0.5-0.5c0-0.3,0.2-0.4,0.5-0.5   l23.1,0.5c0.3,0,0.5,0.2,0.5,0.5C991.9,375.4,991.7,375.6,991.4,375.6z"></path>		<path class="st33" d="M965.2,380.2C965.2,380.2,965.2,380.2,965.2,380.2l-6-0.1c-0.2,0-0.3-0.1-0.4-0.2l-2.9-5.3   c-0.1-0.1-0.1-0.3,0-0.5l3.1-5.1c0.1-0.1,0.2-0.2,0.4-0.2l6,0.1c0.2,0,0.3,0.1,0.4,0.2l2.9,5.3c0.1,0.1,0.1,0.3,0,0.5l-3.1,5.1   C965.6,380.1,965.4,380.2,965.2,380.2z M959.5,379.2l5.5,0.1l2.8-4.7l-2.6-4.8l-5.5-0.1l-2.8,4.7L959.5,379.2z"></path>		<path class="st33" d="M978.1,354c-0.2,0-0.4-0.2-0.5-0.4l-0.6-3.4l-3.2,1.1c-0.2,0.1-0.5-0.1-0.6-0.3c-0.1-0.2,0.1-0.5,0.3-0.6   l3.7-1.2c0.1,0,0.3,0,0.4,0c0.1,0.1,0.2,0.2,0.2,0.3l0.6,3.9C978.6,353.7,978.4,354,978.1,354C978.1,354,978.1,354,978.1,354z"></path>		<g>			<path class="st33" d="M975.1,361.4c-0.2,0-0.4-0.2-0.5-0.4l-0.9-5.3l-5.1,1.7c-0.2,0.1-0.5-0.1-0.6-0.3c-0.1-0.2,0.1-0.5,0.3-0.6    l5.6-1.8c0.1,0,0.3,0,0.4,0c0.1,0.1,0.2,0.2,0.2,0.3l1,5.8C975.6,361.1,975.4,361.3,975.1,361.4    C975.1,361.4,975.1,361.4,975.1,361.4z"></path>			<path class="st33" d="M971.5,368.6c-0.2,0-0.4-0.2-0.5-0.4l-1-6.2l-6,2c-0.2,0.1-0.5-0.1-0.6-0.3c-0.1-0.2,0.1-0.5,0.3-0.6    l6.5-2.1c0.1,0,0.3,0,0.4,0c0.1,0.1,0.2,0.2,0.2,0.3l1.1,6.8C972,368.3,971.8,368.5,971.5,368.6    C971.5,368.6,971.5,368.6,971.5,368.6z"></path>		</g>		<g>			<path class="st33" d="M950.2,360.8C950.2,360.8,950.2,360.8,950.2,360.8c-0.3-0.1-0.5-0.3-0.5-0.6l1.2-5.8c0-0.1,0.1-0.2,0.2-0.3    c0.1-0.1,0.3-0.1,0.4,0l5.5,2.1c0.2,0.1,0.4,0.4,0.3,0.6c-0.1,0.2-0.4,0.4-0.6,0.3l-5-1.9l-1.1,5.2    C950.6,360.7,950.4,360.8,950.2,360.8z"></path>			<path class="st33" d="M953.5,368.2C953.5,368.2,953.5,368.2,953.5,368.2c-0.3-0.1-0.5-0.3-0.5-0.6l1.4-6.7c0-0.1,0.1-0.2,0.2-0.3    c0.1-0.1,0.3-0.1,0.4,0l6.4,2.4c0.2,0.1,0.4,0.4,0.3,0.6c-0.1,0.2-0.4,0.4-0.6,0.3l-5.9-2.2l-1.3,6.2    C953.9,368,953.8,368.2,953.5,368.2z"></path>		</g>		<g>			<path class="st33" d="M944,378.4c-0.1,0-0.2,0-0.3-0.1l-4.4-3.9c-0.1-0.1-0.2-0.2-0.2-0.4c0-0.1,0.1-0.3,0.2-0.3l4.5-3.7    c0.2-0.2,0.5-0.1,0.7,0.1c0.2,0.2,0.1,0.5-0.1,0.7l-4.1,3.4l4,3.6c0.2,0.2,0.2,0.5,0,0.7C944.3,378.4,944.2,378.4,944,378.4z"></path>			<path class="st33" d="M952.1,379.2c-0.1,0-0.2,0-0.3-0.1l-5.1-4.6c-0.1-0.1-0.2-0.2-0.2-0.4c0-0.1,0.1-0.3,0.2-0.3l5.3-4.3    c0.2-0.2,0.5-0.1,0.7,0.1c0.2,0.2,0.1,0.5-0.1,0.7l-4.9,4l4.7,4.2c0.2,0.2,0.2,0.5,0,0.7C952.3,379.2,952.2,379.2,952.1,379.2z"></path>		</g>		<g>			<path class="st33" d="M950.6,394.4c-0.1,0-0.2,0-0.2-0.1c-0.1-0.1-0.2-0.2-0.2-0.3l-1-5.8c0-0.3,0.1-0.5,0.4-0.5    c0.3,0,0.5,0.1,0.5,0.4l0.9,5.3l5.1-1.7c0.2-0.1,0.5,0.1,0.6,0.3c0.1,0.2-0.1,0.5-0.3,0.6l-5.6,1.8    C950.7,394.4,950.6,394.4,950.6,394.4z"></path>			<path class="st33" d="M954.4,388.1c-0.1,0-0.2,0-0.2-0.1c-0.1-0.1-0.2-0.2-0.2-0.3l-1.1-6.8c0-0.3,0.1-0.5,0.4-0.5    c0.3,0,0.5,0.1,0.5,0.4l1,6.2l6-2c0.2-0.1,0.5,0.1,0.6,0.3c0.1,0.2-0.1,0.5-0.3,0.6l-6.5,2.1    C954.5,388.1,954.4,388.1,954.4,388.1z"></path>		</g>		<g>			<path class="st33" d="M973.3,394.9c-0.1,0-0.1,0-0.2,0l-5.5-2.1c-0.2-0.1-0.4-0.4-0.3-0.6c0.1-0.2,0.4-0.4,0.6-0.3l5,1.9l1.1-5.2    c0.1-0.3,0.3-0.4,0.5-0.4c0.3,0.1,0.4,0.3,0.4,0.5l-1.2,5.8c0,0.1-0.1,0.2-0.2,0.3C973.4,394.9,973.4,394.9,973.3,394.9z"></path>			<path class="st33" d="M969.8,388.5c-0.1,0-0.1,0-0.2,0l-6.4-2.4c-0.2-0.1-0.4-0.4-0.3-0.6c0.1-0.2,0.4-0.4,0.6-0.3l5.9,2.2    l1.3-6.2c0.1-0.3,0.3-0.4,0.5-0.4c0.2,0.1,0.4,0.3,0.4,0.5l-1.4,6.7c0,0.1-0.1,0.2-0.2,0.3C969.9,388.5,969.8,388.5,969.8,388.5z    "></path>		</g>		<g>			<path class="st33" d="M980.5,379.2c-0.1,0-0.3-0.1-0.4-0.2c-0.2-0.2-0.1-0.5,0.1-0.7l4.1-3.4l-4-3.6c-0.2-0.2-0.2-0.5,0-0.7    c0.2-0.2,0.5-0.2,0.7,0l4.4,3.9c0.1,0.1,0.2,0.2,0.2,0.4c0,0.1-0.1,0.3-0.2,0.3l-4.5,3.7C980.7,379.2,980.6,379.2,980.5,379.2z"></path>			<path class="st33" d="M972.5,379.7c-0.1,0-0.3-0.1-0.4-0.2c-0.2-0.2-0.1-0.5,0.1-0.7l4.9-4l-4.7-4.2c-0.2-0.2-0.2-0.5,0-0.7    c0.2-0.2,0.5-0.2,0.7,0l5.1,4.6c0.1,0.1,0.2,0.2,0.2,0.4s-0.1,0.3-0.2,0.3l-5.3,4.3C972.7,379.6,972.6,379.7,972.5,379.7z"></path>		</g>		<path class="st33" d="M947.6,353.4C947.5,353.4,947.5,353.4,947.6,353.4c-0.3-0.1-0.5-0.3-0.5-0.6l0.8-3.9c0-0.1,0.1-0.2,0.2-0.3   c0.1-0.1,0.3-0.1,0.4,0l3.7,1.4c0.2,0.1,0.4,0.4,0.3,0.6c-0.1,0.2-0.4,0.4-0.6,0.3l-3.2-1.2L948,353   C948,353.2,947.8,353.4,947.6,353.4z"></path>		<path class="st33" d="M936.2,377c-0.1,0-0.2,0-0.3-0.1l-2.9-2.6c-0.1-0.1-0.2-0.2-0.2-0.4c0-0.1,0.1-0.3,0.2-0.3l3-2.5   c0.2-0.2,0.5-0.1,0.7,0.1c0.2,0.2,0.1,0.5-0.1,0.7l-2.6,2.2l2.5,2.3c0.2,0.2,0.2,0.5,0,0.7C936.5,376.9,936.4,377,936.2,377z"></path>		<path class="st33" d="M947.3,399.8c-0.1,0-0.2,0-0.2-0.1c-0.1-0.1-0.2-0.2-0.2-0.3l-0.6-3.9c0-0.3,0.1-0.5,0.4-0.5   c0.3,0,0.5,0.1,0.5,0.4l0.6,3.4l3.2-1.1c0.2-0.1,0.5,0.1,0.6,0.3c0.1,0.2-0.1,0.5-0.3,0.6l-3.7,1.2   C947.4,399.8,947.3,399.8,947.3,399.8z"></path>		<path class="st33" d="M976.4,400.5c-0.1,0-0.1,0-0.2,0l-3.7-1.4c-0.2-0.1-0.4-0.4-0.3-0.6c0.1-0.2,0.4-0.4,0.6-0.3l3.2,1.2   l0.7-3.3c0.1-0.3,0.3-0.4,0.5-0.4c0.3,0.1,0.4,0.3,0.4,0.5l-0.8,3.9c0,0.1-0.1,0.2-0.2,0.3C976.5,400.4,976.4,400.5,976.4,400.5z"></path>		<path class="st33" d="M988.4,378.1c-0.1,0-0.3-0.1-0.4-0.2c-0.2-0.2-0.1-0.5,0.1-0.7l2.6-2.2l-2.5-2.3c-0.2-0.2-0.2-0.5,0-0.7   c0.2-0.2,0.5-0.2,0.7,0l2.9,2.6c0.1,0.1,0.2,0.2,0.2,0.4c0,0.1-0.1,0.3-0.2,0.3l-3,2.5C988.6,378.1,988.5,378.1,988.4,378.1z"></path>	</g></g><g>	<g>		<path class="st33" d="M1684,592.5c-0.1,0-0.2,0-0.3-0.1c-0.3-0.2-0.4-0.6-0.2-0.9l17.3-28.5c0.2-0.3,0.6-0.4,0.9-0.2   c0.3,0.2,0.4,0.6,0.2,0.9l-17.3,28.5C1684.4,592.4,1684.2,592.5,1684,592.5z"></path>		<path class="st33" d="M1675.3,592.3c-0.2,0-0.5-0.1-0.6-0.3l-16.1-29.2c-0.2-0.3-0.1-0.7,0.3-0.9c0.3-0.2,0.7-0.1,0.9,0.3   l16.1,29.2c0.2,0.3,0.1,0.7-0.3,0.9C1675.5,592.3,1675.4,592.3,1675.3,592.3z"></path>		<path class="st33" d="M1670.8,599.7C1670.8,599.7,1670.8,599.7,1670.8,599.7l-33.4-0.7c-0.4,0-0.7-0.3-0.7-0.7   c0-0.4,0.3-0.7,0.7-0.7l33.3,0.7c0.4,0,0.7,0.3,0.7,0.7C1671.5,599.4,1671.2,599.7,1670.8,599.7z"></path>		<path class="st33" d="M1657.7,635.8c-0.1,0-0.2,0-0.3-0.1c-0.3-0.2-0.4-0.6-0.2-0.9l17.3-28.5c0.2-0.3,0.6-0.4,0.9-0.2   c0.3,0.2,0.4,0.6,0.2,0.9l-17.3,28.5C1658.1,635.7,1657.9,635.8,1657.7,635.8z"></path>		<path class="st33" d="M1699.7,636.7c-0.2,0-0.5-0.1-0.6-0.3l-16.1-29.2c-0.2-0.3-0.1-0.7,0.3-0.9c0.3-0.2,0.7-0.1,0.9,0.3   l16.1,29.2c0.2,0.3,0.1,0.7-0.3,0.9C1699.9,636.7,1699.8,636.7,1699.7,636.7z"></path>		<path class="st33" d="M1721.5,600.8C1721.5,600.8,1721.5,600.8,1721.5,600.8l-33.4-0.7c-0.4,0-0.7-0.3-0.7-0.7   c0-0.4,0.3-0.6,0.7-0.7l33.3,0.7c0.4,0,0.7,0.3,0.7,0.7C1722.1,600.5,1721.8,600.8,1721.5,600.8z"></path>		<path class="st33" d="M1683.6,607.5C1683.6,607.5,1683.6,607.5,1683.6,607.5l-8.7-0.2c-0.2,0-0.5-0.1-0.6-0.3l-4.2-7.6   c-0.1-0.2-0.1-0.5,0-0.7l4.5-7.4c0.1-0.2,0.3-0.3,0.6-0.3l8.7,0.2c0.2,0,0.5,0.1,0.6,0.3l4.2,7.6c0.1,0.2,0.1,0.5,0,0.7l-4.5,7.4   C1684.1,607.3,1683.9,607.5,1683.6,607.5z M1675.4,606l7.9,0.2l4.1-6.7l-3.8-6.9l-7.9-0.2l-4.1,6.7L1675.4,606z"></path>		<path class="st33" d="M1702.2,569.6c-0.3,0-0.6-0.2-0.7-0.6l-0.8-4.9l-4.7,1.5c-0.4,0.1-0.7-0.1-0.8-0.4c-0.1-0.4,0.1-0.7,0.4-0.8   l5.4-1.8c0.2-0.1,0.4,0,0.6,0.1c0.2,0.1,0.3,0.3,0.3,0.5l0.9,5.6c0.1,0.4-0.2,0.7-0.6,0.8C1702.3,569.6,1702.2,569.6,1702.2,569.6   z"></path>		<g>			<path class="st33" d="M1697.9,580.2c-0.3,0-0.6-0.2-0.7-0.6l-1.3-7.6l-7.3,2.4c-0.4,0.1-0.7-0.1-0.8-0.4    c-0.1-0.4,0.1-0.7,0.4-0.8l8.1-2.7c0.2-0.1,0.4,0,0.6,0.1c0.2,0.1,0.3,0.3,0.3,0.5l1.4,8.4c0.1,0.4-0.2,0.7-0.6,0.8    C1697.9,580.2,1697.9,580.2,1697.9,580.2z"></path>			<path class="st33" d="M1692.6,590.6c-0.3,0-0.6-0.2-0.7-0.6l-1.5-9l-8.7,2.8c-0.3,0.1-0.7-0.1-0.8-0.4c-0.1-0.4,0.1-0.7,0.4-0.8    l9.4-3.1c0.2-0.1,0.4,0,0.6,0.1c0.2,0.1,0.3,0.3,0.3,0.5l1.6,9.8c0.1,0.4-0.2,0.7-0.6,0.8    C1692.7,590.6,1692.7,590.6,1692.6,590.6z"></path>		</g>		<g>			<path class="st33" d="M1661.9,579.4c0,0-0.1,0-0.1,0c-0.4-0.1-0.6-0.4-0.5-0.8l1.7-8.3c0-0.2,0.2-0.4,0.3-0.4    c0.2-0.1,0.4-0.1,0.6,0l8,3c0.3,0.1,0.5,0.5,0.4,0.9c-0.1,0.3-0.5,0.5-0.9,0.4l-7.2-2.7l-1.6,7.6    C1662.5,579.2,1662.2,579.4,1661.9,579.4z"></path>			<path class="st33" d="M1666.7,590.1c0,0-0.1,0-0.1,0c-0.4-0.1-0.6-0.4-0.5-0.8l2-9.7c0-0.2,0.2-0.4,0.3-0.5    c0.2-0.1,0.4-0.1,0.6,0l9.3,3.5c0.3,0.1,0.5,0.5,0.4,0.9c-0.1,0.3-0.5,0.5-0.9,0.4l-8.5-3.2l-1.9,8.9    C1667.3,589.8,1667,590.1,1666.7,590.1z"></path>		</g>		<g>			<path class="st33" d="M1653,604.9c-0.2,0-0.3-0.1-0.4-0.2l-6.3-5.7c-0.1-0.1-0.2-0.3-0.2-0.5c0-0.2,0.1-0.4,0.2-0.5l6.6-5.4    c0.3-0.2,0.7-0.2,0.9,0.1c0.2,0.3,0.2,0.7-0.1,0.9l-6,4.9l5.8,5.1c0.3,0.2,0.3,0.7,0.1,0.9C1653.4,604.8,1653.2,604.9,1653,604.9    z"></path>			<path class="st33" d="M1664.6,606c-0.2,0-0.3-0.1-0.4-0.2l-7.4-6.6c-0.1-0.1-0.2-0.3-0.2-0.5c0-0.2,0.1-0.4,0.2-0.5l7.7-6.3    c0.3-0.2,0.7-0.2,0.9,0.1c0.2,0.3,0.2,0.7-0.1,0.9l-7,5.8l6.8,6.1c0.3,0.2,0.3,0.7,0.1,0.9C1665,605.9,1664.8,606,1664.6,606z"></path>		</g>		<g>			<path class="st33" d="M1662.5,627.9c-0.1,0-0.2,0-0.3-0.1c-0.2-0.1-0.3-0.3-0.3-0.5l-1.4-8.4c-0.1-0.4,0.2-0.7,0.6-0.8    c0.4-0.1,0.7,0.2,0.8,0.6l1.3,7.6l7.3-2.4c0.4-0.1,0.7,0.1,0.8,0.4c0.1,0.4-0.1,0.7-0.4,0.8l-8.1,2.7    C1662.6,627.9,1662.5,627.9,1662.5,627.9z"></path>			<path class="st33" d="M1667.9,618.9c-0.1,0-0.2,0-0.3-0.1c-0.2-0.1-0.3-0.3-0.3-0.5l-1.6-9.8c-0.1-0.4,0.2-0.7,0.6-0.8    c0.4-0.1,0.7,0.2,0.8,0.6l1.5,9l8.7-2.8c0.4-0.1,0.7,0.1,0.8,0.4c0.1,0.4-0.1,0.7-0.4,0.8l-9.4,3.1    C1668.1,618.9,1668,618.9,1667.9,618.9z"></path>		</g>		<g>			<path class="st33" d="M1695.3,628.6c-0.1,0-0.2,0-0.2,0l-8-3c-0.3-0.1-0.5-0.5-0.4-0.9c0.1-0.3,0.5-0.5,0.9-0.4l7.2,2.7l1.6-7.6    c0.1-0.4,0.4-0.6,0.8-0.5c0.4,0.1,0.6,0.4,0.5,0.8l-1.7,8.3c0,0.2-0.2,0.4-0.3,0.4C1695.5,628.6,1695.4,628.6,1695.3,628.6z"></path>			<path class="st33" d="M1690.2,619.4c-0.1,0-0.2,0-0.2,0l-9.3-3.5c-0.3-0.1-0.5-0.5-0.4-0.9c0.1-0.3,0.5-0.5,0.9-0.4l8.5,3.2    l1.9-8.9c0.1-0.4,0.4-0.6,0.8-0.5c0.4,0.1,0.6,0.4,0.5,0.8l-2,9.7c0,0.2-0.2,0.4-0.3,0.4C1690.4,619.4,1690.3,619.4,1690.2,619.4    z"></path>		</g>		<g>			<path class="st33" d="M1705.7,606c-0.2,0-0.4-0.1-0.5-0.2c-0.2-0.3-0.2-0.7,0.1-0.9l6-4.9l-5.8-5.1c-0.3-0.2-0.3-0.7-0.1-0.9    c0.2-0.3,0.7-0.3,0.9-0.1l6.3,5.7c0.1,0.1,0.2,0.3,0.2,0.5c0,0.2-0.1,0.4-0.2,0.5l-6.6,5.4C1706,605.9,1705.9,606,1705.7,606z"></path>			<path class="st33" d="M1694.1,606.6c-0.2,0-0.4-0.1-0.5-0.2c-0.2-0.3-0.2-0.7,0.1-0.9l7-5.8l-6.8-6.1c-0.3-0.2-0.3-0.7-0.1-0.9    c0.2-0.3,0.7-0.3,0.9-0.1l7.4,6.6c0.1,0.1,0.2,0.3,0.2,0.5c0,0.2-0.1,0.4-0.2,0.5l-7.7,6.3    C1694.4,606.6,1694.2,606.6,1694.1,606.6z"></path>		</g>		<path class="st33" d="M1658.1,568.6c0,0-0.1,0-0.1,0c-0.4-0.1-0.6-0.4-0.5-0.8l1.2-5.6c0-0.2,0.2-0.4,0.3-0.4   c0.2-0.1,0.4-0.1,0.6,0l5.3,2c0.3,0.1,0.5,0.5,0.4,0.9c-0.1,0.3-0.5,0.5-0.9,0.4l-4.6-1.7l-1,4.8   C1658.7,568.4,1658.4,568.6,1658.1,568.6z"></path>		<path class="st33" d="M1641.7,602.8c-0.2,0-0.3-0.1-0.4-0.2l-4.2-3.8c-0.1-0.1-0.2-0.3-0.2-0.5c0-0.2,0.1-0.4,0.2-0.5l4.4-3.6   c0.3-0.2,0.7-0.2,0.9,0.1c0.2,0.3,0.2,0.7-0.1,0.9l-3.8,3.1l3.7,3.3c0.3,0.2,0.3,0.7,0.1,0.9   C1642.1,602.7,1641.9,602.8,1641.7,602.8z"></path>		<path class="st33" d="M1657.7,635.8c-0.1,0-0.2,0-0.3-0.1c-0.2-0.1-0.3-0.3-0.3-0.5l-0.9-5.6c-0.1-0.4,0.2-0.7,0.6-0.8   c0.4-0.1,0.7,0.2,0.8,0.6l0.8,4.9l4.7-1.5c0.4-0.1,0.7,0.1,0.8,0.4c0.1,0.4-0.1,0.7-0.4,0.8l-5.4,1.8   C1657.8,635.8,1657.8,635.8,1657.7,635.8z"></path>		<path class="st33" d="M1699.7,636.7c-0.1,0-0.2,0-0.2,0l-5.3-2c-0.3-0.1-0.5-0.5-0.4-0.9c0.1-0.3,0.5-0.5,0.9-0.4l4.6,1.7l1-4.8   c0.1-0.4,0.4-0.6,0.8-0.5c0.4,0.1,0.6,0.4,0.5,0.8l-1.2,5.6c0,0.2-0.2,0.4-0.3,0.5C1699.9,636.7,1699.8,636.7,1699.7,636.7z"></path>		<path class="st33" d="M1717.1,604.4c-0.2,0-0.4-0.1-0.5-0.2c-0.2-0.3-0.2-0.7,0.1-0.9l3.8-3.1l-3.7-3.3c-0.3-0.2-0.3-0.7-0.1-0.9   c0.2-0.3,0.7-0.3,0.9-0.1l4.2,3.8c0.1,0.1,0.2,0.3,0.2,0.5c0,0.2-0.1,0.4-0.2,0.5l-4.4,3.6   C1717.4,604.3,1717.2,604.4,1717.1,604.4z"></path>	</g></g><g>	<g>		<path class="st33" d="M1200,589.5c-0.1,0-0.2,0-0.2-0.1c-0.2-0.1-0.3-0.4-0.2-0.6l11.8-19.4c0.1-0.2,0.4-0.3,0.6-0.2   c0.2,0.1,0.3,0.4,0.2,0.6l-11.7,19.4C1200.3,589.4,1200.1,589.5,1200,589.5z"></path>		<path class="st33" d="M1194.1,589.3c-0.2,0-0.3-0.1-0.4-0.2l-10.9-19.9c-0.1-0.2,0-0.5,0.2-0.6c0.2-0.1,0.5,0,0.6,0.2l10.9,19.9   c0.1,0.2,0,0.5-0.2,0.6C1194.2,589.3,1194.1,589.3,1194.1,589.3z"></path>		<path class="st33" d="M1191,594.4C1191,594.4,1191,594.4,1191,594.4l-22.7-0.5c-0.3,0-0.5-0.2-0.4-0.5c0-0.3,0.2-0.4,0.5-0.4   l22.7,0.5c0.3,0,0.5,0.2,0.4,0.5C1191.5,594.2,1191.3,594.4,1191,594.4z"></path>		<path class="st33" d="M1182.1,618.9c-0.1,0-0.2,0-0.2-0.1c-0.2-0.1-0.3-0.4-0.2-0.6l11.7-19.4c0.1-0.2,0.4-0.3,0.6-0.2   c0.2,0.1,0.3,0.4,0.2,0.6l-11.7,19.4C1182.4,618.8,1182.3,618.9,1182.1,618.9z"></path>		<path class="st33" d="M1210.6,619.5c-0.2,0-0.3-0.1-0.4-0.2l-10.9-19.9c-0.1-0.2,0-0.5,0.2-0.6c0.2-0.1,0.5,0,0.6,0.2l10.9,19.9   c0.1,0.2,0,0.5-0.2,0.6C1210.8,619.5,1210.7,619.5,1210.6,619.5z"></path>		<path class="st33" d="M1225.4,595.1C1225.4,595.1,1225.4,595.1,1225.4,595.1l-22.7-0.5c-0.3,0-0.5-0.2-0.4-0.5   c0-0.3,0.2-0.4,0.5-0.4l22.7,0.5c0.3,0,0.5,0.2,0.4,0.5C1225.9,594.9,1225.7,595.1,1225.4,595.1z"></path>		<path class="st33" d="M1199.7,599.6C1199.7,599.6,1199.7,599.6,1199.7,599.6l-5.9-0.1c-0.2,0-0.3-0.1-0.4-0.2l-2.8-5.2   c-0.1-0.1-0.1-0.3,0-0.5l3.1-5c0.1-0.1,0.2-0.2,0.4-0.2l5.9,0.1c0.2,0,0.3,0.1,0.4,0.2l2.8,5.2c0.1,0.1,0.1,0.3,0,0.5l-3.1,5   C1200,599.6,1199.9,599.6,1199.7,599.6z M1194.1,598.6l5.4,0.1l2.8-4.6l-2.6-4.7l-5.4-0.1l-2.8,4.6L1194.1,598.6z"></path>		<path class="st33" d="M1212.3,573.9c-0.2,0-0.4-0.2-0.4-0.4l-0.5-3.3l-3.2,1c-0.2,0.1-0.5-0.1-0.6-0.3c-0.1-0.2,0.1-0.5,0.3-0.6   l3.7-1.2c0.1,0,0.3,0,0.4,0c0.1,0.1,0.2,0.2,0.2,0.3l0.6,3.8C1212.8,573.6,1212.7,573.8,1212.3,573.9   C1212.4,573.9,1212.4,573.9,1212.3,573.9z"></path>		<g>			<path class="st33" d="M1209.4,581.1c-0.2,0-0.4-0.2-0.4-0.4l-0.9-5.2l-5,1.6c-0.2,0.1-0.5-0.1-0.6-0.3c-0.1-0.2,0.1-0.5,0.3-0.6    l5.5-1.8c0.1,0,0.3,0,0.4,0c0.1,0.1,0.2,0.2,0.2,0.3l0.9,5.7C1209.9,580.8,1209.7,581.1,1209.4,581.1    C1209.5,581.1,1209.4,581.1,1209.4,581.1z"></path>			<path class="st33" d="M1205.8,588.2c-0.2,0-0.4-0.2-0.4-0.4l-1-6.1l-5.9,1.9c-0.2,0.1-0.5-0.1-0.6-0.3c-0.1-0.2,0.1-0.5,0.3-0.6    l6.4-2.1c0.1,0,0.3,0,0.4,0c0.1,0.1,0.2,0.2,0.2,0.3l1.1,6.6C1206.3,587.9,1206.2,588.1,1205.8,588.2    C1205.9,588.2,1205.9,588.2,1205.8,588.2z"></path>		</g>		<g>			<path class="st33" d="M1185,580.6C1184.9,580.6,1184.9,580.6,1185,580.6c-0.3-0.1-0.5-0.3-0.4-0.5l1.2-5.7c0-0.1,0.1-0.2,0.2-0.3    c0.1-0.1,0.3-0.1,0.4,0l5.4,2c0.2,0.1,0.4,0.4,0.3,0.6c-0.1,0.2-0.4,0.4-0.6,0.3l-4.9-1.8l-1.1,5.1    C1185.4,580.4,1185.2,580.6,1185,580.6z"></path>			<path class="st33" d="M1188.2,587.8C1188.2,587.8,1188.2,587.8,1188.2,587.8c-0.3-0.1-0.5-0.3-0.4-0.5l1.4-6.6    c0-0.1,0.1-0.2,0.2-0.3c0.1-0.1,0.3-0.1,0.4,0l6.3,2.4c0.2,0.1,0.4,0.4,0.3,0.6c-0.1,0.2-0.4,0.4-0.6,0.3l-5.8-2.2l-1.3,6.1    C1188.6,587.7,1188.4,587.8,1188.2,587.8z"></path>		</g>		<g>			<path class="st33" d="M1178.9,597.9c-0.1,0-0.2,0-0.3-0.1l-4.3-3.9c-0.1-0.1-0.2-0.2-0.2-0.3c0-0.1,0.1-0.3,0.2-0.3l4.5-3.7    c0.2-0.2,0.5-0.1,0.6,0.1c0.2,0.2,0.1,0.5-0.1,0.6l-4.1,3.3l3.9,3.5c0.2,0.2,0.2,0.5,0,0.6C1179.2,597.8,1179,597.9,1178.9,597.9    z"></path>			<path class="st33" d="M1186.8,598.6c-0.1,0-0.2,0-0.3-0.1l-5-4.5c-0.1-0.1-0.2-0.2-0.2-0.3c0-0.1,0.1-0.3,0.2-0.3l5.2-4.3    c0.2-0.2,0.5-0.1,0.6,0.1c0.2,0.2,0.1,0.5-0.1,0.6l-4.8,3.9l4.6,4.1c0.2,0.2,0.2,0.5,0,0.6C1187,598.6,1186.9,598.6,1186.8,598.6    z"></path>		</g>		<g>			<path class="st33" d="M1185.3,613.6c-0.1,0-0.2,0-0.2-0.1c-0.1-0.1-0.2-0.2-0.2-0.3l-0.9-5.7c0-0.2,0.1-0.5,0.4-0.5    c0.3,0,0.5,0.1,0.5,0.4l0.9,5.2l5-1.6c0.2-0.1,0.5,0.1,0.6,0.3c0.1,0.2-0.1,0.5-0.3,0.6l-5.5,1.8    C1185.4,613.6,1185.4,613.6,1185.3,613.6z"></path>			<path class="st33" d="M1189.1,607.4c-0.1,0-0.2,0-0.2-0.1c-0.1-0.1-0.2-0.2-0.2-0.3l-1.1-6.6c0-0.2,0.1-0.5,0.4-0.5    c0.3,0,0.5,0.1,0.5,0.4l1,6.1l5.9-1.9c0.2-0.1,0.5,0.1,0.6,0.3c0.1,0.2-0.1,0.5-0.3,0.6l-6.4,2.1    C1189.2,607.4,1189.1,607.4,1189.1,607.4z"></path>		</g>		<g>			<path class="st33" d="M1207.6,614c-0.1,0-0.1,0-0.2,0l-5.4-2c-0.2-0.1-0.4-0.4-0.3-0.6c0.1-0.2,0.4-0.4,0.6-0.3l4.9,1.8l1.1-5.1    c0.1-0.2,0.3-0.4,0.5-0.4c0.2,0.1,0.4,0.3,0.4,0.5l-1.2,5.7c0,0.1-0.1,0.2-0.2,0.3C1207.8,614,1207.7,614,1207.6,614z"></path>			<path class="st33" d="M1204.2,607.7c-0.1,0-0.1,0-0.2,0l-6.3-2.4c-0.2-0.1-0.4-0.4-0.3-0.6c0.1-0.2,0.4-0.4,0.6-0.3l5.8,2.2    l1.3-6.1c0.1-0.2,0.3-0.4,0.5-0.4c0.2,0.1,0.4,0.3,0.4,0.5l-1.4,6.6c0,0.1-0.1,0.2-0.2,0.3    C1204.3,607.7,1204.3,607.7,1204.2,607.7z"></path>		</g>		<g>			<path class="st33" d="M1214.7,598.6c-0.1,0-0.3-0.1-0.4-0.2c-0.2-0.2-0.1-0.5,0.1-0.6l4.1-3.3l-3.9-3.5c-0.2-0.2-0.2-0.5,0-0.6    c0.2-0.2,0.5-0.2,0.6,0l4.3,3.9c0.1,0.1,0.2,0.2,0.2,0.3c0,0.1-0.1,0.3-0.2,0.3l-4.5,3.7C1214.9,598.6,1214.8,598.6,1214.7,598.6    z"></path>			<path class="st33" d="M1206.8,599.1c-0.1,0-0.3-0.1-0.4-0.2c-0.2-0.2-0.1-0.5,0.1-0.6l4.8-3.9l-4.6-4.1c-0.2-0.2-0.2-0.5,0-0.6    c0.2-0.2,0.5-0.2,0.6,0l5,4.5c0.1,0.1,0.2,0.2,0.2,0.3c0,0.1-0.1,0.3-0.2,0.3l-5.2,4.3C1207,599,1206.9,599.1,1206.8,599.1z"></path>		</g>		<path class="st33" d="M1182.4,573.3C1182.3,573.3,1182.3,573.2,1182.4,573.3c-0.3-0.1-0.5-0.3-0.4-0.5l0.8-3.8   c0-0.1,0.1-0.2,0.2-0.3c0.1-0.1,0.3-0.1,0.4,0l3.6,1.4c0.2,0.1,0.4,0.4,0.3,0.6c-0.1,0.2-0.4,0.4-0.6,0.3l-3.1-1.2l-0.7,3.3   C1182.8,573.1,1182.6,573.3,1182.4,573.3z"></path>		<path class="st33" d="M1171.2,596.5c-0.1,0-0.2,0-0.3-0.1l-2.9-2.6c-0.1-0.1-0.2-0.2-0.2-0.3c0-0.1,0.1-0.3,0.2-0.3l3-2.5   c0.2-0.2,0.5-0.1,0.6,0.1c0.2,0.2,0.1,0.5-0.1,0.6l-2.6,2.1l2.5,2.2c0.2,0.2,0.2,0.5,0,0.6   C1171.5,596.4,1171.4,596.5,1171.2,596.5z"></path>		<path class="st33" d="M1182.1,618.9c-0.1,0-0.2,0-0.2-0.1c-0.1-0.1-0.2-0.2-0.2-0.3l-0.6-3.8c0-0.2,0.1-0.5,0.4-0.5   c0.3,0,0.5,0.1,0.5,0.4l0.5,3.3l3.2-1c0.2-0.1,0.5,0.1,0.6,0.3c0.1,0.2-0.1,0.5-0.3,0.6l-3.7,1.2   C1182.2,618.9,1182.1,618.9,1182.1,618.9z"></path>		<path class="st33" d="M1210.6,619.5c-0.1,0-0.1,0-0.2,0l-3.6-1.4c-0.2-0.1-0.4-0.4-0.3-0.6c0.1-0.2,0.4-0.4,0.6-0.3l3.1,1.2   l0.7-3.3c0.1-0.2,0.3-0.4,0.5-0.4c0.2,0.1,0.4,0.3,0.4,0.5l-0.8,3.8c0,0.1-0.1,0.2-0.2,0.3   C1210.8,619.5,1210.7,619.5,1210.6,619.5z"></path>		<path class="st33" d="M1222.5,597.6c-0.1,0-0.3-0.1-0.4-0.2c-0.2-0.2-0.1-0.5,0.1-0.6l2.6-2.1l-2.5-2.2c-0.2-0.2-0.2-0.5,0-0.6   c0.2-0.2,0.5-0.2,0.6,0l2.9,2.6c0.1,0.1,0.2,0.2,0.2,0.3c0,0.1-0.1,0.3-0.2,0.3l-3,2.5C1222.7,597.5,1222.6,597.6,1222.5,597.6z"></path>	</g></g><g>	<g>		<path class="st33" d="M1575.9,1039.9c-0.1,0-0.2,0-0.3-0.1c-0.3-0.2-0.4-0.5-0.2-0.8l14.7-24.3c0.2-0.3,0.5-0.4,0.8-0.2   c0.3,0.2,0.4,0.5,0.2,0.8l-14.7,24.3C1576.3,1039.8,1576.1,1039.9,1575.9,1039.9z"></path>		<path class="st33" d="M1568.6,1039.8c-0.2,0-0.4-0.1-0.5-0.3l-13.7-24.9c-0.2-0.3-0.1-0.6,0.2-0.8c0.3-0.2,0.6,0,0.8,0.2   l13.7,24.9c0.2,0.3,0.1,0.6-0.2,0.8C1568.8,1039.7,1568.7,1039.8,1568.6,1039.8z"></path>		<path class="st33" d="M1564.8,1046.1C1564.8,1046.1,1564.7,1046.1,1564.8,1046.1l-28.4-0.6c-0.3,0-0.6-0.3-0.6-0.6   c0-0.3,0.2-0.6,0.6-0.6l28.4,0.6c0.3,0,0.6,0.3,0.6,0.6C1565.3,1045.8,1565.1,1046.1,1564.8,1046.1z"></path>		<path class="st33" d="M1553.6,1076.8c-0.1,0-0.2,0-0.3-0.1c-0.3-0.2-0.4-0.5-0.2-0.8l14.7-24.3c0.2-0.3,0.5-0.4,0.8-0.2   c0.3,0.2,0.4,0.5,0.2,0.8l-14.7,24.3C1554,1076.7,1553.8,1076.8,1553.6,1076.8z"></path>		<path class="st33" d="M1589.3,1077.5c-0.2,0-0.4-0.1-0.5-0.3l-13.7-24.9c-0.2-0.3-0.1-0.6,0.2-0.8c0.3-0.2,0.6,0,0.8,0.2   l13.7,24.9c0.2,0.3,0.1,0.6-0.2,0.8C1589.5,1077.5,1589.4,1077.5,1589.3,1077.5z"></path>		<path class="st33" d="M1607.9,1047C1607.8,1047,1607.8,1047,1607.9,1047l-28.4-0.6c-0.3,0-0.6-0.3-0.6-0.6c0-0.3,0.2-0.5,0.6-0.6   l28.4,0.6c0.3,0,0.6,0.3,0.6,0.6C1608.4,1046.7,1608.2,1047,1607.9,1047z"></path>		<path class="st33" d="M1575.7,1052.7C1575.7,1052.7,1575.7,1052.7,1575.7,1052.7l-7.4-0.2c-0.2,0-0.4-0.1-0.5-0.3l-3.5-6.5   c-0.1-0.2-0.1-0.4,0-0.6l3.8-6.3c0.1-0.2,0.3-0.3,0.5-0.3l7.4,0.2c0.2,0,0.4,0.1,0.5,0.3l3.5,6.5c0.1,0.2,0.1,0.4,0,0.6l-3.8,6.3   C1576.1,1052.6,1575.9,1052.7,1575.7,1052.7z M1568.6,1051.4l6.7,0.1l3.5-5.7l-3.2-5.9l-6.7-0.1l-3.5,5.7L1568.6,1051.4z"></path>		<path class="st33" d="M1591.4,1020.4c-0.3,0-0.5-0.2-0.6-0.5l-0.7-4.1l-4,1.3c-0.3,0.1-0.6-0.1-0.7-0.4c-0.1-0.3,0.1-0.6,0.4-0.7   l4.6-1.5c0.2-0.1,0.3,0,0.5,0.1c0.1,0.1,0.2,0.2,0.3,0.4l0.8,4.8C1592.1,1020.1,1591.8,1020.4,1591.4,1020.4   C1591.5,1020.4,1591.5,1020.4,1591.4,1020.4z"></path>		<g>			<path class="st33" d="M1587.8,1029.5c-0.3,0-0.5-0.2-0.6-0.5l-1.1-6.5l-6.2,2c-0.3,0.1-0.6-0.1-0.7-0.4c-0.1-0.3,0.1-0.6,0.4-0.7    l6.9-2.3c0.2-0.1,0.3,0,0.5,0.1c0.1,0.1,0.2,0.2,0.3,0.4l1.2,7.1C1588.4,1029.1,1588.2,1029.4,1587.8,1029.5    C1587.8,1029.5,1587.8,1029.5,1587.8,1029.5z"></path>			<path class="st33" d="M1583.3,1038.3c-0.3,0-0.5-0.2-0.6-0.5l-1.3-7.7l-7.4,2.4c-0.3,0.1-0.6-0.1-0.7-0.4    c-0.1-0.3,0.1-0.6,0.4-0.7l8-2.6c0.2,0,0.3,0,0.5,0.1c0.1,0.1,0.2,0.2,0.3,0.4l1.4,8.3C1583.9,1038,1583.7,1038.3,1583.3,1038.3    C1583.4,1038.3,1583.3,1038.3,1583.3,1038.3z"></path>		</g>		<g>			<path class="st33" d="M1557.2,1028.8c0,0-0.1,0-0.1,0c-0.3-0.1-0.5-0.4-0.4-0.7l1.5-7.1c0-0.2,0.1-0.3,0.3-0.4    c0.1-0.1,0.3-0.1,0.5,0l6.8,2.5c0.3,0.1,0.4,0.4,0.3,0.7c-0.1,0.3-0.4,0.4-0.7,0.3l-6.1-2.3l-1.3,6.4    C1557.7,1028.6,1557.5,1028.8,1557.2,1028.8z"></path>			<path class="st33" d="M1561.3,1037.9c0,0-0.1,0-0.1,0c-0.3-0.1-0.5-0.4-0.4-0.7l1.7-8.2c0-0.2,0.1-0.3,0.3-0.4    c0.1-0.1,0.3-0.1,0.5,0l7.9,3c0.3,0.1,0.4,0.4,0.3,0.7c-0.1,0.3-0.4,0.4-0.7,0.3l-7.3-2.7l-1.6,7.6    C1561.8,1037.7,1561.5,1037.9,1561.3,1037.9z"></path>		</g>		<g>			<path class="st33" d="M1549.6,1050.4c-0.1,0-0.3,0-0.4-0.1l-5.4-4.8c-0.1-0.1-0.2-0.3-0.2-0.4c0-0.2,0.1-0.3,0.2-0.4l5.6-4.6    c0.2-0.2,0.6-0.2,0.8,0.1c0.2,0.2,0.2,0.6-0.1,0.8l-5.1,4.2l4.9,4.4c0.2,0.2,0.3,0.6,0,0.8    C1549.9,1050.4,1549.8,1050.4,1549.6,1050.4z"></path>			<path class="st33" d="M1559.5,1051.4c-0.1,0-0.3,0-0.4-0.1l-6.3-5.6c-0.1-0.1-0.2-0.3-0.2-0.4c0-0.2,0.1-0.3,0.2-0.4l6.5-5.3    c0.2-0.2,0.6-0.2,0.8,0.1c0.2,0.2,0.2,0.6-0.1,0.8l-6,4.9l5.8,5.2c0.2,0.2,0.3,0.6,0,0.8    C1559.8,1051.4,1559.6,1051.4,1559.5,1051.4z"></path>		</g>		<g>			<path class="st33" d="M1557.6,1070.1c-0.1,0-0.2,0-0.3-0.1c-0.1-0.1-0.2-0.2-0.3-0.4l-1.2-7.1c-0.1-0.3,0.2-0.6,0.5-0.7    c0.3-0.1,0.6,0.2,0.7,0.5l1.1,6.5l6.2-2c0.3-0.1,0.6,0.1,0.7,0.4c0.1,0.3-0.1,0.6-0.4,0.7l-6.9,2.3    C1557.8,1070.1,1557.7,1070.1,1557.6,1070.1z"></path>			<path class="st33" d="M1562.3,1062.4c-0.1,0-0.2,0-0.3-0.1c-0.1-0.1-0.2-0.2-0.3-0.4l-1.4-8.3c-0.1-0.3,0.2-0.6,0.5-0.7    c0.3-0.1,0.6,0.2,0.7,0.5l1.3,7.7l7.4-2.4c0.3-0.1,0.6,0.1,0.7,0.4c0.1,0.3-0.1,0.6-0.4,0.7l-8,2.6    C1562.4,1062.4,1562.4,1062.4,1562.3,1062.4z"></path>		</g>		<g>			<path class="st33" d="M1585.6,1070.7c-0.1,0-0.1,0-0.2,0l-6.8-2.5c-0.3-0.1-0.4-0.4-0.3-0.7c0.1-0.3,0.4-0.4,0.7-0.3l6.1,2.3    l1.3-6.4c0.1-0.3,0.4-0.5,0.7-0.4c0.3,0.1,0.5,0.4,0.4,0.7l-1.5,7.1c0,0.2-0.1,0.3-0.3,0.4    C1585.8,1070.7,1585.7,1070.7,1585.6,1070.7z"></path>			<path class="st33" d="M1581.2,1062.8c-0.1,0-0.1,0-0.2,0l-7.9-3c-0.3-0.1-0.4-0.4-0.3-0.7c0.1-0.3,0.4-0.4,0.7-0.3l7.3,2.7    l1.6-7.6c0.1-0.3,0.4-0.5,0.7-0.4c0.3,0.1,0.5,0.4,0.4,0.7l-1.7,8.2c0,0.2-0.1,0.3-0.3,0.4    C1581.4,1062.8,1581.3,1062.8,1581.2,1062.8z"></path>		</g>		<g>			<path class="st33" d="M1594.4,1051.4c-0.2,0-0.3-0.1-0.4-0.2c-0.2-0.2-0.2-0.6,0.1-0.8l5.1-4.2l-4.9-4.4c-0.2-0.2-0.3-0.6,0-0.8    c0.2-0.2,0.6-0.3,0.8,0l5.4,4.8c0.1,0.1,0.2,0.3,0.2,0.4c0,0.2-0.1,0.3-0.2,0.4l-5.6,4.6    C1594.7,1051.4,1594.6,1051.4,1594.4,1051.4z"></path>			<path class="st33" d="M1584.5,1052c-0.2,0-0.3-0.1-0.4-0.2c-0.2-0.2-0.2-0.6,0.1-0.8l6-4.9l-5.8-5.2c-0.2-0.2-0.3-0.6,0-0.8    c0.2-0.2,0.6-0.3,0.8,0l6.3,5.6c0.1,0.1,0.2,0.3,0.2,0.4c0,0.2-0.1,0.3-0.2,0.4l-6.5,5.3C1584.8,1051.9,1584.7,1052,1584.5,1052z    "></path>		</g>		<path class="st33" d="M1553.9,1019.6c0,0-0.1,0-0.1,0c-0.3-0.1-0.5-0.4-0.4-0.7l1-4.7c0-0.2,0.1-0.3,0.3-0.4   c0.1-0.1,0.3-0.1,0.5,0l4.5,1.7c0.3,0.1,0.4,0.4,0.3,0.7c-0.1,0.3-0.4,0.4-0.7,0.3l-3.9-1.5l-0.9,4.1   C1554.4,1019.5,1554.2,1019.6,1553.9,1019.6z"></path>		<path class="st33" d="M1540,1048.7c-0.1,0-0.3,0-0.4-0.1l-3.6-3.2c-0.1-0.1-0.2-0.3-0.2-0.4c0-0.2,0.1-0.3,0.2-0.4l3.7-3.1   c0.2-0.2,0.6-0.2,0.8,0.1c0.2,0.2,0.2,0.6-0.1,0.8l-3.2,2.7l3.1,2.8c0.2,0.2,0.3,0.6,0,0.8   C1540.3,1048.6,1540.2,1048.7,1540,1048.7z"></path>		<path class="st33" d="M1553.6,1076.8c-0.1,0-0.2,0-0.3-0.1c-0.1-0.1-0.2-0.2-0.3-0.4l-0.8-4.8c-0.1-0.3,0.2-0.6,0.5-0.7   c0.3-0.1,0.6,0.2,0.7,0.5l0.7,4.1l4-1.3c0.3-0.1,0.6,0.1,0.7,0.4c0.1,0.3-0.1,0.6-0.4,0.7l-4.6,1.5   C1553.7,1076.8,1553.7,1076.8,1553.6,1076.8z"></path>		<path class="st33" d="M1589.3,1077.5c-0.1,0-0.1,0-0.2,0l-4.5-1.7c-0.3-0.1-0.4-0.4-0.3-0.7c0.1-0.3,0.4-0.4,0.7-0.3l3.9,1.5   l0.9-4.1c0.1-0.3,0.4-0.5,0.7-0.4c0.3,0.1,0.5,0.4,0.4,0.7l-1,4.7c0,0.2-0.1,0.3-0.3,0.4   C1589.5,1077.5,1589.4,1077.5,1589.3,1077.5z"></path>		<path class="st33" d="M1604.1,1050.1c-0.2,0-0.3-0.1-0.4-0.2c-0.2-0.2-0.2-0.6,0.1-0.8l3.2-2.7l-3.1-2.8c-0.2-0.2-0.3-0.6,0-0.8   c0.2-0.2,0.6-0.3,0.8,0l3.6,3.2c0.1,0.1,0.2,0.3,0.2,0.4c0,0.2-0.1,0.3-0.2,0.4l-3.7,3.1C1604.4,1050,1604.2,1050.1,1604.1,1050.1   z"></path>	</g></g></svg>